<svg width="1928" height="1080" viewBox="0 0 1928 1080" fill="none" xmlns="http://www.w3.org/2000/svg">
<g filter="url(#filter0_d_11_28)">
<rect x="4" width="1920" height="951.804" fill="#74C2EC"/>
<rect x="4.5" y="0.5" width="1919" height="950.804" stroke="black"/>
</g>
<path d="M1195.28 698.189C1208.92 698.143 1225.18 702.336 1244.89 713.152C1327.04 758.226 1377.57 781.686 1407.68 793.899C1422.74 800.008 1432.75 803.327 1439.11 805.132C1442.29 806.035 1444.57 806.564 1446.12 806.874C1446.65 806.979 1447.1 807.056 1447.47 807.117C1447.81 807.259 1448.24 807.439 1448.75 807.648C1450.17 808.229 1452.23 809.057 1454.87 810.065C1460.14 812.079 1467.7 814.816 1476.92 817.735C1495.31 823.563 1520.49 830.171 1547.36 833.145C1600.46 839.021 1664.01 830.92 1690.88 769.051C1702.19 742.998 1721.26 730.2 1743.96 725.313C1767.11 720.33 1794.23 723.58 1820.64 730.573C1846.94 737.535 1871.84 748.013 1890.23 756.803C1899.4 761.188 1906.92 765.132 1912.13 767.973C1913.85 768.91 1915.31 769.73 1916.5 770.401V1072.5H11.5V771.182C13.3257 770.482 15.6605 769.601 18.458 768.57C25.9874 765.797 36.8663 761.948 50.2119 757.67C76.9251 749.106 113.418 738.852 152.66 732.024C191.967 725.186 233.653 721.854 270.886 726.889C308.128 731.925 340.101 745.204 361.211 770.832C408.798 828.604 464.061 834.659 507.107 825.981C528.437 821.68 546.714 813.8 559.622 807.035C566.091 803.645 571.251 800.514 574.817 798.214C576.601 797.063 577.99 796.118 578.946 795.45C579.425 795.116 579.796 794.851 580.055 794.664C580.184 794.571 580.286 794.496 580.358 794.442C580.394 794.416 580.423 794.394 580.445 794.378C580.456 794.37 580.466 794.363 580.474 794.357C580.477 794.355 580.482 794.351 580.483 794.35C580.486 794.346 580.424 794.255 576 788.337L580.49 794.345L580.667 794.212L580.835 794.071C580.836 794.07 580.837 794.069 580.839 794.067C580.843 794.064 580.852 794.057 580.863 794.047C580.887 794.027 580.925 793.996 580.977 793.952C581.081 793.865 581.243 793.731 581.46 793.552C581.895 793.194 582.553 792.657 583.424 791.958C585.166 790.56 587.761 788.517 591.127 785.971C597.86 780.876 607.669 773.776 619.906 765.803C644.416 749.835 678.505 730.478 717.027 716.692C755.584 702.895 798.162 694.83 839.849 700.949C881.319 707.037 922.389 727.221 958.204 770.824C976.953 793.65 993.328 808.92 1008.07 817.946C1022.95 827.052 1036.57 830.03 1049.3 827.484C1061.83 824.977 1072.23 817.354 1081.25 807.867C1090.26 798.393 1098.49 786.42 1106.51 774.279C1122.96 749.366 1138.62 723.854 1159.88 709.46C1170.22 702.459 1181.74 698.234 1195.28 698.189Z" fill="#33E917" stroke="#009608" stroke-width="15"/>
<rect x="4" y="912.035" width="1920" height="167.965" fill="#663609"/>
<rect x="39" y="912" width="472" height="168" fill="#3D2005"/>
<path d="M452.178 19.4975C482.1 19.4975 507.131 34.1741 524.503 54.8471L528.192 59.2378L533.396 56.8286C543.847 51.9901 554.382 48.7124 566.005 48.7124C597.869 48.7124 623.935 67.8732 634.073 93.5815L635.535 97.2905L639.428 98.1528C671.846 105.333 695.5 130.742 695.5 160.852C695.5 196.431 663.371 226.62 622.918 226.62H616.173L614.367 231.533C605.382 255.988 580.94 274.382 550.896 274.382C535.458 274.382 521.905 268.556 509.92 260.009L504.678 256.271L500.188 260.887C485.59 275.9 466.769 286.439 444.119 286.439C410.398 286.439 383.112 266.5 372.54 239.287L370.888 235.035L366.352 234.545C327.354 230.347 297.5 201.002 297.5 165.953C297.5 134.354 321.721 107.734 355.249 99.5053L360.125 98.3081L360.877 93.3432C367.083 52.3397 404.757 19.4977 452.178 19.4975Z" fill="white" stroke="black" stroke-width="15"/>
<path d="M1667.68 203.46C1697.6 203.46 1722.63 218.136 1740 238.809L1743.69 243.2L1748.9 240.791C1759.35 235.952 1769.88 232.674 1781.5 232.674C1813.37 232.674 1839.44 251.835 1849.57 277.544L1851.04 281.253L1854.93 282.115C1887.35 289.295 1911 314.704 1911 344.814C1911 380.393 1878.87 410.582 1838.42 410.582H1831.67L1829.87 415.495C1820.88 439.95 1796.44 458.344 1766.4 458.344C1750.96 458.344 1737.41 452.518 1725.42 443.971L1720.18 440.233L1715.69 444.849C1701.09 459.862 1682.27 470.401 1659.62 470.401C1625.9 470.401 1598.61 450.462 1588.04 423.249L1586.39 418.997L1581.85 418.507C1542.85 414.309 1513 384.964 1513 349.915C1513 318.316 1537.22 291.696 1570.75 283.467L1575.62 282.27L1576.38 277.305C1582.58 236.302 1620.26 203.46 1667.68 203.46Z" fill="white" stroke="black" stroke-width="15"/>
<path d="M1333.18 7.5C1363.1 7.5 1388.13 22.1766 1405.5 42.8496L1409.19 47.2402L1414.4 44.8311C1424.85 39.9926 1435.38 36.7148 1447 36.7148C1478.87 36.7148 1504.94 55.8756 1515.07 81.584L1516.54 85.293L1520.43 86.1553C1552.85 93.3358 1576.5 118.744 1576.5 148.854C1576.5 184.433 1544.37 214.622 1503.92 214.622H1497.17L1495.37 219.535C1486.38 243.99 1461.94 262.385 1431.9 262.385C1416.46 262.385 1402.91 256.558 1390.92 248.012L1385.68 244.273L1381.19 248.89C1366.59 263.903 1347.77 274.441 1325.12 274.441C1291.4 274.441 1264.11 254.502 1253.54 227.289L1251.89 223.037L1247.35 222.548C1208.35 218.349 1178.5 189.005 1178.5 153.955C1178.5 122.356 1202.72 95.736 1236.25 87.5078L1241.12 86.3105L1241.88 81.3457C1248.08 40.3422 1285.76 7.50015 1333.18 7.5Z" fill="white" stroke="black" stroke-width="15"/>
<path d="M878.178 160.468C908.1 160.468 933.131 175.145 950.503 195.818L954.192 200.209L959.396 197.799C969.847 192.961 980.382 189.683 992.005 189.683C1023.87 189.683 1049.94 208.844 1060.07 234.552L1061.54 238.261L1065.43 239.124C1097.85 246.304 1121.5 271.712 1121.5 301.823C1121.5 337.402 1089.37 367.59 1048.92 367.59H1042.17L1040.37 372.504C1031.38 396.959 1006.94 415.353 976.896 415.353C961.458 415.353 947.905 409.527 935.92 400.98L930.678 397.242L926.188 401.858C911.59 416.871 892.769 427.41 870.119 427.41C836.398 427.41 809.112 407.471 798.54 380.257L796.888 376.006L792.352 375.516C753.354 371.317 723.5 341.973 723.5 306.924C723.5 275.324 747.721 248.704 781.249 240.476L786.125 239.279L786.877 234.314C793.083 193.311 830.757 160.469 878.178 160.468Z" fill="white" stroke="black" stroke-width="15"/>
<defs>
<filter id="filter0_d_11_28" x="0" y="0" width="1928" height="959.804" filterUnits="userSpaceOnUse" color-interpolation-filters="sRGB">
<feFlood flood-opacity="0" result="BackgroundImageFix"/>
<feColorMatrix in="SourceAlpha" type="matrix" values="0 0 0 0 0 0 0 0 0 0 0 0 0 0 0 0 0 0 127 0" result="hardAlpha"/>
<feOffset dy="4"/>
<feGaussianBlur stdDeviation="2"/>
<feComposite in2="hardAlpha" operator="out"/>
<feColorMatrix type="matrix" values="0 0 0 0 0 0 0 0 0 0 0 0 0 0 0 0 0 0 0.25 0"/>
<feBlend mode="normal" in2="BackgroundImageFix" result="effect1_dropShadow_11_28"/>
<feBlend mode="normal" in="SourceGraphic" in2="effect1_dropShadow_11_28" result="shape"/>
</filter>
</defs>
</svg>
