<svg width="1928" height="1081" viewBox="0 0 1928 1081" fill="none" xmlns="http://www.w3.org/2000/svg">
<g filter="url(#filter0_d_11_28)">
<rect x="4" width="1920" height="952" fill="#74C2EC"/>
<rect x="4.5" y="0.5" width="1919" height="951" stroke="black"/>
</g>
<path d="M1195.28 698.331C1208.92 698.286 1225.18 702.48 1244.89 713.298C1327.04 758.381 1377.57 781.846 1407.68 794.062C1422.74 800.172 1432.75 803.491 1439.11 805.296C1442.29 806.199 1444.57 806.729 1446.12 807.039C1446.65 807.144 1447.1 807.222 1447.47 807.283C1447.81 807.425 1448.24 807.604 1448.75 807.814C1450.17 808.394 1452.23 809.222 1454.87 810.23C1460.14 812.244 1467.7 814.983 1476.92 817.903C1495.32 823.732 1520.49 830.34 1547.36 833.315C1600.46 839.192 1664.01 831.09 1690.88 769.209C1702.2 743.15 1721.26 730.348 1743.96 725.46C1767.11 720.476 1794.23 723.728 1820.64 730.723C1846.94 737.685 1871.83 748.166 1890.23 756.957C1899.4 761.344 1906.92 765.289 1912.13 768.13C1913.84 769.068 1915.31 769.888 1916.5 770.56V1072.72H11.5V771.339C13.3257 770.639 15.6604 769.757 18.458 768.727C25.9874 765.953 36.8662 762.104 50.2119 757.824C76.9252 749.258 113.419 739.003 152.661 732.174C191.967 725.334 233.653 722.002 270.886 727.037C308.127 732.074 340.101 745.356 361.211 770.989C408.798 828.773 464.06 834.83 507.107 826.149C528.438 821.848 546.715 813.967 559.623 807.2C566.092 803.81 571.252 800.678 574.818 798.377C576.602 797.226 577.991 796.281 578.947 795.612C579.425 795.278 579.796 795.013 580.055 794.826C580.184 794.733 580.286 794.658 580.358 794.605C580.395 794.578 580.424 794.556 580.446 794.54C580.457 794.532 580.466 794.525 580.474 794.52C580.477 794.517 580.481 794.513 580.483 794.512C580.485 794.51 580.488 794.509 579.928 793.758L576 788.5L580.491 794.507L580.668 794.375L580.836 794.232C580.837 794.231 580.838 794.231 580.839 794.23C580.843 794.226 580.852 794.219 580.863 794.209C580.887 794.189 580.925 794.158 580.978 794.114C581.082 794.027 581.244 793.893 581.461 793.714C581.896 793.356 582.554 792.819 583.425 792.12C585.167 790.722 587.762 788.678 591.128 786.131C597.861 781.036 607.67 773.933 619.907 765.959C644.417 749.988 678.505 730.627 717.027 716.839C755.584 703.038 798.161 694.971 839.848 701.092C881.317 707.181 922.389 727.369 958.204 770.982C976.953 793.812 993.328 809.085 1008.07 818.113C1022.95 827.221 1036.57 830.201 1049.3 827.654C1061.83 825.146 1072.23 817.521 1081.25 808.032C1090.26 798.557 1098.49 786.58 1106.51 774.438C1122.96 749.519 1138.62 724.002 1159.88 709.605C1170.22 702.602 1181.74 698.376 1195.28 698.331Z" fill="#33E917" stroke="#009608" stroke-width="15"/>
<rect x="4" y="912.223" width="1920" height="168" fill="#663609"/>
<path d="M452.178 19.5C482.099 19.5 507.131 34.1797 524.503 54.8574L528.192 59.249L533.396 56.8389C543.847 51.9993 554.382 48.7207 566.005 48.7207C597.868 48.7207 623.934 67.885 634.072 93.5996L635.535 97.3086L639.428 98.1709C671.845 105.353 695.5 130.766 695.5 160.885C695.5 196.473 663.37 226.668 622.918 226.668H616.172L614.367 231.582C605.382 256.043 580.939 274.44 550.896 274.44C535.459 274.44 521.906 268.614 509.921 260.065L504.678 256.325L500.188 260.943C485.589 275.96 466.769 286.5 444.119 286.5C410.399 286.5 383.113 266.557 372.54 239.337L370.888 235.084L366.352 234.596C327.356 230.396 297.5 201.046 297.5 165.987C297.5 134.38 321.722 107.753 355.249 99.5234L360.125 98.3271L360.877 93.3623C367.083 52.3484 404.758 19.5001 452.178 19.5Z" fill="white" stroke="black" stroke-width="15"/>
<path d="M1667.68 203.5C1697.6 203.5 1722.63 218.18 1740 238.857L1743.69 243.249L1748.9 240.839C1759.35 235.999 1769.88 232.721 1781.5 232.721C1813.37 232.721 1839.43 251.885 1849.57 277.6L1851.04 281.309L1854.93 282.171C1887.34 289.353 1911 314.766 1911 344.885C1911 380.473 1878.87 410.668 1838.42 410.668H1831.67L1829.87 415.582C1820.88 440.043 1796.44 458.44 1766.4 458.44C1750.96 458.44 1737.41 452.614 1725.42 444.065L1720.18 440.325L1715.69 444.943C1701.09 459.96 1682.27 470.5 1659.62 470.5C1625.9 470.5 1598.61 450.557 1588.04 423.337L1586.39 419.084L1581.85 418.596C1542.86 414.396 1513 385.046 1513 349.987C1513 318.38 1537.22 291.753 1570.75 283.523L1575.62 282.327L1576.38 277.362C1582.58 236.348 1620.26 203.5 1667.68 203.5Z" fill="white" stroke="black" stroke-width="15"/>
<path d="M1333.18 7.5C1363.1 7.5 1388.13 22.1797 1405.5 42.8574L1409.19 47.249L1414.4 44.8389C1424.85 39.9993 1435.38 36.7207 1447 36.7207C1478.87 36.7207 1504.93 55.885 1515.07 81.5996L1516.54 85.3086L1520.43 86.1709C1552.84 93.3527 1576.5 118.766 1576.5 148.885C1576.5 184.473 1544.37 214.668 1503.92 214.668H1497.17L1495.37 219.582C1486.38 244.043 1461.94 262.44 1431.9 262.44C1416.46 262.44 1402.91 256.614 1390.92 248.065L1385.68 244.325L1381.19 248.943C1366.59 263.96 1347.77 274.5 1325.12 274.5C1291.4 274.5 1264.11 254.557 1253.54 227.337L1251.89 223.084L1247.35 222.596C1208.36 218.396 1178.5 189.046 1178.5 153.987C1178.5 122.38 1202.72 95.7531 1236.25 87.5234L1241.12 86.3271L1241.88 81.3623C1248.08 40.3484 1285.76 7.50015 1333.18 7.5Z" fill="white" stroke="black" stroke-width="15"/>
<path d="M878.178 160.5C908.099 160.5 933.131 175.18 950.503 195.857L954.192 200.249L959.396 197.839C969.847 192.999 980.382 189.721 992.005 189.721C1023.87 189.721 1049.93 208.885 1060.07 234.6L1061.54 238.309L1065.43 239.171C1097.84 246.353 1121.5 271.766 1121.5 301.885C1121.5 337.473 1089.37 367.668 1048.92 367.668H1042.17L1040.37 372.582C1031.38 397.043 1006.94 415.44 976.896 415.44C961.459 415.44 947.906 409.614 935.921 401.065L930.678 397.325L926.188 401.943C911.589 416.96 892.769 427.5 870.119 427.5C836.399 427.5 809.113 407.557 798.54 380.337L796.888 376.084L792.352 375.596C753.356 371.396 723.5 342.046 723.5 306.987C723.5 275.38 747.722 248.753 781.249 240.523L786.125 239.327L786.877 234.362C793.083 193.348 830.758 160.5 878.178 160.5Z" fill="white" stroke="black" stroke-width="15"/>
<defs>
<filter id="filter0_d_11_28" x="0" y="0" width="1928" height="960" filterUnits="userSpaceOnUse" color-interpolation-filters="sRGB">
<feFlood flood-opacity="0" result="BackgroundImageFix"/>
<feColorMatrix in="SourceAlpha" type="matrix" values="0 0 0 0 0 0 0 0 0 0 0 0 0 0 0 0 0 0 127 0" result="hardAlpha"/>
<feOffset dy="4"/>
<feGaussianBlur stdDeviation="2"/>
<feComposite in2="hardAlpha" operator="out"/>
<feColorMatrix type="matrix" values="0 0 0 0 0 0 0 0 0 0 0 0 0 0 0 0 0 0 0.25 0"/>
<feBlend mode="normal" in2="BackgroundImageFix" result="effect1_dropShadow_11_28"/>
<feBlend mode="normal" in="SourceGraphic" in2="effect1_dropShadow_11_28" result="shape"/>
</filter>
</defs>
</svg>
