<svg width="1920" height="1080" viewBox="0 0 1920 1080" fill="none" xmlns="http://www.w3.org/2000/svg">
<rect width="1920" height="1080" fill="#444242"/>
<path d="M1920 1080H0V0H1920V1080Z" fill="#663609"/>
<path d="M1685.58 826.232C1690.5 822.283 1697.27 821.589 1702.89 824.46L1747.84 847.449C1752.37 849.769 1755.53 854.11 1756.34 859.138L1760.61 885.499C1761.83 893.012 1757.58 900.341 1750.46 903.026L1710.17 918.221C1708.37 918.901 1706.46 919.25 1704.53 919.25H1648.41C1638.58 919.25 1631.07 910.465 1632.6 900.754L1637.42 870.256C1638.04 866.327 1640.1 862.77 1643.2 860.279L1685.58 826.232Z" fill="#818181" stroke="black" stroke-width="8"/>
<path d="M1348.66 715.586C1356.22 712.923 1364.58 716.262 1368.23 723.397L1378.82 744.132C1381.67 749.707 1381 756.431 1377.12 761.34L1361.22 781.424C1356.42 787.489 1347.97 789.252 1341.15 785.612L1313.64 770.939C1305.81 766.763 1302.87 757.012 1307.09 749.207L1316.85 731.186C1318.74 727.694 1321.86 725.029 1325.6 723.71L1348.66 715.586Z" fill="#686868" stroke="black" stroke-width="8"/>
<path d="M1726.07 200.219C1731.56 197.458 1738.15 198.085 1743.02 201.831L1795.16 241.941C1799.8 245.507 1802.12 251.319 1801.21 257.097L1793.05 309.283C1792.29 314.131 1789.35 318.364 1785.07 320.765L1757.1 336.454C1754.71 337.795 1752.01 338.5 1749.27 338.5H1675.48C1670.64 338.5 1666.07 336.314 1663.03 332.553L1626.14 286.876C1620.76 280.215 1621.58 270.498 1627.99 264.83L1666.63 230.711C1667.66 229.801 1668.8 229.028 1670.03 228.41L1726.07 200.219Z" fill="#989898" stroke="black" stroke-width="8"/>
<path d="M782.097 831.658C787.232 828.6 793.644 828.661 798.722 831.813L849.209 863.158C850.27 863.817 851.251 864.598 852.131 865.485L880.66 894.255C884.41 898.037 886.034 903.437 884.989 908.659L877.994 943.635C876.809 949.561 872.385 954.313 866.56 955.92L844.327 962.054C839.585 963.362 834.504 962.416 830.551 959.489L788.07 928.037C786.722 927.039 785.272 926.184 783.745 925.488L732.612 902.177C725.66 899.008 721.919 891.365 723.68 883.931L726.94 870.164C727.939 865.95 730.603 862.319 734.324 860.104L782.097 831.658Z" fill="#633930" stroke="black" stroke-width="8"/>
<path d="M1248.92 915.327C1253.11 907.259 1263.17 904.296 1271.06 908.806L1297.91 924.147C1300.05 925.371 1301.88 927.074 1303.25 929.121L1319.06 952.669C1321.64 956.511 1322.43 961.283 1321.23 965.752L1314.13 992.098C1311.59 1001.53 1301.27 1006.5 1292.31 1002.61L1266.33 991.339C1261.82 989.38 1256.81 988.856 1251.99 989.838L1212.19 997.943C1202.28 999.963 1193 992.385 1193 982.266V967.551C1193 961.206 1196.75 955.461 1202.56 952.906L1229.62 940.999C1234.63 938.795 1238.74 934.945 1241.26 930.087L1248.92 915.327Z" fill="#208753" stroke="black" stroke-width="8"/>
<path d="M1059.2 648.894C1066.5 643.781 1076.58 645.625 1081.6 652.994L1093.58 670.577L1114.48 709.368C1118.35 716.552 1116.19 725.498 1109.47 730.13L1100.08 736.605C1095.66 739.653 1090 740.281 1085.02 738.275L1058.29 727.512C1057.04 727.007 1055.74 726.61 1054.42 726.323L1053.85 726.207L1025.21 720.703C1021.5 719.99 1018.16 717.984 1015.78 715.042L1006.34 703.35C1000.02 695.525 1002.41 683.882 1011.29 679.166L1030.38 669.033L1030.59 668.918L1030.79 668.777L1059.2 648.894Z" fill="#D4AF37" stroke="black" stroke-width="8"/>
<path d="M613.361 92.9287C620.789 89.3793 629.698 92.0449 633.955 99.0908L648.339 122.9C652.29 129.44 659.118 133.707 666.728 134.393L696.675 137.091C703.955 137.747 709.865 143.253 711.033 150.469L715.593 178.628C716.334 183.207 715.052 187.882 712.078 191.442L692.792 214.531C687.957 220.32 679.735 221.945 673.061 218.433L625.236 193.262C621.79 191.448 617.953 190.5 614.059 190.5H599.31C591.188 190.5 584.354 184.415 583.416 176.348L577.124 122.232C576.334 115.44 579.948 108.896 586.118 105.947L613.361 92.9287Z" fill="#71706E" stroke="black" stroke-width="8"/>
<path d="M1585.09 59.6289C1587.64 58.6306 1590.41 58.3052 1593.12 58.6846L1636.55 64.751C1639.22 65.1239 1641.76 66.1648 1643.92 67.7773L1657.76 78.1191C1664.46 83.123 1666.18 92.4429 1661.7 99.5059L1640.84 132.408C1639.77 134.1 1638.39 135.576 1636.77 136.758L1614.54 153.019C1613.26 153.948 1611.86 154.685 1610.38 155.205L1588.17 162.979C1581.14 165.437 1573.36 162.731 1569.37 156.451L1563.49 147.189C1561.82 144.549 1559.64 142.261 1557.09 140.455L1532.16 122.824C1526.13 118.558 1523.8 110.716 1526.53 103.851L1534.01 85.0527C1535.65 80.9325 1538.92 77.6759 1543.05 76.0615L1585.09 59.6289Z" fill="#2B2B2C" stroke="black" stroke-width="8"/>
<path d="M702.298 330H740.129C742.433 330 744.71 330.498 746.804 331.459L763.608 339.172C768.468 341.403 771.892 345.914 772.734 351.194L774.009 359.19C775.195 366.631 771.03 373.891 764.008 376.622L748.998 382.459C744.355 384.265 740.389 387.471 737.65 391.632L715.979 424.554C715.542 425.218 715.056 425.849 714.525 426.44L698.953 443.8C692.876 450.574 682.379 450.923 675.866 444.565L656.296 425.461C652.538 421.792 650.82 416.511 651.699 411.333L657.956 374.486C658.472 371.449 659.854 368.625 661.936 366.354L690.504 335.188C693.534 331.883 697.813 330 702.298 330Z" fill="#E34234" stroke="black" stroke-width="8"/>
<path d="M674.209 565.888C682.465 561.428 692.769 564.997 696.497 573.607L706.337 596.333C708.284 600.83 711.562 604.624 715.729 607.203L742.922 624.037C747.633 626.954 750.5 632.101 750.5 637.642V688.191C750.5 693.587 747.78 698.62 743.267 701.576L696.621 732.125C689.687 736.666 680.433 735.16 675.297 728.654L629.02 670.036C627.762 668.443 626.818 666.625 626.24 664.679L611.405 614.745C609.269 607.555 612.415 599.845 618.973 596.202L649.922 579.008L674.209 565.888Z" fill="#7D6B56" stroke="black" stroke-width="8"/>
<path d="M1367.95 325.112C1366.44 311.23 1382.19 302.204 1393.4 310.53L1408.53 321.768C1412.67 324.841 1417.68 326.5 1422.84 326.5H1466.48C1471.17 326.5 1475.63 328.556 1478.67 332.126L1514.93 374.711C1523.14 384.347 1517.44 399.245 1504.89 400.94L1503.01 401.195C1491.1 402.804 1482.22 412.967 1482.22 424.979V433C1482.22 441.836 1475.06 449 1466.22 449H1427.89C1422.12 449 1416.8 445.896 1413.96 440.876L1374.23 370.613C1373.16 368.723 1372.49 366.634 1372.25 364.475L1367.95 325.112Z" fill="#A86548" stroke="black" stroke-width="8"/>
<path d="M1083.44 102.404C1086.55 99.951 1090.46 98.7394 1094.41 99.0029L1138.47 101.94C1142.7 102.223 1146.65 104.175 1149.45 107.368L1154.49 113.129C1159.4 118.747 1159.78 127.019 1155.39 133.062L1126.52 172.848C1124.34 175.849 1122.89 179.315 1122.28 182.972L1115.66 222.374C1113.85 233.167 1101.98 238.997 1092.33 233.833L1085.79 230.327C1083.48 229.091 1081.5 227.306 1080.04 225.129L1055.05 187.842C1053.12 184.951 1052.17 181.507 1052.37 178.032L1054.99 131.722C1055.24 127.145 1057.45 122.899 1061.05 120.061L1083.44 102.404Z" fill="#727481" stroke="black" stroke-width="8"/>
<path d="M1085.19 325.546C1091.72 324.285 1098.35 327.199 1101.84 332.863L1115.17 354.497C1119.63 361.725 1117.66 371.172 1110.69 376.021L1080.42 397.091C1076.36 399.922 1073.27 403.943 1071.58 408.602L1055.8 452.077C1053.59 458.159 1047.94 462.312 1041.47 462.603L982.401 465.254C979.481 465.385 976.58 464.713 974.015 463.312L928.115 438.244C921.491 434.626 918.297 426.871 920.45 419.637L931.078 383.935C933.098 377.151 939.335 372.5 946.413 372.5H985.97C991.43 372.5 996.727 370.638 1000.99 367.222L1039.64 336.218C1041.67 334.59 1044.07 333.482 1046.62 332.989L1085.19 325.546Z" fill="#71706E" stroke="black" stroke-width="8"/>
<path d="M1742.28 518.54C1748.04 511.182 1758.85 510.31 1765.72 516.649L1797.86 546.316C1799.92 548.216 1801.44 550.621 1802.28 553.293L1815.28 594.827C1816.97 600.217 1815.69 606.097 1811.91 610.299L1770.33 656.588C1767.35 659.913 1765.35 664.007 1764.56 668.407L1761.8 683.88C1760.18 692.953 1751.25 698.785 1742.29 696.619L1672.1 679.65L1622.91 663.583C1612.7 660.246 1608.61 647.987 1614.78 639.188L1649.93 589.062C1651.68 586.572 1654.1 584.631 1656.91 583.467L1702.18 564.705C1706 563.124 1709.34 560.585 1711.89 557.334L1742.28 518.54Z" fill="#212122" stroke="black" stroke-width="8"/>
<rect x="31" width="472" height="1080" fill="#3D2005"/>
</svg>
