<svg width="1728" height="972" viewBox="0 0 1728 972" fill="none" xmlns="http://www.w3.org/2000/svg">
<rect x="10" y="10" width="1708" height="952" rx="63" fill="#8C371A" stroke="black" stroke-width="20"/>
<path d="M694.449 757.606C702.015 754.935 710.389 758.279 714.032 765.428L732.617 801.891C735.454 807.457 734.792 814.167 730.92 819.071L703.826 853.388C699.025 859.468 690.558 861.236 683.726 857.584L636.598 832.391C628.782 828.213 625.851 818.477 630.062 810.679L647.367 778.628C649.254 775.133 652.373 772.465 656.118 771.143L694.449 757.606Z" fill="#686868" stroke="black" stroke-width="8"/>
<path d="M130.58 389.232C135.496 385.283 142.273 384.589 147.887 387.46L192.836 410.449C197.371 412.769 200.531 417.11 201.345 422.138L205.612 448.499C206.829 456.012 202.585 463.341 195.464 466.026L155.174 481.221C153.369 481.901 151.457 482.25 149.528 482.25H93.4072C83.5752 482.25 76.0687 473.465 77.6025 463.754L82.4199 433.256C83.0405 429.327 85.1024 425.77 88.2031 423.279L130.58 389.232Z" fill="#818181" stroke="black" stroke-width="8"/>
</svg>
