<svg width="726" height="400" viewBox="0 0 726 400" fill="none" xmlns="http://www.w3.org/2000/svg">
<path d="M698 4C711.255 4 722 14.7452 722 28V372C722 385.255 711.255 396 698 396H28C14.7452 396 4 385.255 4 372V28C4 14.7452 14.7452 4 28 4H698Z" fill="#373737" stroke="black" stroke-width="8"/>
<path d="M8 28C8 16.9543 16.9543 8 28 8H698C709.046 8 718 16.9543 718 28V58H8V28Z" fill="#2D2D2D"/>
<rect x="670" y="10" width="45" height="45" rx="20" fill="#FF0000"/>
<path d="M682 22L703 43" stroke="black" stroke-width="4" stroke-linecap="round"/>
<path d="M703 22L682 43" stroke="black" stroke-width="4" stroke-linecap="round"/>
<path d="M273.181 42H269.461C269.157 42 268.933 41.936 268.789 41.808C268.661 41.664 268.597 41.44 268.597 41.136V25.584C268.597 25.28 268.661 25.064 268.789 24.936C268.933 24.792 269.157 24.72 269.461 24.72H276.805C278.981 24.72 280.469 25.152 281.269 26.016C282.069 26.88 282.469 28.008 282.469 29.4V32.472C282.469 33.864 282.069 34.992 281.269 35.856C280.469 36.72 278.981 37.152 276.805 37.152H274.045V41.136C274.045 41.44 273.973 41.664 273.829 41.808C273.701 41.936 273.485 42 273.181 42ZM273.997 29.208V32.832H276.157C276.621 32.832 276.925 32.712 277.069 32.472C277.213 32.232 277.285 31.96 277.285 31.656V30.384C277.285 30.08 277.213 29.808 277.069 29.568C276.925 29.328 276.621 29.208 276.157 29.208H273.997ZM299.597 37.464C299.597 38.2 299.485 38.872 299.261 39.48C299.053 40.072 298.669 40.584 298.109 41.016C297.565 41.432 296.805 41.76 295.829 42C294.869 42.24 293.645 42.36 292.157 42.36C290.669 42.36 289.437 42.24 288.461 42C287.485 41.76 286.717 41.432 286.157 41.016C285.613 40.584 285.229 40.072 285.005 39.48C284.797 38.872 284.693 38.2 284.693 37.464V29.28C284.693 28.544 284.797 27.88 285.005 27.288C285.229 26.68 285.613 26.16 286.157 25.728C286.717 25.296 287.485 24.96 288.461 24.72C289.437 24.48 290.669 24.36 292.157 24.36C293.645 24.36 294.869 24.48 295.829 24.72C296.805 24.96 297.565 25.296 298.109 25.728C298.669 26.16 299.053 26.68 299.261 27.288C299.485 27.88 299.597 28.544 299.597 29.28V37.464ZM290.141 36.6C290.141 36.92 290.261 37.192 290.501 37.416C290.741 37.624 291.293 37.728 292.157 37.728C293.021 37.728 293.573 37.624 293.813 37.416C294.053 37.192 294.173 36.92 294.173 36.6V30.144C294.173 29.84 294.053 29.584 293.813 29.376C293.573 29.152 293.021 29.04 292.157 29.04C291.293 29.04 290.741 29.152 290.501 29.376C290.261 29.584 290.141 29.84 290.141 30.144V36.6ZM307.236 42H303.516C303.212 42 302.988 41.936 302.844 41.808C302.716 41.664 302.652 41.44 302.652 41.136V25.584C302.652 25.28 302.716 25.064 302.844 24.936C302.988 24.792 303.212 24.72 303.516 24.72H310.86C313.036 24.72 314.524 25.152 315.324 26.016C316.124 26.88 316.524 28.008 316.524 29.4V32.472C316.524 33.864 316.124 34.992 315.324 35.856C314.524 36.72 313.036 37.152 310.86 37.152H308.1V41.136C308.1 41.44 308.028 41.664 307.884 41.808C307.756 41.936 307.54 42 307.236 42ZM308.052 29.208V32.832H310.212C310.676 32.832 310.98 32.712 311.124 32.472C311.268 32.232 311.34 31.96 311.34 31.656V30.384C311.34 30.08 311.268 29.808 311.124 29.568C310.98 29.328 310.676 29.208 310.212 29.208H308.052ZM319.179 35.832C318.875 35.832 318.651 35.768 318.507 35.64C318.379 35.496 318.315 35.272 318.315 34.968V31.752C318.315 31.448 318.379 31.232 318.507 31.104C318.651 30.96 318.875 30.888 319.179 30.888H325.611C325.915 30.888 326.131 30.96 326.259 31.104C326.403 31.232 326.475 31.448 326.475 31.752V34.968C326.475 35.272 326.403 35.496 326.259 35.64C326.131 35.768 325.915 35.832 325.611 35.832H319.179ZM343.802 37.464C343.802 38.2 343.69 38.872 343.466 39.48C343.258 40.072 342.874 40.584 342.314 41.016C341.77 41.432 341.018 41.76 340.058 42C339.098 42.24 337.874 42.36 336.386 42.36C334.898 42.36 333.674 42.24 332.714 42C331.754 41.76 330.994 41.432 330.434 41.016C329.89 40.584 329.506 40.072 329.282 39.48C329.074 38.872 328.97 38.2 328.97 37.464V25.584C328.97 25.28 329.034 25.064 329.162 24.936C329.306 24.792 329.53 24.72 329.834 24.72H333.602C333.906 24.72 334.122 24.792 334.25 24.936C334.394 25.064 334.466 25.28 334.466 25.584V36.528C334.466 36.848 334.586 37.12 334.826 37.344C335.066 37.552 335.602 37.656 336.434 37.656C337.282 37.656 337.826 37.552 338.066 37.344C338.306 37.12 338.426 36.848 338.426 36.528V25.584C338.426 25.28 338.49 25.064 338.618 24.936C338.762 24.792 338.986 24.72 339.29 24.72H342.938C343.242 24.72 343.458 24.792 343.586 24.936C343.73 25.064 343.802 25.28 343.802 25.584V37.464ZM351.58 42H347.86C347.556 42 347.332 41.936 347.188 41.808C347.06 41.664 346.996 41.44 346.996 41.136V25.584C346.996 25.28 347.06 25.064 347.188 24.936C347.332 24.792 347.556 24.72 347.86 24.72H355.204C357.38 24.72 358.868 25.152 359.668 26.016C360.468 26.88 360.868 28.008 360.868 29.4V32.472C360.868 33.864 360.468 34.992 359.668 35.856C358.868 36.72 357.38 37.152 355.204 37.152H352.444V41.136C352.444 41.44 352.372 41.664 352.228 41.808C352.1 41.936 351.884 42 351.58 42ZM352.396 29.208V32.832H354.556C355.02 32.832 355.324 32.712 355.468 32.472C355.612 32.232 355.684 31.96 355.684 31.656V30.384C355.684 30.08 355.612 29.808 355.468 29.568C355.324 29.328 355.02 29.208 354.556 29.208H352.396ZM368.731 42H363.883C363.579 42 363.355 41.936 363.211 41.808C363.083 41.664 363.019 41.44 363.019 41.136V36.264C363.019 35.96 363.083 35.744 363.211 35.616C363.355 35.472 363.579 35.4 363.883 35.4H368.731C369.035 35.4 369.251 35.472 369.379 35.616C369.523 35.744 369.595 35.96 369.595 36.264V41.136C369.595 41.44 369.523 41.664 369.379 41.808C369.251 41.936 369.035 42 368.731 42ZM368.731 33.48H363.883C363.579 33.48 363.355 33.416 363.211 33.288C363.083 33.144 363.019 32.92 363.019 32.616V27.744C363.019 27.44 363.083 27.224 363.211 27.096C363.355 26.952 363.579 26.88 363.883 26.88H368.731C369.035 26.88 369.251 26.952 369.379 27.096C369.523 27.224 369.595 27.44 369.595 27.744V32.616C369.595 32.92 369.523 33.144 369.379 33.288C369.251 33.416 369.035 33.48 368.731 33.48ZM391.157 42H383.597C381.597 42 380.109 41.6 379.133 40.8C378.173 40 377.693 38.768 377.693 37.104V29.616C377.693 27.952 378.173 26.72 379.133 25.92C380.109 25.12 381.597 24.72 383.597 24.72H389.597C389.901 24.72 390.117 24.792 390.245 24.936C390.389 25.064 390.461 25.28 390.461 25.584V28.488C390.461 28.792 390.389 29.016 390.245 29.16C390.117 29.288 389.901 29.352 389.597 29.352H384.605C384.109 29.352 383.741 29.456 383.501 29.664C383.261 29.856 383.141 30.152 383.141 30.552V36.288C383.141 36.688 383.229 36.984 383.405 37.176C383.597 37.368 383.877 37.464 384.245 37.464H386.573V33.72C386.573 33.416 386.637 33.2 386.765 33.072C386.909 32.928 387.133 32.856 387.437 32.856H391.157C391.461 32.856 391.677 32.928 391.805 33.072C391.949 33.2 392.021 33.416 392.021 33.72V41.136C392.021 41.44 391.949 41.664 391.805 41.808C391.677 41.936 391.461 42 391.157 42ZM409.589 37.464C409.589 38.2 409.477 38.872 409.253 39.48C409.045 40.072 408.661 40.584 408.101 41.016C407.557 41.432 406.797 41.76 405.821 42C404.861 42.24 403.637 42.36 402.149 42.36C400.661 42.36 399.429 42.24 398.453 42C397.477 41.76 396.709 41.432 396.149 41.016C395.605 40.584 395.221 40.072 394.997 39.48C394.789 38.872 394.685 38.2 394.685 37.464V29.28C394.685 28.544 394.789 27.88 394.997 27.288C395.221 26.68 395.605 26.16 396.149 25.728C396.709 25.296 397.477 24.96 398.453 24.72C399.429 24.48 400.661 24.36 402.149 24.36C403.637 24.36 404.861 24.48 405.821 24.72C406.797 24.96 407.557 25.296 408.101 25.728C408.661 26.16 409.045 26.68 409.253 27.288C409.477 27.88 409.589 28.544 409.589 29.28V37.464ZM400.133 36.6C400.133 36.92 400.253 37.192 400.493 37.416C400.733 37.624 401.285 37.728 402.149 37.728C403.013 37.728 403.565 37.624 403.805 37.416C404.045 37.192 404.165 36.92 404.165 36.6V30.144C404.165 29.84 404.045 29.584 403.805 29.376C403.565 29.152 403.013 29.04 402.149 29.04C401.285 29.04 400.733 29.152 400.493 29.376C400.253 29.584 400.133 29.84 400.133 30.144V36.6ZM420.687 42H416.799C416.495 42 416.271 41.936 416.127 41.808C415.999 41.664 415.935 41.44 415.935 41.136V29.352H412.407C412.103 29.352 411.879 29.288 411.735 29.16C411.607 29.016 411.543 28.792 411.543 28.488V25.584C411.543 25.28 411.607 25.064 411.735 24.936C411.879 24.792 412.103 24.72 412.407 24.72H425.079C425.383 24.72 425.599 24.792 425.727 24.936C425.871 25.064 425.943 25.28 425.943 25.584V28.488C425.943 28.792 425.871 29.016 425.727 29.16C425.599 29.288 425.383 29.352 425.079 29.352H421.551V41.136C421.551 41.44 421.479 41.664 421.335 41.808C421.207 41.936 420.991 42 420.687 42ZM432.861 42H429.141C428.837 42 428.613 41.936 428.469 41.808C428.341 41.664 428.277 41.44 428.277 41.136V25.584C428.277 25.28 428.341 25.064 428.469 24.936C428.613 24.792 428.837 24.72 429.141 24.72H432.861C433.165 24.72 433.381 24.792 433.509 24.936C433.653 25.064 433.725 25.28 433.725 25.584V31.104H434.685L437.157 25.512C437.269 25.224 437.421 25.024 437.613 24.912C437.805 24.784 438.053 24.72 438.357 24.72H442.053C442.325 24.72 442.509 24.792 442.605 24.936C442.701 25.064 442.693 25.256 442.581 25.512L440.133 31.104C441.029 31.152 441.741 31.472 442.269 32.064C442.813 32.64 443.085 33.408 443.085 34.368V41.136C443.085 41.44 443.013 41.664 442.869 41.808C442.741 41.936 442.525 42 442.221 42H438.525C438.221 42 437.997 41.936 437.853 41.808C437.725 41.664 437.661 41.44 437.661 41.136V36.456C437.661 36.2 437.597 36 437.469 35.856C437.341 35.712 437.149 35.64 436.893 35.64H433.725V41.136C433.725 41.44 433.653 41.664 433.509 41.808C433.381 41.936 433.165 42 432.861 42ZM446.663 42C446.359 42 446.135 41.936 445.991 41.808C445.863 41.664 445.799 41.44 445.799 41.136V38.28C445.799 37.976 445.863 37.76 445.991 37.632C446.135 37.488 446.359 37.416 446.663 37.416H449.039V29.352H446.663C446.359 29.352 446.135 29.288 445.991 29.16C445.863 29.016 445.799 28.792 445.799 28.488V25.584C445.799 25.28 445.863 25.064 445.991 24.936C446.135 24.792 446.359 24.72 446.663 24.72H456.887C457.191 24.72 457.407 24.792 457.535 24.936C457.679 25.064 457.751 25.28 457.751 25.584V28.488C457.751 28.792 457.679 29.016 457.535 29.16C457.407 29.288 457.191 29.352 456.887 29.352H454.559V37.416H456.887C457.191 37.416 457.407 37.488 457.535 37.632C457.679 37.76 457.751 37.976 457.751 38.28V41.136C457.751 41.44 457.679 41.664 457.535 41.808C457.407 41.936 457.191 42 456.887 42H446.663Z" fill="white"/>
</svg>
