<svg width="726" height="400" viewBox="0 0 726 400" fill="none" xmlns="http://www.w3.org/2000/svg">
<path d="M698 4C711.255 4 722 14.7452 722 28V372C722 385.255 711.255 396 698 396H28C14.7452 396 4 385.255 4 372V28C4 14.7452 14.7452 4 28 4H698Z" fill="#373737" stroke="black" stroke-width="8"/>
<path d="M8 28C8 16.9543 16.9543 8 28 8H698C709.046 8 718 16.9543 718 28V58H8V28Z" fill="#2D2D2D"/>
<rect x="670" y="10" width="45" height="45" rx="20" fill="#FF0000"/>
<path d="M682 22L703 43" stroke="black" stroke-width="4" stroke-linecap="round"/>
<path d="M703 22L682 43" stroke="black" stroke-width="4" stroke-linecap="round"/>
<path d="M258.228 42H254.508C254.204 42 253.98 41.936 253.836 41.808C253.708 41.664 253.644 41.44 253.644 41.136V25.584C253.644 25.28 253.708 25.064 253.836 24.936C253.98 24.792 254.204 24.72 254.508 24.72H261.852C264.028 24.72 265.516 25.152 266.316 26.016C267.116 26.88 267.516 28.008 267.516 29.4V32.472C267.516 33.864 267.116 34.992 266.316 35.856C265.516 36.72 264.028 37.152 261.852 37.152H259.092V41.136C259.092 41.44 259.02 41.664 258.876 41.808C258.748 41.936 258.532 42 258.228 42ZM259.044 29.208V32.832H261.204C261.668 32.832 261.972 32.712 262.116 32.472C262.26 32.232 262.332 31.96 262.332 31.656V30.384C262.332 30.08 262.26 29.808 262.116 29.568C261.972 29.328 261.668 29.208 261.204 29.208H259.044ZM284.644 37.464C284.644 38.2 284.532 38.872 284.308 39.48C284.1 40.072 283.716 40.584 283.156 41.016C282.612 41.432 281.852 41.76 280.876 42C279.916 42.24 278.692 42.36 277.204 42.36C275.716 42.36 274.484 42.24 273.508 42C272.532 41.76 271.764 41.432 271.204 41.016C270.66 40.584 270.276 40.072 270.052 39.48C269.844 38.872 269.74 38.2 269.74 37.464V29.28C269.74 28.544 269.844 27.88 270.052 27.288C270.276 26.68 270.66 26.16 271.204 25.728C271.764 25.296 272.532 24.96 273.508 24.72C274.484 24.48 275.716 24.36 277.204 24.36C278.692 24.36 279.916 24.48 280.876 24.72C281.852 24.96 282.612 25.296 283.156 25.728C283.716 26.16 284.1 26.68 284.308 27.288C284.532 27.88 284.644 28.544 284.644 29.28V37.464ZM275.188 36.6C275.188 36.92 275.308 37.192 275.548 37.416C275.788 37.624 276.34 37.728 277.204 37.728C278.068 37.728 278.62 37.624 278.86 37.416C279.1 37.192 279.22 36.92 279.22 36.6V30.144C279.22 29.84 279.1 29.584 278.86 29.376C278.62 29.152 278.068 29.04 277.204 29.04C276.34 29.04 275.788 29.152 275.548 29.376C275.308 29.584 275.188 29.84 275.188 30.144V36.6ZM292.283 42H288.563C288.259 42 288.035 41.936 287.891 41.808C287.763 41.664 287.699 41.44 287.699 41.136V25.584C287.699 25.28 287.763 25.064 287.891 24.936C288.035 24.792 288.259 24.72 288.563 24.72H295.907C298.083 24.72 299.571 25.152 300.371 26.016C301.171 26.88 301.571 28.008 301.571 29.4V32.472C301.571 33.864 301.171 34.992 300.371 35.856C299.571 36.72 298.083 37.152 295.907 37.152H293.147V41.136C293.147 41.44 293.075 41.664 292.931 41.808C292.803 41.936 292.587 42 292.283 42ZM293.099 29.208V32.832H295.259C295.723 32.832 296.027 32.712 296.171 32.472C296.315 32.232 296.387 31.96 296.387 31.656V30.384C296.387 30.08 296.315 29.808 296.171 29.568C296.027 29.328 295.723 29.208 295.259 29.208H293.099ZM304.226 35.832C303.922 35.832 303.698 35.768 303.554 35.64C303.426 35.496 303.362 35.272 303.362 34.968V31.752C303.362 31.448 303.426 31.232 303.554 31.104C303.698 30.96 303.922 30.888 304.226 30.888H310.658C310.962 30.888 311.178 30.96 311.306 31.104C311.45 31.232 311.522 31.448 311.522 31.752V34.968C311.522 35.272 311.45 35.496 311.306 35.64C311.178 35.768 310.962 35.832 310.658 35.832H304.226ZM328.848 37.464C328.848 38.2 328.736 38.872 328.512 39.48C328.304 40.072 327.92 40.584 327.36 41.016C326.816 41.432 326.064 41.76 325.104 42C324.144 42.24 322.92 42.36 321.432 42.36C319.944 42.36 318.72 42.24 317.76 42C316.8 41.76 316.04 41.432 315.48 41.016C314.936 40.584 314.552 40.072 314.328 39.48C314.12 38.872 314.016 38.2 314.016 37.464V25.584C314.016 25.28 314.08 25.064 314.208 24.936C314.352 24.792 314.576 24.72 314.88 24.72H318.648C318.952 24.72 319.168 24.792 319.296 24.936C319.44 25.064 319.512 25.28 319.512 25.584V36.528C319.512 36.848 319.632 37.12 319.872 37.344C320.112 37.552 320.648 37.656 321.48 37.656C322.328 37.656 322.872 37.552 323.112 37.344C323.352 37.12 323.472 36.848 323.472 36.528V25.584C323.472 25.28 323.536 25.064 323.664 24.936C323.808 24.792 324.032 24.72 324.336 24.72H327.984C328.288 24.72 328.504 24.792 328.632 24.936C328.776 25.064 328.848 25.28 328.848 25.584V37.464ZM336.627 42H332.907C332.603 42 332.379 41.936 332.235 41.808C332.107 41.664 332.043 41.44 332.043 41.136V25.584C332.043 25.28 332.107 25.064 332.235 24.936C332.379 24.792 332.603 24.72 332.907 24.72H340.251C342.427 24.72 343.915 25.152 344.715 26.016C345.515 26.88 345.915 28.008 345.915 29.4V32.472C345.915 33.864 345.515 34.992 344.715 35.856C343.915 36.72 342.427 37.152 340.251 37.152H337.491V41.136C337.491 41.44 337.419 41.664 337.275 41.808C337.147 41.936 336.931 42 336.627 42ZM337.443 29.208V32.832H339.603C340.067 32.832 340.371 32.712 340.515 32.472C340.659 32.232 340.731 31.96 340.731 31.656V30.384C340.731 30.08 340.659 29.808 340.515 29.568C340.371 29.328 340.067 29.208 339.603 29.208H337.443ZM353.778 42H348.93C348.626 42 348.402 41.936 348.258 41.808C348.13 41.664 348.066 41.44 348.066 41.136V36.264C348.066 35.96 348.13 35.744 348.258 35.616C348.402 35.472 348.626 35.4 348.93 35.4H353.778C354.082 35.4 354.298 35.472 354.426 35.616C354.57 35.744 354.642 35.96 354.642 36.264V41.136C354.642 41.44 354.57 41.664 354.426 41.808C354.298 41.936 354.082 42 353.778 42ZM353.778 33.48H348.93C348.626 33.48 348.402 33.416 348.258 33.288C348.13 33.144 348.066 32.92 348.066 32.616V27.744C348.066 27.44 348.13 27.224 348.258 27.096C348.402 26.952 348.626 26.88 348.93 26.88H353.778C354.082 26.88 354.298 26.952 354.426 27.096C354.57 27.224 354.642 27.44 354.642 27.744V32.616C354.642 32.92 354.57 33.144 354.426 33.288C354.298 33.416 354.082 33.48 353.778 33.48ZM370.929 42H367.041C366.737 42 366.513 41.936 366.369 41.808C366.241 41.664 366.177 41.44 366.177 41.136V29.352H362.649C362.345 29.352 362.121 29.288 361.977 29.16C361.849 29.016 361.785 28.792 361.785 28.488V25.584C361.785 25.28 361.849 25.064 361.977 24.936C362.121 24.792 362.345 24.72 362.649 24.72H375.321C375.625 24.72 375.841 24.792 375.969 24.936C376.113 25.064 376.185 25.28 376.185 25.584V28.488C376.185 28.792 376.113 29.016 375.969 29.16C375.841 29.288 375.625 29.352 375.321 29.352H371.793V41.136C371.793 41.44 371.721 41.664 371.577 41.808C371.449 41.936 371.233 42 370.929 42ZM393.231 37.464C393.231 38.2 393.119 38.872 392.895 39.48C392.687 40.072 392.303 40.584 391.743 41.016C391.199 41.432 390.447 41.76 389.487 42C388.527 42.24 387.303 42.36 385.815 42.36C384.327 42.36 383.103 42.24 382.143 42C381.183 41.76 380.423 41.432 379.863 41.016C379.319 40.584 378.935 40.072 378.711 39.48C378.503 38.872 378.399 38.2 378.399 37.464V25.584C378.399 25.28 378.463 25.064 378.591 24.936C378.735 24.792 378.959 24.72 379.263 24.72H383.031C383.335 24.72 383.551 24.792 383.679 24.936C383.823 25.064 383.895 25.28 383.895 25.584V36.528C383.895 36.848 384.015 37.12 384.255 37.344C384.495 37.552 385.031 37.656 385.863 37.656C386.711 37.656 387.255 37.552 387.495 37.344C387.735 37.12 387.855 36.848 387.855 36.528V25.584C387.855 25.28 387.919 25.064 388.047 24.936C388.191 24.792 388.415 24.72 388.719 24.72H392.367C392.671 24.72 392.887 24.792 393.015 24.936C393.159 25.064 393.231 25.28 393.231 25.584V37.464ZM401.85 29.04V32.112H403.65C404.066 32.112 404.346 32.008 404.49 31.8C404.634 31.576 404.706 31.304 404.706 30.984V30.168C404.706 29.848 404.634 29.584 404.49 29.376C404.346 29.152 404.066 29.04 403.65 29.04H401.85ZM400.986 42H397.29C396.986 42 396.762 41.936 396.618 41.808C396.49 41.664 396.426 41.44 396.426 41.136V25.584C396.426 25.28 396.49 25.064 396.618 24.936C396.762 24.792 396.986 24.72 397.29 24.72H405.282C407.074 24.72 408.306 25.096 408.978 25.848C409.666 26.584 410.01 27.544 410.01 28.728V29.832C410.01 30.504 409.906 31.08 409.698 31.56C409.506 32.024 409.162 32.36 408.666 32.568C409.53 32.664 410.226 33.016 410.754 33.624C411.298 34.232 411.57 35.04 411.57 36.048V41.136C411.57 41.44 411.498 41.664 411.354 41.808C411.226 41.936 411.01 42 410.706 42H406.986C406.682 42 406.458 41.936 406.314 41.808C406.186 41.664 406.122 41.44 406.122 41.136V37.464C406.122 37.112 406.05 36.856 405.906 36.696C405.778 36.52 405.546 36.432 405.21 36.432H401.85V41.136C401.85 41.44 401.778 41.664 401.634 41.808C401.506 41.936 401.29 42 400.986 42ZM422.295 42H418.407C418.103 42 417.879 41.936 417.735 41.808C417.607 41.664 417.543 41.44 417.543 41.136V38.064L413.871 33.144C413.503 32.648 413.255 32.216 413.127 31.848C413.015 31.48 412.959 30.928 412.959 30.192V25.584C412.959 25.28 413.023 25.064 413.151 24.936C413.295 24.792 413.519 24.72 413.823 24.72H417.519C417.823 24.72 418.039 24.792 418.167 24.936C418.311 25.064 418.383 25.28 418.383 25.584V29.52C418.383 29.68 418.391 29.848 418.407 30.024C418.423 30.2 418.487 30.368 418.599 30.528L419.703 32.256C419.783 32.4 419.863 32.504 419.943 32.568C420.039 32.632 420.151 32.664 420.279 32.664H420.519C420.647 32.664 420.751 32.632 420.831 32.568C420.927 32.504 421.015 32.4 421.095 32.256L422.199 30.528C422.311 30.368 422.375 30.2 422.391 30.024C422.407 29.848 422.415 29.68 422.415 29.52V25.584C422.415 25.28 422.479 25.064 422.607 24.936C422.751 24.792 422.975 24.72 423.279 24.72H426.855C427.159 24.72 427.375 24.792 427.503 24.936C427.647 25.064 427.719 25.28 427.719 25.584V30.192C427.719 30.928 427.655 31.48 427.527 31.848C427.399 32.216 427.159 32.648 426.807 33.144L423.159 38.088V41.136C423.159 41.44 423.087 41.664 422.943 41.808C422.815 41.936 422.599 42 422.295 42ZM438.473 42H430.889C430.585 42 430.361 41.936 430.217 41.808C430.089 41.664 430.025 41.44 430.025 41.136V38.328C430.025 38.024 430.089 37.808 430.217 37.68C430.361 37.536 430.585 37.464 430.889 37.464H437.345C437.553 37.464 437.705 37.4 437.801 37.272C437.913 37.128 437.969 36.96 437.969 36.768C437.969 36.496 437.913 36.296 437.801 36.168C437.705 36.04 437.553 35.968 437.345 35.952L433.745 35.448C432.625 35.288 431.721 34.92 431.033 34.344C430.361 33.768 430.025 32.808 430.025 31.464V28.944C430.025 27.584 430.465 26.544 431.345 25.824C432.225 25.088 433.441 24.72 434.993 24.72H441.713C442.017 24.72 442.233 24.792 442.361 24.936C442.505 25.064 442.577 25.28 442.577 25.584V28.44C442.577 28.744 442.505 28.968 442.361 29.112C442.233 29.24 442.017 29.304 441.713 29.304H436.121C435.913 29.304 435.753 29.376 435.641 29.52C435.529 29.648 435.473 29.816 435.473 30.024C435.473 30.232 435.529 30.408 435.641 30.552C435.753 30.696 435.913 30.776 436.121 30.792L439.697 31.272C440.817 31.432 441.721 31.8 442.409 32.376C443.097 32.952 443.441 33.912 443.441 35.256V37.776C443.441 39.136 442.993 40.184 442.097 40.92C441.217 41.64 440.009 42 438.473 42ZM440.993 22.896L432.617 23.928C432.345 23.96 432.137 23.904 431.993 23.76C431.865 23.616 431.801 23.408 431.801 23.136V20.832C431.801 20.528 431.865 20.32 431.993 20.208C432.137 20.08 432.361 20 432.665 19.968L441.041 18.936C441.313 18.904 441.513 18.96 441.641 19.104C441.785 19.248 441.857 19.456 441.857 19.728V22.032C441.857 22.336 441.785 22.552 441.641 22.68C441.513 22.792 441.297 22.864 440.993 22.896ZM457.562 42H451.706C449.706 42 448.218 41.6 447.242 40.8C446.282 40 445.802 38.768 445.802 37.104V29.64C445.802 27.976 446.282 26.744 447.242 25.944C448.218 25.128 449.706 24.72 451.706 24.72H457.562C457.866 24.72 458.082 24.792 458.21 24.936C458.354 25.064 458.426 25.28 458.426 25.584V28.488C458.426 28.792 458.354 29.016 458.21 29.16C458.082 29.288 457.866 29.352 457.562 29.352H452.738C452.242 29.352 451.874 29.456 451.634 29.664C451.394 29.856 451.274 30.152 451.274 30.552V36.264C451.274 36.664 451.394 36.96 451.634 37.152C451.874 37.328 452.242 37.416 452.738 37.416H457.562C457.866 37.416 458.082 37.488 458.21 37.632C458.354 37.76 458.426 37.976 458.426 38.28V41.136C458.426 41.44 458.354 41.664 458.21 41.808C458.082 41.936 457.866 42 457.562 42ZM461.616 42C461.312 42 461.088 41.936 460.944 41.808C460.816 41.664 460.752 41.44 460.752 41.136V38.28C460.752 37.976 460.816 37.76 460.944 37.632C461.088 37.488 461.312 37.416 461.616 37.416H463.992V29.352H461.616C461.312 29.352 461.088 29.288 460.944 29.16C460.816 29.016 460.752 28.792 460.752 28.488V25.584C460.752 25.28 460.816 25.064 460.944 24.936C461.088 24.792 461.312 24.72 461.616 24.72H471.84C472.144 24.72 472.36 24.792 472.488 24.936C472.632 25.064 472.704 25.28 472.704 25.584V28.488C472.704 28.792 472.632 29.016 472.488 29.16C472.36 29.288 472.144 29.352 471.84 29.352H469.512V37.416H471.84C472.144 37.416 472.36 37.488 472.488 37.632C472.632 37.76 472.704 37.976 472.704 38.28V41.136C472.704 41.44 472.632 41.664 472.488 41.808C472.36 41.936 472.144 42 471.84 42H461.616Z" fill="white"/>
<path d="M569.048 78C559.182 78 550.897 81.9573 545.558 87.9738C540.22 93.9903 537.71 101.738 537.71 109.393C537.71 117.047 540.22 124.795 545.558 130.812C550.897 136.828 559.182 140.786 569.048 140.786C578.913 140.786 587.199 136.828 592.538 130.812C597.876 124.795 600.386 117.047 600.386 109.393C600.386 101.738 597.876 93.9903 592.538 87.9738C587.199 81.9573 578.913 78 569.048 78ZM569.048 91.9524C575.432 91.9524 579.333 94.0993 582.119 97.239C584.905 100.379 586.458 104.839 586.458 109.393C586.458 113.947 584.905 118.407 582.119 121.547C579.333 124.686 575.432 126.833 569.048 126.833C562.664 126.833 558.763 124.686 555.977 121.547C553.191 118.407 551.638 113.947 551.638 109.393C551.638 104.839 553.191 100.379 555.977 97.239C558.763 94.0993 562.664 91.9524 569.048 91.9524ZM549.979 147.762C541.443 147.762 533.193 150.9 526.815 156.591L499.259 181.171C497.743 182.524 496.433 184.089 495.369 185.831L471.172 225.14C466.826 232.196 467.28 240.916 471.512 247.5L461.61 269.682L428.953 255.021H428.939C418.547 250.365 406.148 255.041 401.41 265.417L380.872 310.244C380.872 310.249 380.872 310.254 380.872 310.258C376.08 320.752 380.818 333.339 391.331 338.054L397.792 340.956C399.475 341.694 401.382 341.736 403.096 341.072C404.81 340.408 406.193 339.092 406.943 337.412C407.693 335.731 407.75 333.821 407.101 332.099C406.452 330.376 405.149 328.981 403.477 328.216L397.017 325.328C393.407 323.709 391.892 319.647 393.535 316.049L414.073 271.221C415.698 267.663 419.693 266.162 423.254 267.761L455.924 282.408L437.25 324.21C436.875 325.047 436.669 325.949 436.643 326.866C436.617 327.782 436.771 328.695 437.097 329.551C437.422 330.408 437.913 331.192 438.542 331.858C439.17 332.525 439.923 333.061 440.758 333.436C441.594 333.811 442.494 334.017 443.409 334.043C444.324 334.07 445.235 333.915 446.09 333.588C446.945 333.262 447.727 332.77 448.393 332.14C449.058 331.511 449.593 330.756 449.967 329.92L482.923 256.138C484.9 256.737 486.924 257.065 488.935 257.065C495.947 257.065 502.82 253.476 506.74 247.118C507.71 245.543 508.016 243.645 507.59 241.844C507.164 240.042 506.041 238.484 504.468 237.512C502.895 236.54 501.001 236.234 499.203 236.661C497.405 237.087 495.849 238.212 494.879 239.788C493.534 241.969 491.269 243.112 488.935 243.112C487.677 243.112 486.465 242.782 485.304 242.063C485.299 242.063 485.295 242.063 485.29 242.063C481.955 240.005 480.971 235.818 483.032 232.471L507.229 193.134C507.234 193.13 507.238 193.125 507.243 193.121C507.585 192.561 508.004 192.056 508.521 191.595L536.078 167.015C539.91 163.595 544.851 161.714 549.979 161.714H560.248C568.911 161.714 577.29 165.899 582.513 172.833L610.301 209.853C611.153 210.986 612.33 211.832 613.674 212.278L651.323 224.841C655.049 226.084 656.974 229.939 655.73 233.67C655.725 233.674 655.721 233.679 655.716 233.684C654.478 237.415 650.671 239.343 646.93 238.085C646.925 238.084 646.921 238.084 646.916 238.085L605.133 224.132C605.128 224.132 605.124 224.132 605.119 224.132C603.787 223.689 602.612 222.84 601.759 221.707L593.34 210.493C592.531 209.419 591.43 208.601 590.168 208.14C588.906 207.678 587.538 207.592 586.229 207.892C584.919 208.191 583.724 208.864 582.787 209.828C581.851 210.792 581.212 212.008 580.949 213.327L574.366 246.382C574.024 248.107 574.344 249.898 575.264 251.396L598.264 288.921L598.563 286.55C598.379 288.04 598.679 289.55 599.42 290.856C599.848 291.611 600.068 292.157 600.168 292.559L614.096 348.368C615.049 352.188 612.842 355.889 609.036 356.843C609.032 356.843 609.027 356.843 609.023 356.843C608.46 356.985 607.896 357.048 607.322 357.048C604.248 357.051 601.402 355 600.59 351.761L600.236 350.344C600.11 349.839 599.927 349.35 599.692 348.886L586.308 298.281C586.073 297.396 585.667 296.565 585.111 295.837C584.556 295.109 583.863 294.497 583.071 294.037C582.28 293.577 581.406 293.278 580.499 293.156C579.593 293.035 578.671 293.093 577.787 293.329C576.903 293.564 576.073 293.971 575.346 294.528C574.62 295.084 574.009 295.778 573.55 296.571C573.091 297.364 572.792 298.239 572.671 299.147C572.549 300.056 572.608 300.979 572.843 301.865L586.689 354.186C587.006 355.383 587.635 356.474 588.512 357.347C591.667 365.328 598.842 371.01 607.336 371C608.997 370.999 610.712 370.8 612.409 370.373C623.52 367.588 630.382 356.126 627.602 344.989L613.674 289.18C613.325 287.781 612.754 286.741 612.219 285.637C612.05 284.955 611.78 284.303 611.416 283.702L588.552 246.423L591.654 230.836C594.114 233.724 597.103 236.169 600.726 237.376V237.362L642.509 251.315C653.403 254.971 665.33 248.957 668.937 238.085C672.568 227.193 666.587 215.237 655.716 211.61L620.135 199.729L593.639 164.439C593.635 164.435 593.63 164.43 593.626 164.426C585.743 153.961 573.34 147.762 560.248 147.762H549.979ZM531.1 192.276C529.494 192.318 527.952 192.914 526.735 193.965C525.518 195.015 524.7 196.455 524.421 198.04C522.736 206.901 520.859 217.134 519.403 225.399C518.674 229.532 518.055 233.171 517.607 235.918C517.383 237.292 517.207 238.44 517.077 239.352C516.946 240.263 516.818 240.327 516.818 241.94V288.267L485.168 338.98C485.168 338.985 485.168 338.989 485.168 338.994C479.104 348.723 482.113 361.743 491.832 367.825C495.245 369.955 499.099 371 502.877 371C509.84 371 516.663 367.462 520.599 361.162C520.604 361.162 520.609 361.162 520.613 361.162L555.419 305.367L555.433 305.353C556.055 304.356 556.155 303.899 556.399 303.268C556.695 302.812 556.937 302.323 557.119 301.81L557.391 301.075C557.401 301.043 557.41 301.011 557.419 300.979C557.352 301.176 557.58 300.744 557.867 299.644L557.691 300.23L565.144 279.397C565.475 278.529 565.629 277.604 565.599 276.676C565.568 275.748 565.352 274.836 564.965 273.992C564.578 273.148 564.026 272.391 563.342 271.763C562.659 271.136 561.857 270.652 560.985 270.339C560.112 270.026 559.185 269.891 558.26 269.941C557.334 269.992 556.428 270.227 555.594 270.632C554.761 271.038 554.016 271.607 553.404 272.304C552.793 273.002 552.326 273.815 552.032 274.696L544.579 295.515C544.507 295.708 544.443 295.903 544.388 296.101C544.418 295.99 544.348 296.236 544.361 296.183C544.251 296.387 544.151 296.596 544.062 296.81C543.66 297.826 543.49 298.172 543.627 297.954C543.622 297.954 543.618 297.954 543.613 297.954L508.793 353.764C507.437 355.934 505.204 357.048 502.877 357.048C501.613 357.048 500.373 356.715 499.204 355.985C495.868 353.889 494.905 349.72 496.987 346.379L529.685 293.962C530.377 292.855 530.744 291.576 530.746 290.27V241.94C530.746 243.125 530.747 242.083 530.855 241.327C530.963 240.571 531.143 239.488 531.358 238.166C531.789 235.523 532.405 231.92 533.126 227.825C534.57 219.633 536.433 209.444 538.105 200.656C538.316 199.626 538.292 198.562 538.036 197.543C537.779 196.525 537.296 195.577 536.622 194.771C535.949 193.965 535.102 193.323 534.146 192.891C533.19 192.458 532.148 192.248 531.1 192.276ZM426.287 336.119C422.593 336.119 419.05 337.589 416.438 340.206C413.826 342.822 412.359 346.371 412.359 350.071C412.359 353.772 413.826 357.321 416.438 359.937C419.05 362.554 422.593 364.024 426.287 364.024C429.981 364.024 433.523 362.554 436.135 359.937C438.747 357.321 440.215 353.772 440.215 350.071C440.215 346.371 438.747 342.822 436.135 340.206C433.523 337.589 429.981 336.119 426.287 336.119Z" fill="white"/>
</svg>
