<svg width="726" height="400" viewBox="0 0 726 400" fill="none" xmlns="http://www.w3.org/2000/svg">
<path d="M698 4C711.255 4 722 14.7452 722 28V372C722 385.255 711.255 396 698 396H28C14.7452 396 4 385.255 4 372V28C4 14.7452 14.7452 4 28 4H698Z" fill="#373737" stroke="black" stroke-width="8"/>
<path d="M71.0464 135.6H59.8064C59.2997 135.6 58.9264 135.493 58.6864 135.28C58.4731 135.04 58.3664 134.667 58.3664 134.16V122.88C58.3664 122.373 58.4731 122.013 58.6864 121.8C58.9264 121.56 59.2997 121.44 59.8064 121.44H71.0464C71.5531 121.44 71.9131 121.56 72.1264 121.8C72.3664 122.013 72.4864 122.373 72.4864 122.88V134.16C72.4864 134.667 72.3664 135.04 72.1264 135.28C71.9131 135.493 71.5531 135.6 71.0464 135.6ZM120.394 135.44C120.394 136.667 120.22 137.787 119.874 138.8C119.527 139.787 118.914 140.64 118.034 141.36C117.18 142.053 115.994 142.6 114.474 143C112.954 143.4 111.02 143.6 108.674 143.6C106.354 143.6 104.434 143.4 102.914 143C101.42 142.6 100.234 142.053 99.3536 141.36C98.5003 140.64 97.9003 139.787 97.5536 138.8C97.2336 137.787 97.0736 136.667 97.0736 135.44V128.96C97.0736 128.453 97.1803 128.093 97.3936 127.88C97.6336 127.64 98.0069 127.52 98.5136 127.52H104.314C104.82 127.52 105.18 127.64 105.394 127.88C105.634 128.093 105.754 128.453 105.754 128.96V133.84C105.754 134.373 105.914 134.827 106.234 135.2C106.58 135.547 107.367 135.72 108.594 135.72C109.74 135.72 110.46 135.547 110.754 135.2C111.074 134.827 111.234 134.373 111.234 133.84V115.64C111.234 115.133 111.34 114.773 111.554 114.56C111.794 114.32 112.167 114.2 112.674 114.2H118.954C119.46 114.2 119.82 114.32 120.034 114.56C120.274 114.773 120.394 115.133 120.394 115.64V135.44ZM136.173 122.6L134.293 128.68H140.573L138.693 122.6C138.586 122.36 138.466 122.187 138.333 122.08C138.226 121.973 138.093 121.92 137.933 121.92H136.933C136.773 121.92 136.626 121.973 136.493 122.08C136.386 122.187 136.279 122.36 136.173 122.6ZM133.893 141.56C133.893 142.067 133.773 142.44 133.533 142.68C133.319 142.893 132.959 143 132.453 143H126.573C126.066 143 125.693 142.893 125.453 142.68C125.239 142.44 125.133 142.067 125.133 141.56V131C125.133 130.2 125.253 129.28 125.493 128.24C125.759 127.2 126.159 125.987 126.693 124.6L130.173 115.52C130.333 115.067 130.573 114.733 130.893 114.52C131.239 114.307 131.679 114.2 132.213 114.2H142.973C143.479 114.2 143.893 114.307 144.213 114.52C144.559 114.733 144.813 115.067 144.973 115.52L148.453 124.6C148.986 125.987 149.373 127.2 149.613 128.24C149.879 129.28 150.013 130.2 150.013 131V141.56C150.013 142.067 149.893 142.44 149.653 142.68C149.439 142.893 149.079 143 148.573 143H142.533C141.999 143 141.599 142.893 141.333 142.68C141.093 142.44 140.973 142.067 140.973 141.56V135.96H133.893V141.56ZM177.151 135.44C177.151 136.667 176.978 137.787 176.631 138.8C176.285 139.787 175.671 140.64 174.791 141.36C173.938 142.053 172.751 142.6 171.231 143C169.711 143.4 167.778 143.6 165.431 143.6C163.111 143.6 161.191 143.4 159.671 143C158.178 142.6 156.991 142.053 156.111 141.36C155.258 140.64 154.658 139.787 154.311 138.8C153.991 137.787 153.831 136.667 153.831 135.44V128.96C153.831 128.453 153.938 128.093 154.151 127.88C154.391 127.64 154.765 127.52 155.271 127.52H161.071C161.578 127.52 161.938 127.64 162.151 127.88C162.391 128.093 162.511 128.453 162.511 128.96V133.84C162.511 134.373 162.671 134.827 162.991 135.2C163.338 135.547 164.125 135.72 165.351 135.72C166.498 135.72 167.218 135.547 167.511 135.2C167.831 134.827 167.991 134.373 167.991 133.84V115.64C167.991 115.133 168.098 114.773 168.311 114.56C168.551 114.32 168.925 114.2 169.431 114.2H175.711C176.218 114.2 176.578 114.32 176.791 114.56C177.031 114.773 177.151 115.133 177.151 115.64V135.44ZM202.49 143H183.93C183.424 143 183.05 142.893 182.81 142.68C182.597 142.44 182.49 142.067 182.49 141.56V115.64C182.49 115.133 182.597 114.773 182.81 114.56C183.05 114.32 183.424 114.2 183.93 114.2H202.49C202.997 114.2 203.357 114.32 203.57 114.56C203.81 114.773 203.93 115.133 203.93 115.64V120.32C203.93 120.827 203.81 121.2 203.57 121.44C203.357 121.653 202.997 121.76 202.49 121.76H191.45V124.84H199.25C199.757 124.84 200.117 124.96 200.33 125.2C200.57 125.413 200.69 125.773 200.69 126.28V130.56C200.69 131.067 200.57 131.44 200.33 131.68C200.117 131.893 199.757 132 199.25 132H191.45V135.44H202.49C202.997 135.44 203.357 135.56 203.57 135.8C203.81 136.013 203.93 136.373 203.93 136.88V141.56C203.93 142.067 203.81 142.44 203.57 142.68C203.357 142.893 202.997 143 202.49 143ZM227.627 143H217.867C214.534 143 212.054 142.333 210.427 141C208.827 139.667 208.027 137.613 208.027 134.84V122.4C208.027 119.627 208.827 117.573 210.427 116.24C212.054 114.88 214.534 114.2 217.867 114.2H227.627C228.134 114.2 228.494 114.32 228.707 114.56C228.947 114.773 229.067 115.133 229.067 115.64V120.48C229.067 120.987 228.947 121.36 228.707 121.6C228.494 121.813 228.134 121.92 227.627 121.92H219.587C218.76 121.92 218.147 122.093 217.747 122.44C217.347 122.76 217.147 123.253 217.147 123.92V133.44C217.147 134.107 217.347 134.6 217.747 134.92C218.147 135.213 218.76 135.36 219.587 135.36H227.627C228.134 135.36 228.494 135.48 228.707 135.72C228.947 135.933 229.067 136.293 229.067 136.8V141.56C229.067 142.067 228.947 142.44 228.707 142.68C228.494 142.893 228.134 143 227.627 143ZM253.944 143H234.104C233.598 143 233.224 142.893 232.984 142.68C232.771 142.44 232.664 142.067 232.664 141.56V136.2C232.664 135.693 232.744 135.253 232.904 134.88C233.064 134.48 233.318 134.093 233.664 133.72L243.384 121.92H234.824C234.318 121.92 233.944 121.813 233.704 121.6C233.491 121.36 233.384 120.987 233.384 120.48V115.64C233.384 115.133 233.491 114.773 233.704 114.56C233.944 114.32 234.318 114.2 234.824 114.2H253.224C253.731 114.2 254.091 114.32 254.304 114.56C254.544 114.773 254.664 115.133 254.664 115.64V121.6C254.664 122.133 254.584 122.6 254.424 123C254.264 123.373 254.011 123.747 253.664 124.12L244.384 135.36H253.944C254.451 135.36 254.811 135.48 255.024 135.72C255.264 135.933 255.384 136.293 255.384 136.8V141.56C255.384 142.067 255.264 142.44 255.024 142.68C254.811 142.893 254.451 143 253.944 143ZM267.63 143H261.43C260.924 143 260.55 142.893 260.31 142.68C260.097 142.44 259.99 142.067 259.99 141.56V115.64C259.99 115.133 260.097 114.773 260.31 114.56C260.55 114.32 260.924 114.2 261.43 114.2H267.63C268.137 114.2 268.497 114.32 268.71 114.56C268.95 114.773 269.07 115.133 269.07 115.64V124.84H270.67L274.79 115.52C274.977 115.04 275.23 114.707 275.55 114.52C275.87 114.307 276.284 114.2 276.79 114.2H282.95C283.404 114.2 283.71 114.32 283.87 114.56C284.03 114.773 284.017 115.093 283.83 115.52L279.75 124.84C281.244 124.92 282.43 125.453 283.31 126.44C284.217 127.4 284.67 128.68 284.67 130.28V141.56C284.67 142.067 284.55 142.44 284.31 142.68C284.097 142.893 283.737 143 283.23 143H277.07C276.564 143 276.19 142.893 275.95 142.68C275.737 142.44 275.63 142.067 275.63 141.56V133.76C275.63 133.333 275.524 133 275.31 132.76C275.097 132.52 274.777 132.4 274.35 132.4H269.07V141.56C269.07 142.067 268.95 142.44 268.71 142.68C268.497 142.893 268.137 143 267.63 143ZM314.234 135.44C314.234 136.667 314.048 137.787 313.674 138.8C313.328 139.787 312.688 140.64 311.754 141.36C310.848 142.053 309.581 142.6 307.954 143C306.354 143.4 304.314 143.6 301.834 143.6C299.354 143.6 297.301 143.4 295.674 143C294.048 142.6 292.768 142.053 291.834 141.36C290.928 140.64 290.288 139.787 289.914 138.8C289.568 137.787 289.394 136.667 289.394 135.44V121.8C289.394 120.573 289.568 119.467 289.914 118.48C290.288 117.467 290.928 116.6 291.834 115.88C292.768 115.16 294.048 114.6 295.674 114.2C297.301 113.8 299.354 113.6 301.834 113.6C304.314 113.6 306.354 113.8 307.954 114.2C309.581 114.6 310.848 115.16 311.754 115.88C312.688 116.6 313.328 117.467 313.674 118.48C314.048 119.467 314.234 120.573 314.234 121.8V135.44ZM298.474 134C298.474 134.533 298.674 134.987 299.074 135.36C299.474 135.707 300.394 135.88 301.834 135.88C303.274 135.88 304.194 135.707 304.594 135.36C304.994 134.987 305.194 134.533 305.194 134V123.24C305.194 122.733 304.994 122.307 304.594 121.96C304.194 121.587 303.274 121.4 301.834 121.4C300.394 121.4 299.474 121.587 299.074 121.96C298.674 122.307 298.474 122.733 298.474 123.24V134ZM57.9214 183.6H46.6814C46.1747 183.6 45.8014 183.493 45.5614 183.28C45.3481 183.04 45.2414 182.667 45.2414 182.16V170.88C45.2414 170.373 45.3481 170.013 45.5614 169.8C45.8014 169.56 46.1747 169.44 46.6814 169.44H57.9214C58.4281 169.44 58.7881 169.56 59.0014 169.8C59.2414 170.013 59.3614 170.373 59.3614 170.88V182.16C59.3614 182.667 59.2414 183.04 59.0014 183.28C58.7881 183.493 58.4281 183.6 57.9214 183.6ZM107.269 183.44C107.269 184.667 107.095 185.787 106.749 186.8C106.402 187.787 105.789 188.64 104.909 189.36C104.055 190.053 102.869 190.6 101.349 191C99.8286 191.4 97.8953 191.6 95.5486 191.6C93.2286 191.6 91.3086 191.4 89.7886 191C88.2953 190.6 87.1086 190.053 86.2286 189.36C85.3753 188.64 84.7753 187.787 84.4286 186.8C84.1086 185.787 83.9486 184.667 83.9486 183.44V176.96C83.9486 176.453 84.0553 176.093 84.2686 175.88C84.5086 175.64 84.8819 175.52 85.3886 175.52H91.1886C91.6953 175.52 92.0553 175.64 92.2686 175.88C92.5086 176.093 92.6286 176.453 92.6286 176.96V181.84C92.6286 182.373 92.7886 182.827 93.1086 183.2C93.4553 183.547 94.2419 183.72 95.4686 183.72C96.6153 183.72 97.3353 183.547 97.6286 183.2C97.9486 182.827 98.1086 182.373 98.1086 181.84V163.64C98.1086 163.133 98.2153 162.773 98.4286 162.56C98.6686 162.32 99.0419 162.2 99.5486 162.2H105.829C106.335 162.2 106.695 162.32 106.909 162.56C107.149 162.773 107.269 163.133 107.269 163.64V183.44ZM123.048 170.6L121.168 176.68H127.448L125.568 170.6C125.461 170.36 125.341 170.187 125.208 170.08C125.101 169.973 124.968 169.92 124.808 169.92H123.808C123.648 169.92 123.501 169.973 123.368 170.08C123.261 170.187 123.154 170.36 123.048 170.6ZM120.768 189.56C120.768 190.067 120.648 190.44 120.408 190.68C120.194 190.893 119.834 191 119.328 191H113.448C112.941 191 112.568 190.893 112.328 190.68C112.114 190.44 112.008 190.067 112.008 189.56V179C112.008 178.2 112.128 177.28 112.368 176.24C112.634 175.2 113.034 173.987 113.568 172.6L117.048 163.52C117.208 163.067 117.448 162.733 117.768 162.52C118.114 162.307 118.554 162.2 119.088 162.2H129.848C130.354 162.2 130.768 162.307 131.088 162.52C131.434 162.733 131.688 163.067 131.848 163.52L135.328 172.6C135.861 173.987 136.248 175.2 136.488 176.24C136.754 177.28 136.888 178.2 136.888 179V189.56C136.888 190.067 136.768 190.44 136.528 190.68C136.314 190.893 135.954 191 135.448 191H129.408C128.874 191 128.474 190.893 128.208 190.68C127.968 190.44 127.848 190.067 127.848 189.56V183.96H120.768V189.56ZM164.026 183.44C164.026 184.667 163.853 185.787 163.506 186.8C163.16 187.787 162.546 188.64 161.666 189.36C160.813 190.053 159.626 190.6 158.106 191C156.586 191.4 154.653 191.6 152.306 191.6C149.986 191.6 148.066 191.4 146.546 191C145.053 190.6 143.866 190.053 142.986 189.36C142.133 188.64 141.533 187.787 141.186 186.8C140.866 185.787 140.706 184.667 140.706 183.44V176.96C140.706 176.453 140.813 176.093 141.026 175.88C141.266 175.64 141.64 175.52 142.146 175.52H147.946C148.453 175.52 148.813 175.64 149.026 175.88C149.266 176.093 149.386 176.453 149.386 176.96V181.84C149.386 182.373 149.546 182.827 149.866 183.2C150.213 183.547 151 183.72 152.226 183.72C153.373 183.72 154.093 183.547 154.386 183.2C154.706 182.827 154.866 182.373 154.866 181.84V163.64C154.866 163.133 154.973 162.773 155.186 162.56C155.426 162.32 155.8 162.2 156.306 162.2H162.586C163.093 162.2 163.453 162.32 163.666 162.56C163.906 162.773 164.026 163.133 164.026 163.64V183.44ZM189.365 191H170.805C170.299 191 169.925 190.893 169.685 190.68C169.472 190.44 169.365 190.067 169.365 189.56V163.64C169.365 163.133 169.472 162.773 169.685 162.56C169.925 162.32 170.299 162.2 170.805 162.2H189.365C189.872 162.2 190.232 162.32 190.445 162.56C190.685 162.773 190.805 163.133 190.805 163.64V168.32C190.805 168.827 190.685 169.2 190.445 169.44C190.232 169.653 189.872 169.76 189.365 169.76H178.325V172.84H186.125C186.632 172.84 186.992 172.96 187.205 173.2C187.445 173.413 187.565 173.773 187.565 174.28V178.56C187.565 179.067 187.445 179.44 187.205 179.68C186.992 179.893 186.632 180 186.125 180H178.325V183.44H189.365C189.872 183.44 190.232 183.56 190.445 183.8C190.685 184.013 190.805 184.373 190.805 184.88V189.56C190.805 190.067 190.685 190.44 190.445 190.68C190.232 190.893 189.872 191 189.365 191ZM214.502 191H204.742C201.409 191 198.929 190.333 197.302 189C195.702 187.667 194.902 185.613 194.902 182.84V170.4C194.902 167.627 195.702 165.573 197.302 164.24C198.929 162.88 201.409 162.2 204.742 162.2H214.502C215.009 162.2 215.369 162.32 215.582 162.56C215.822 162.773 215.942 163.133 215.942 163.64V168.48C215.942 168.987 215.822 169.36 215.582 169.6C215.369 169.813 215.009 169.92 214.502 169.92H206.462C205.635 169.92 205.022 170.093 204.622 170.44C204.222 170.76 204.022 171.253 204.022 171.92V181.44C204.022 182.107 204.222 182.6 204.622 182.92C205.022 183.213 205.635 183.36 206.462 183.36H214.502C215.009 183.36 215.369 183.48 215.582 183.72C215.822 183.933 215.942 184.293 215.942 184.8V189.56C215.942 190.067 215.822 190.44 215.582 190.68C215.369 190.893 215.009 191 214.502 191ZM240.819 191H220.979C220.473 191 220.099 190.893 219.859 190.68C219.646 190.44 219.539 190.067 219.539 189.56V184.2C219.539 183.693 219.619 183.253 219.779 182.88C219.939 182.48 220.193 182.093 220.539 181.72L230.259 169.92H221.699C221.193 169.92 220.819 169.813 220.579 169.6C220.366 169.36 220.259 168.987 220.259 168.48V163.64C220.259 163.133 220.366 162.773 220.579 162.56C220.819 162.32 221.193 162.2 221.699 162.2H240.099C240.606 162.2 240.966 162.32 241.179 162.56C241.419 162.773 241.539 163.133 241.539 163.64V169.6C241.539 170.133 241.459 170.6 241.299 171C241.139 171.373 240.886 171.747 240.539 172.12L231.259 183.36H240.819C241.326 183.36 241.686 183.48 241.899 183.72C242.139 183.933 242.259 184.293 242.259 184.8V189.56C242.259 190.067 242.139 190.44 241.899 190.68C241.686 190.893 241.326 191 240.819 191ZM254.505 191H248.305C247.799 191 247.425 190.893 247.185 190.68C246.972 190.44 246.865 190.067 246.865 189.56V163.64C246.865 163.133 246.972 162.773 247.185 162.56C247.425 162.32 247.799 162.2 248.305 162.2H254.505C255.012 162.2 255.372 162.32 255.585 162.56C255.825 162.773 255.945 163.133 255.945 163.64V172.84H257.545L261.665 163.52C261.852 163.04 262.105 162.707 262.425 162.52C262.745 162.307 263.159 162.2 263.665 162.2H269.825C270.279 162.2 270.585 162.32 270.745 162.56C270.905 162.773 270.892 163.093 270.705 163.52L266.625 172.84C268.119 172.92 269.305 173.453 270.185 174.44C271.092 175.4 271.545 176.68 271.545 178.28V189.56C271.545 190.067 271.425 190.44 271.185 190.68C270.972 190.893 270.612 191 270.105 191H263.945C263.439 191 263.065 190.893 262.825 190.68C262.612 190.44 262.505 190.067 262.505 189.56V181.76C262.505 181.333 262.399 181 262.185 180.76C261.972 180.52 261.652 180.4 261.225 180.4H255.945V189.56C255.945 190.067 255.825 190.44 255.585 190.68C255.372 190.893 255.012 191 254.505 191ZM301.109 183.44C301.109 184.667 300.923 185.787 300.549 186.8C300.203 187.787 299.563 188.64 298.629 189.36C297.723 190.053 296.456 190.6 294.829 191C293.229 191.4 291.189 191.6 288.709 191.6C286.229 191.6 284.176 191.4 282.549 191C280.923 190.6 279.643 190.053 278.709 189.36C277.803 188.64 277.163 187.787 276.789 186.8C276.443 185.787 276.269 184.667 276.269 183.44V169.8C276.269 168.573 276.443 167.467 276.789 166.48C277.163 165.467 277.803 164.6 278.709 163.88C279.643 163.16 280.923 162.6 282.549 162.2C284.176 161.8 286.229 161.6 288.709 161.6C291.189 161.6 293.229 161.8 294.829 162.2C296.456 162.6 297.723 163.16 298.629 163.88C299.563 164.6 300.203 165.467 300.549 166.48C300.923 167.467 301.109 168.573 301.109 169.8V183.44ZM285.349 182C285.349 182.533 285.549 182.987 285.949 183.36C286.349 183.707 287.269 183.88 288.709 183.88C290.149 183.88 291.069 183.707 291.469 183.36C291.869 182.987 292.069 182.533 292.069 182V171.24C292.069 170.733 291.869 170.307 291.469 169.96C291.069 169.587 290.149 169.4 288.709 169.4C287.269 169.4 286.349 169.587 285.949 169.96C285.549 170.307 285.349 170.733 285.349 171.24V182ZM321.681 180.08L310.841 181.56C310.335 181.613 309.961 181.547 309.721 181.36C309.508 181.173 309.361 180.827 309.281 180.32L308.441 175.04C308.361 174.533 308.428 174.147 308.641 173.88C308.881 173.613 309.255 173.453 309.761 173.4L317.721 172.28C318.121 172.227 318.401 172.107 318.561 171.92C318.721 171.733 318.801 171.44 318.801 171.04C318.801 170.667 318.708 170.387 318.521 170.2C318.335 170.013 318.068 169.92 317.721 169.92H306.681C306.175 169.92 305.801 169.813 305.561 169.6C305.348 169.36 305.241 168.987 305.241 168.48V163.64C305.241 163.133 305.348 162.773 305.561 162.56C305.801 162.32 306.175 162.2 306.681 162.2H319.601C322.188 162.2 324.215 162.813 325.681 164.04C327.148 165.24 327.881 166.973 327.881 169.24V173.44C327.881 175.68 327.321 177.28 326.201 178.24C325.081 179.2 323.575 179.813 321.681 180.08ZM317.201 191H309.881C309.375 191 309.001 190.893 308.761 190.68C308.548 190.44 308.441 190.067 308.441 189.56V184.32C308.441 183.813 308.548 183.453 308.761 183.24C309.001 183 309.375 182.88 309.881 182.88H317.201C317.708 182.88 318.068 183 318.281 183.24C318.521 183.453 318.641 183.813 318.641 184.32V189.56C318.641 190.067 318.521 190.44 318.281 190.68C318.068 190.893 317.708 191 317.201 191ZM63.3706 231.6H52.1306C51.624 231.6 51.2506 231.493 51.0106 231.28C50.7973 231.04 50.6906 230.667 50.6906 230.16V218.88C50.6906 218.373 50.7973 218.013 51.0106 217.8C51.2506 217.56 51.624 217.44 52.1306 217.44H63.3706C63.8773 217.44 64.2373 217.56 64.4506 217.8C64.6906 218.013 64.8106 218.373 64.8106 218.88V230.16C64.8106 230.667 64.6906 231.04 64.4506 231.28C64.2373 231.493 63.8773 231.6 63.3706 231.6ZM112.718 231.44C112.718 232.667 112.544 233.787 112.198 234.8C111.851 235.787 111.238 236.64 110.358 237.36C109.504 238.053 108.318 238.6 106.798 239C105.278 239.4 103.344 239.6 100.998 239.6C98.6778 239.6 96.7578 239.4 95.2378 239C93.7445 238.6 92.5578 238.053 91.6778 237.36C90.8245 236.64 90.2245 235.787 89.8778 234.8C89.5578 233.787 89.3978 232.667 89.3978 231.44V224.96C89.3978 224.453 89.5045 224.093 89.7178 223.88C89.9578 223.64 90.3311 223.52 90.8378 223.52H96.6378C97.1445 223.52 97.5045 223.64 97.7178 223.88C97.9578 224.093 98.0778 224.453 98.0778 224.96V229.84C98.0778 230.373 98.2378 230.827 98.5578 231.2C98.9045 231.547 99.6911 231.72 100.918 231.72C102.064 231.72 102.784 231.547 103.078 231.2C103.398 230.827 103.558 230.373 103.558 229.84V211.64C103.558 211.133 103.664 210.773 103.878 210.56C104.118 210.32 104.491 210.2 104.998 210.2H111.278C111.784 210.2 112.144 210.32 112.358 210.56C112.598 210.773 112.718 211.133 112.718 211.64V231.44ZM128.497 218.6L126.617 224.68H132.897L131.017 218.6C130.91 218.36 130.79 218.187 130.657 218.08C130.55 217.973 130.417 217.92 130.257 217.92H129.257C129.097 217.92 128.95 217.973 128.817 218.08C128.71 218.187 128.604 218.36 128.497 218.6ZM126.217 237.56C126.217 238.067 126.097 238.44 125.857 238.68C125.644 238.893 125.284 239 124.777 239H118.897C118.39 239 118.017 238.893 117.777 238.68C117.564 238.44 117.457 238.067 117.457 237.56V227C117.457 226.2 117.577 225.28 117.817 224.24C118.084 223.2 118.484 221.987 119.017 220.6L122.497 211.52C122.657 211.067 122.897 210.733 123.217 210.52C123.564 210.307 124.004 210.2 124.537 210.2H135.297C135.804 210.2 136.217 210.307 136.537 210.52C136.884 210.733 137.137 211.067 137.297 211.52L140.777 220.6C141.31 221.987 141.697 223.2 141.937 224.24C142.204 225.28 142.337 226.2 142.337 227V237.56C142.337 238.067 142.217 238.44 141.977 238.68C141.764 238.893 141.404 239 140.897 239H134.857C134.324 239 133.924 238.893 133.657 238.68C133.417 238.44 133.297 238.067 133.297 237.56V231.96H126.217V237.56ZM169.476 231.44C169.476 232.667 169.302 233.787 168.956 234.8C168.609 235.787 167.996 236.64 167.116 237.36C166.262 238.053 165.076 238.6 163.556 239C162.036 239.4 160.102 239.6 157.756 239.6C155.436 239.6 153.516 239.4 151.996 239C150.502 238.6 149.316 238.053 148.436 237.36C147.582 236.64 146.982 235.787 146.636 234.8C146.316 233.787 146.156 232.667 146.156 231.44V224.96C146.156 224.453 146.262 224.093 146.476 223.88C146.716 223.64 147.089 223.52 147.596 223.52H153.396C153.902 223.52 154.262 223.64 154.476 223.88C154.716 224.093 154.836 224.453 154.836 224.96V229.84C154.836 230.373 154.996 230.827 155.316 231.2C155.662 231.547 156.449 231.72 157.676 231.72C158.822 231.72 159.542 231.547 159.836 231.2C160.156 230.827 160.316 230.373 160.316 229.84V211.64C160.316 211.133 160.422 210.773 160.636 210.56C160.876 210.32 161.249 210.2 161.756 210.2H168.036C168.542 210.2 168.902 210.32 169.116 210.56C169.356 210.773 169.476 211.133 169.476 211.64V231.44ZM194.815 239H176.255C175.748 239 175.375 238.893 175.135 238.68C174.921 238.44 174.815 238.067 174.815 237.56V211.64C174.815 211.133 174.921 210.773 175.135 210.56C175.375 210.32 175.748 210.2 176.255 210.2H194.815C195.321 210.2 195.681 210.32 195.895 210.56C196.135 210.773 196.255 211.133 196.255 211.64V216.32C196.255 216.827 196.135 217.2 195.895 217.44C195.681 217.653 195.321 217.76 194.815 217.76H183.775V220.84H191.575C192.081 220.84 192.441 220.96 192.655 221.2C192.895 221.413 193.015 221.773 193.015 222.28V226.56C193.015 227.067 192.895 227.44 192.655 227.68C192.441 227.893 192.081 228 191.575 228H183.775V231.44H194.815C195.321 231.44 195.681 231.56 195.895 231.8C196.135 232.013 196.255 232.373 196.255 232.88V237.56C196.255 238.067 196.135 238.44 195.895 238.68C195.681 238.893 195.321 239 194.815 239ZM219.951 239H210.191C206.858 239 204.378 238.333 202.751 237C201.151 235.667 200.351 233.613 200.351 230.84V218.4C200.351 215.627 201.151 213.573 202.751 212.24C204.378 210.88 206.858 210.2 210.191 210.2H219.951C220.458 210.2 220.818 210.32 221.031 210.56C221.271 210.773 221.391 211.133 221.391 211.64V216.48C221.391 216.987 221.271 217.36 221.031 217.6C220.818 217.813 220.458 217.92 219.951 217.92H211.911C211.085 217.92 210.471 218.093 210.071 218.44C209.671 218.76 209.471 219.253 209.471 219.92V229.44C209.471 230.107 209.671 230.6 210.071 230.92C210.471 231.213 211.085 231.36 211.911 231.36H219.951C220.458 231.36 220.818 231.48 221.031 231.72C221.271 231.933 221.391 232.293 221.391 232.8V237.56C221.391 238.067 221.271 238.44 221.031 238.68C220.818 238.893 220.458 239 219.951 239ZM246.268 239H226.428C225.922 239 225.548 238.893 225.308 238.68C225.095 238.44 224.988 238.067 224.988 237.56V232.2C224.988 231.693 225.068 231.253 225.228 230.88C225.388 230.48 225.642 230.093 225.988 229.72L235.708 217.92H227.148C226.642 217.92 226.268 217.813 226.028 217.6C225.815 217.36 225.708 216.987 225.708 216.48V211.64C225.708 211.133 225.815 210.773 226.028 210.56C226.268 210.32 226.642 210.2 227.148 210.2H245.548C246.055 210.2 246.415 210.32 246.628 210.56C246.868 210.773 246.988 211.133 246.988 211.64V217.6C246.988 218.133 246.908 218.6 246.748 219C246.588 219.373 246.335 219.747 245.988 220.12L236.708 231.36H246.268C246.775 231.36 247.135 231.48 247.348 231.72C247.588 231.933 247.708 232.293 247.708 232.8V237.56C247.708 238.067 247.588 238.44 247.348 238.68C247.135 238.893 246.775 239 246.268 239ZM259.955 239H253.755C253.248 239 252.875 238.893 252.635 238.68C252.421 238.44 252.315 238.067 252.315 237.56V211.64C252.315 211.133 252.421 210.773 252.635 210.56C252.875 210.32 253.248 210.2 253.755 210.2H259.955C260.461 210.2 260.821 210.32 261.035 210.56C261.275 210.773 261.395 211.133 261.395 211.64V220.84H262.995L267.115 211.52C267.301 211.04 267.555 210.707 267.875 210.52C268.195 210.307 268.608 210.2 269.115 210.2H275.275C275.728 210.2 276.035 210.32 276.195 210.56C276.355 210.773 276.341 211.093 276.155 211.52L272.075 220.84C273.568 220.92 274.755 221.453 275.635 222.44C276.541 223.4 276.995 224.68 276.995 226.28V237.56C276.995 238.067 276.875 238.44 276.635 238.68C276.421 238.893 276.061 239 275.555 239H269.395C268.888 239 268.515 238.893 268.275 238.68C268.061 238.44 267.955 238.067 267.955 237.56V229.76C267.955 229.333 267.848 229 267.635 228.76C267.421 228.52 267.101 228.4 266.675 228.4H261.395V237.56C261.395 238.067 261.275 238.44 261.035 238.68C260.821 238.893 260.461 239 259.955 239ZM306.558 231.44C306.558 232.667 306.372 233.787 305.998 234.8C305.652 235.787 305.012 236.64 304.078 237.36C303.172 238.053 301.905 238.6 300.278 239C298.678 239.4 296.638 239.6 294.158 239.6C291.678 239.6 289.625 239.4 287.998 239C286.372 238.6 285.092 238.053 284.158 237.36C283.252 236.64 282.612 235.787 282.238 234.8C281.892 233.787 281.718 232.667 281.718 231.44V217.8C281.718 216.573 281.892 215.467 282.238 214.48C282.612 213.467 283.252 212.6 284.158 211.88C285.092 211.16 286.372 210.6 287.998 210.2C289.625 209.8 291.678 209.6 294.158 209.6C296.638 209.6 298.678 209.8 300.278 210.2C301.905 210.6 303.172 211.16 304.078 211.88C305.012 212.6 305.652 213.467 305.998 214.48C306.372 215.467 306.558 216.573 306.558 217.8V231.44ZM290.798 230C290.798 230.533 290.998 230.987 291.398 231.36C291.798 231.707 292.718 231.88 294.158 231.88C295.598 231.88 296.518 231.707 296.918 231.36C297.318 230.987 297.518 230.533 297.518 230V219.24C297.518 218.733 297.318 218.307 296.918 217.96C296.518 217.587 295.598 217.4 294.158 217.4C292.718 217.4 291.798 217.587 291.398 217.96C290.998 218.307 290.798 218.733 290.798 219.24V230ZM320.611 239H312.531C312.024 239 311.651 238.893 311.411 238.68C311.197 238.44 311.091 238.067 311.091 237.56V229.44C311.091 228.933 311.197 228.573 311.411 228.36C311.651 228.12 312.024 228 312.531 228H320.611C321.117 228 321.477 228.12 321.691 228.36C321.931 228.573 322.051 228.933 322.051 229.44V237.56C322.051 238.067 321.931 238.44 321.691 238.68C321.477 238.893 321.117 239 320.611 239ZM62.5698 279.6H51.3298C50.8232 279.6 50.4498 279.493 50.2098 279.28C49.9965 279.04 49.8898 278.667 49.8898 278.16V266.88C49.8898 266.373 49.9965 266.013 50.2098 265.8C50.4498 265.56 50.8232 265.44 51.3298 265.44H62.5698C63.0765 265.44 63.4365 265.56 63.6498 265.8C63.8898 266.013 64.0098 266.373 64.0098 266.88V278.16C64.0098 278.667 63.8898 279.04 63.6498 279.28C63.4365 279.493 63.0765 279.6 62.5698 279.6ZM111.917 279.44C111.917 280.667 111.744 281.787 111.397 282.8C111.05 283.787 110.437 284.64 109.557 285.36C108.704 286.053 107.517 286.6 105.997 287C104.477 287.4 102.544 287.6 100.197 287.6C97.877 287.6 95.957 287.4 94.437 287C92.9437 286.6 91.757 286.053 90.877 285.36C90.0237 284.64 89.4237 283.787 89.077 282.8C88.757 281.787 88.597 280.667 88.597 279.44V272.96C88.597 272.453 88.7037 272.093 88.917 271.88C89.157 271.64 89.5304 271.52 90.037 271.52H95.837C96.3437 271.52 96.7037 271.64 96.917 271.88C97.157 272.093 97.277 272.453 97.277 272.96V277.84C97.277 278.373 97.437 278.827 97.757 279.2C98.1037 279.547 98.8904 279.72 100.117 279.72C101.264 279.72 101.984 279.547 102.277 279.2C102.597 278.827 102.757 278.373 102.757 277.84V259.64C102.757 259.133 102.864 258.773 103.077 258.56C103.317 258.32 103.69 258.2 104.197 258.2H110.477C110.984 258.2 111.344 258.32 111.557 258.56C111.797 258.773 111.917 259.133 111.917 259.64V279.44ZM127.696 266.6L125.816 272.68H132.096L130.216 266.6C130.109 266.36 129.989 266.187 129.856 266.08C129.749 265.973 129.616 265.92 129.456 265.92H128.456C128.296 265.92 128.149 265.973 128.016 266.08C127.909 266.187 127.803 266.36 127.696 266.6ZM125.416 285.56C125.416 286.067 125.296 286.44 125.056 286.68C124.843 286.893 124.483 287 123.976 287H118.096C117.589 287 117.216 286.893 116.976 286.68C116.763 286.44 116.656 286.067 116.656 285.56V275C116.656 274.2 116.776 273.28 117.016 272.24C117.283 271.2 117.683 269.987 118.216 268.6L121.696 259.52C121.856 259.067 122.096 258.733 122.416 258.52C122.763 258.307 123.203 258.2 123.736 258.2H134.496C135.003 258.2 135.416 258.307 135.736 258.52C136.083 258.733 136.336 259.067 136.496 259.52L139.976 268.6C140.509 269.987 140.896 271.2 141.136 272.24C141.403 273.28 141.536 274.2 141.536 275V285.56C141.536 286.067 141.416 286.44 141.176 286.68C140.963 286.893 140.603 287 140.096 287H134.056C133.523 287 133.123 286.893 132.856 286.68C132.616 286.44 132.496 286.067 132.496 285.56V279.96H125.416V285.56ZM168.675 279.44C168.675 280.667 168.502 281.787 168.155 282.8C167.808 283.787 167.195 284.64 166.315 285.36C165.462 286.053 164.275 286.6 162.755 287C161.235 287.4 159.302 287.6 156.955 287.6C154.635 287.6 152.715 287.4 151.195 287C149.702 286.6 148.515 286.053 147.635 285.36C146.782 284.64 146.182 283.787 145.835 282.8C145.515 281.787 145.355 280.667 145.355 279.44V272.96C145.355 272.453 145.462 272.093 145.675 271.88C145.915 271.64 146.288 271.52 146.795 271.52H152.595C153.102 271.52 153.462 271.64 153.675 271.88C153.915 272.093 154.035 272.453 154.035 272.96V277.84C154.035 278.373 154.195 278.827 154.515 279.2C154.862 279.547 155.648 279.72 156.875 279.72C158.022 279.72 158.742 279.547 159.035 279.2C159.355 278.827 159.515 278.373 159.515 277.84V259.64C159.515 259.133 159.622 258.773 159.835 258.56C160.075 258.32 160.448 258.2 160.955 258.2H167.235C167.742 258.2 168.102 258.32 168.315 258.56C168.555 258.773 168.675 259.133 168.675 259.64V279.44ZM194.014 287H175.454C174.947 287 174.574 286.893 174.334 286.68C174.121 286.44 174.014 286.067 174.014 285.56V259.64C174.014 259.133 174.121 258.773 174.334 258.56C174.574 258.32 174.947 258.2 175.454 258.2H194.014C194.521 258.2 194.881 258.32 195.094 258.56C195.334 258.773 195.454 259.133 195.454 259.64V264.32C195.454 264.827 195.334 265.2 195.094 265.44C194.881 265.653 194.521 265.76 194.014 265.76H182.974V268.84H190.774C191.281 268.84 191.641 268.96 191.854 269.2C192.094 269.413 192.214 269.773 192.214 270.28V274.56C192.214 275.067 192.094 275.44 191.854 275.68C191.641 275.893 191.281 276 190.774 276H182.974V279.44H194.014C194.521 279.44 194.881 279.56 195.094 279.8C195.334 280.013 195.454 280.373 195.454 280.88V285.56C195.454 286.067 195.334 286.44 195.094 286.68C194.881 286.893 194.521 287 194.014 287ZM219.15 287H209.39C206.057 287 203.577 286.333 201.95 285C200.35 283.667 199.55 281.613 199.55 278.84V266.4C199.55 263.627 200.35 261.573 201.95 260.24C203.577 258.88 206.057 258.2 209.39 258.2H219.15C219.657 258.2 220.017 258.32 220.23 258.56C220.47 258.773 220.59 259.133 220.59 259.64V264.48C220.59 264.987 220.47 265.36 220.23 265.6C220.017 265.813 219.657 265.92 219.15 265.92H211.11C210.284 265.92 209.67 266.093 209.27 266.44C208.87 266.76 208.67 267.253 208.67 267.92V277.44C208.67 278.107 208.87 278.6 209.27 278.92C209.67 279.213 210.284 279.36 211.11 279.36H219.15C219.657 279.36 220.017 279.48 220.23 279.72C220.47 279.933 220.59 280.293 220.59 280.8V285.56C220.59 286.067 220.47 286.44 220.23 286.68C220.017 286.893 219.657 287 219.15 287ZM245.468 287H225.628C225.121 287 224.748 286.893 224.508 286.68C224.294 286.44 224.188 286.067 224.188 285.56V280.2C224.188 279.693 224.268 279.253 224.428 278.88C224.588 278.48 224.841 278.093 225.188 277.72L234.908 265.92H226.348C225.841 265.92 225.468 265.813 225.228 265.6C225.014 265.36 224.908 264.987 224.908 264.48V259.64C224.908 259.133 225.014 258.773 225.228 258.56C225.468 258.32 225.841 258.2 226.348 258.2H244.748C245.254 258.2 245.614 258.32 245.828 258.56C246.068 258.773 246.188 259.133 246.188 259.64V265.6C246.188 266.133 246.108 266.6 245.948 267C245.788 267.373 245.534 267.747 245.188 268.12L235.908 279.36H245.468C245.974 279.36 246.334 279.48 246.548 279.72C246.788 279.933 246.908 280.293 246.908 280.8V285.56C246.908 286.067 246.788 286.44 246.548 286.68C246.334 286.893 245.974 287 245.468 287ZM259.154 287H252.954C252.447 287 252.074 286.893 251.834 286.68C251.621 286.44 251.514 286.067 251.514 285.56V259.64C251.514 259.133 251.621 258.773 251.834 258.56C252.074 258.32 252.447 258.2 252.954 258.2H259.154C259.661 258.2 260.021 258.32 260.234 258.56C260.474 258.773 260.594 259.133 260.594 259.64V268.84H262.194L266.314 259.52C266.501 259.04 266.754 258.707 267.074 258.52C267.394 258.307 267.807 258.2 268.314 258.2H274.474C274.927 258.2 275.234 258.32 275.394 258.56C275.554 258.773 275.541 259.093 275.354 259.52L271.274 268.84C272.767 268.92 273.954 269.453 274.834 270.44C275.741 271.4 276.194 272.68 276.194 274.28V285.56C276.194 286.067 276.074 286.44 275.834 286.68C275.621 286.893 275.261 287 274.754 287H268.594C268.087 287 267.714 286.893 267.474 286.68C267.261 286.44 267.154 286.067 267.154 285.56V277.76C267.154 277.333 267.047 277 266.834 276.76C266.621 276.52 266.301 276.4 265.874 276.4H260.594V285.56C260.594 286.067 260.474 286.44 260.234 286.68C260.021 286.893 259.661 287 259.154 287ZM305.758 279.44C305.758 280.667 305.571 281.787 305.198 282.8C304.851 283.787 304.211 284.64 303.278 285.36C302.371 286.053 301.104 286.6 299.478 287C297.878 287.4 295.838 287.6 293.358 287.6C290.878 287.6 288.824 287.4 287.198 287C285.571 286.6 284.291 286.053 283.358 285.36C282.451 284.64 281.811 283.787 281.438 282.8C281.091 281.787 280.918 280.667 280.918 279.44V265.8C280.918 264.573 281.091 263.467 281.438 262.48C281.811 261.467 282.451 260.6 283.358 259.88C284.291 259.16 285.571 258.6 287.198 258.2C288.824 257.8 290.878 257.6 293.358 257.6C295.838 257.6 297.878 257.8 299.478 258.2C301.104 258.6 302.371 259.16 303.278 259.88C304.211 260.6 304.851 261.467 305.198 262.48C305.571 263.467 305.758 264.573 305.758 265.8V279.44ZM289.998 278C289.998 278.533 290.198 278.987 290.598 279.36C290.998 279.707 291.918 279.88 293.358 279.88C294.798 279.88 295.718 279.707 296.118 279.36C296.518 278.987 296.718 278.533 296.718 278V267.24C296.718 266.733 296.518 266.307 296.118 265.96C295.718 265.587 294.798 265.4 293.358 265.4C291.918 265.4 290.998 265.587 290.598 265.96C290.198 266.307 289.998 266.733 289.998 267.24V278ZM319.69 276.52H313.49C312.983 276.52 312.61 276.413 312.37 276.2C312.157 275.96 312.037 275.587 312.01 275.08L311.41 259.64C311.383 259.133 311.477 258.773 311.69 258.56C311.903 258.32 312.263 258.2 312.77 258.2H320.41C320.917 258.2 321.277 258.32 321.49 258.56C321.703 258.773 321.797 259.133 321.77 259.64L321.21 275.08C321.183 275.587 321.05 275.96 320.81 276.2C320.57 276.413 320.197 276.52 319.69 276.52ZM320.29 287H312.93C312.423 287 312.05 286.893 311.81 286.68C311.597 286.44 311.49 286.067 311.49 285.56V280.32C311.49 279.813 311.597 279.453 311.81 279.24C312.05 279 312.423 278.88 312.93 278.88H320.29C320.797 278.88 321.157 279 321.37 279.24C321.61 279.453 321.73 279.813 321.73 280.32V285.56C321.73 286.067 321.61 286.44 321.37 286.68C321.157 286.893 320.797 287 320.29 287ZM52.98 327.6H41.74C41.2333 327.6 40.86 327.493 40.62 327.28C40.4067 327.04 40.3 326.667 40.3 326.16V314.88C40.3 314.373 40.4067 314.013 40.62 313.8C40.86 313.56 41.2333 313.44 41.74 313.44H52.98C53.4867 313.44 53.8467 313.56 54.06 313.8C54.3 314.013 54.42 314.373 54.42 314.88V326.16C54.42 326.667 54.3 327.04 54.06 327.28C53.8467 327.493 53.4867 327.6 52.98 327.6ZM102.327 327.44C102.327 328.667 102.154 329.787 101.807 330.8C101.461 331.787 100.847 332.64 99.9672 333.36C99.1139 334.053 97.9272 334.6 96.4072 335C94.8872 335.4 92.9539 335.6 90.6072 335.6C88.2872 335.6 86.3672 335.4 84.8472 335C83.3539 334.6 82.1672 334.053 81.2872 333.36C80.4339 332.64 79.8339 331.787 79.4872 330.8C79.1672 329.787 79.0072 328.667 79.0072 327.44V320.96C79.0072 320.453 79.1139 320.093 79.3272 319.88C79.5672 319.64 79.9405 319.52 80.4472 319.52H86.2472C86.7539 319.52 87.1139 319.64 87.3272 319.88C87.5672 320.093 87.6872 320.453 87.6872 320.96V325.84C87.6872 326.373 87.8472 326.827 88.1672 327.2C88.5139 327.547 89.3005 327.72 90.5272 327.72C91.6739 327.72 92.3939 327.547 92.6872 327.2C93.0072 326.827 93.1672 326.373 93.1672 325.84V307.64C93.1672 307.133 93.2739 306.773 93.4872 306.56C93.7272 306.32 94.1005 306.2 94.6072 306.2H100.887C101.394 306.2 101.754 306.32 101.967 306.56C102.207 306.773 102.327 307.133 102.327 307.64V327.44ZM118.106 314.6L116.226 320.68H122.506L120.626 314.6C120.52 314.36 120.4 314.187 120.266 314.08C120.16 313.973 120.026 313.92 119.866 313.92H118.866C118.706 313.92 118.56 313.973 118.426 314.08C118.32 314.187 118.213 314.36 118.106 314.6ZM115.826 333.56C115.826 334.067 115.706 334.44 115.466 334.68C115.253 334.893 114.893 335 114.386 335H108.506C108 335 107.626 334.893 107.386 334.68C107.173 334.44 107.066 334.067 107.066 333.56V323C107.066 322.2 107.186 321.28 107.426 320.24C107.693 319.2 108.093 317.987 108.626 316.6L112.106 307.52C112.266 307.067 112.506 306.733 112.826 306.52C113.173 306.307 113.613 306.2 114.146 306.2H124.906C125.413 306.2 125.826 306.307 126.146 306.52C126.493 306.733 126.746 307.067 126.906 307.52L130.386 316.6C130.92 317.987 131.306 319.2 131.546 320.24C131.813 321.28 131.946 322.2 131.946 323V333.56C131.946 334.067 131.826 334.44 131.586 334.68C131.373 334.893 131.013 335 130.506 335H124.466C123.933 335 123.533 334.893 123.266 334.68C123.026 334.44 122.906 334.067 122.906 333.56V327.96H115.826V333.56ZM159.085 327.44C159.085 328.667 158.912 329.787 158.565 330.8C158.218 331.787 157.605 332.64 156.725 333.36C155.872 334.053 154.685 334.6 153.165 335C151.645 335.4 149.712 335.6 147.365 335.6C145.045 335.6 143.125 335.4 141.605 335C140.112 334.6 138.925 334.053 138.045 333.36C137.192 332.64 136.592 331.787 136.245 330.8C135.925 329.787 135.765 328.667 135.765 327.44V320.96C135.765 320.453 135.872 320.093 136.085 319.88C136.325 319.64 136.698 319.52 137.205 319.52H143.005C143.512 319.52 143.872 319.64 144.085 319.88C144.325 320.093 144.445 320.453 144.445 320.96V325.84C144.445 326.373 144.605 326.827 144.925 327.2C145.272 327.547 146.058 327.72 147.285 327.72C148.432 327.72 149.152 327.547 149.445 327.2C149.765 326.827 149.925 326.373 149.925 325.84V307.64C149.925 307.133 150.032 306.773 150.245 306.56C150.485 306.32 150.858 306.2 151.365 306.2H157.645C158.152 306.2 158.512 306.32 158.725 306.56C158.965 306.773 159.085 307.133 159.085 307.64V327.44ZM184.424 335H165.864C165.357 335 164.984 334.893 164.744 334.68C164.531 334.44 164.424 334.067 164.424 333.56V307.64C164.424 307.133 164.531 306.773 164.744 306.56C164.984 306.32 165.357 306.2 165.864 306.2H184.424C184.931 306.2 185.291 306.32 185.504 306.56C185.744 306.773 185.864 307.133 185.864 307.64V312.32C185.864 312.827 185.744 313.2 185.504 313.44C185.291 313.653 184.931 313.76 184.424 313.76H173.384V316.84H181.184C181.691 316.84 182.051 316.96 182.264 317.2C182.504 317.413 182.624 317.773 182.624 318.28V322.56C182.624 323.067 182.504 323.44 182.264 323.68C182.051 323.893 181.691 324 181.184 324H173.384V327.44H184.424C184.931 327.44 185.291 327.56 185.504 327.8C185.744 328.013 185.864 328.373 185.864 328.88V333.56C185.864 334.067 185.744 334.44 185.504 334.68C185.291 334.893 184.931 335 184.424 335ZM209.561 335H199.801C196.467 335 193.987 334.333 192.361 333C190.761 331.667 189.961 329.613 189.961 326.84V314.4C189.961 311.627 190.761 309.573 192.361 308.24C193.987 306.88 196.467 306.2 199.801 306.2H209.561C210.067 306.2 210.427 306.32 210.641 306.56C210.881 306.773 211.001 307.133 211.001 307.64V312.48C211.001 312.987 210.881 313.36 210.641 313.6C210.427 313.813 210.067 313.92 209.561 313.92H201.521C200.694 313.92 200.081 314.093 199.681 314.44C199.281 314.76 199.081 315.253 199.081 315.92V325.44C199.081 326.107 199.281 326.6 199.681 326.92C200.081 327.213 200.694 327.36 201.521 327.36H209.561C210.067 327.36 210.427 327.48 210.641 327.72C210.881 327.933 211.001 328.293 211.001 328.8V333.56C211.001 334.067 210.881 334.44 210.641 334.68C210.427 334.893 210.067 335 209.561 335ZM235.878 335H216.038C215.531 335 215.158 334.893 214.918 334.68C214.704 334.44 214.598 334.067 214.598 333.56V328.2C214.598 327.693 214.678 327.253 214.838 326.88C214.998 326.48 215.251 326.093 215.598 325.72L225.318 313.92H216.758C216.251 313.92 215.878 313.813 215.638 313.6C215.424 313.36 215.318 312.987 215.318 312.48V307.64C215.318 307.133 215.424 306.773 215.638 306.56C215.878 306.32 216.251 306.2 216.758 306.2H235.158C235.664 306.2 236.024 306.32 236.238 306.56C236.478 306.773 236.598 307.133 236.598 307.64V313.6C236.598 314.133 236.518 314.6 236.358 315C236.198 315.373 235.944 315.747 235.598 316.12L226.318 327.36H235.878C236.384 327.36 236.744 327.48 236.958 327.72C237.198 327.933 237.318 328.293 237.318 328.8V333.56C237.318 334.067 237.198 334.44 236.958 334.68C236.744 334.893 236.384 335 235.878 335ZM249.564 335H243.364C242.857 335 242.484 334.893 242.244 334.68C242.031 334.44 241.924 334.067 241.924 333.56V307.64C241.924 307.133 242.031 306.773 242.244 306.56C242.484 306.32 242.857 306.2 243.364 306.2H249.564C250.071 306.2 250.431 306.32 250.644 306.56C250.884 306.773 251.004 307.133 251.004 307.64V316.84H252.604L256.724 307.52C256.911 307.04 257.164 306.707 257.484 306.52C257.804 306.307 258.217 306.2 258.724 306.2H264.884C265.337 306.2 265.644 306.32 265.804 306.56C265.964 306.773 265.951 307.093 265.764 307.52L261.684 316.84C263.177 316.92 264.364 317.453 265.244 318.44C266.151 319.4 266.604 320.68 266.604 322.28V333.56C266.604 334.067 266.484 334.44 266.244 334.68C266.031 334.893 265.671 335 265.164 335H259.004C258.497 335 258.124 334.893 257.884 334.68C257.671 334.44 257.564 334.067 257.564 333.56V325.76C257.564 325.333 257.457 325 257.244 324.76C257.031 324.52 256.711 324.4 256.284 324.4H251.004V333.56C251.004 334.067 250.884 334.44 250.644 334.68C250.431 334.893 250.071 335 249.564 335ZM296.168 327.44C296.168 328.667 295.981 329.787 295.608 330.8C295.261 331.787 294.621 332.64 293.688 333.36C292.781 334.053 291.514 334.6 289.888 335C288.288 335.4 286.248 335.6 283.768 335.6C281.288 335.6 279.234 335.4 277.608 335C275.981 334.6 274.701 334.053 273.768 333.36C272.861 332.64 272.221 331.787 271.848 330.8C271.501 329.787 271.328 328.667 271.328 327.44V313.8C271.328 312.573 271.501 311.467 271.848 310.48C272.221 309.467 272.861 308.6 273.768 307.88C274.701 307.16 275.981 306.6 277.608 306.2C279.234 305.8 281.288 305.6 283.768 305.6C286.248 305.6 288.288 305.8 289.888 306.2C291.514 306.6 292.781 307.16 293.688 307.88C294.621 308.6 295.261 309.467 295.608 310.48C295.981 311.467 296.168 312.573 296.168 313.8V327.44ZM280.408 326C280.408 326.533 280.608 326.987 281.008 327.36C281.408 327.707 282.328 327.88 283.768 327.88C285.208 327.88 286.128 327.707 286.528 327.36C286.928 326.987 287.128 326.533 287.128 326V315.24C287.128 314.733 286.928 314.307 286.528 313.96C286.128 313.587 285.208 313.4 283.768 313.4C282.328 313.4 281.408 313.587 281.008 313.96C280.608 314.307 280.408 314.733 280.408 315.24V326ZM308.26 323.52H304.46C304.113 323.52 303.86 323.44 303.7 323.28C303.54 323.093 303.46 322.827 303.46 322.48V311.12H300.18C299.807 311.12 299.54 311.04 299.38 310.88C299.22 310.693 299.14 310.427 299.14 310.08V307.24C299.14 306.893 299.22 306.64 299.38 306.48C299.54 306.293 299.807 306.2 300.18 306.2H312.58C312.927 306.2 313.193 306.293 313.38 306.48C313.567 306.64 313.66 306.893 313.66 307.24V310.08C313.66 310.427 313.567 310.693 313.38 310.88C313.193 311.04 312.927 311.12 312.58 311.12H309.34V322.48C309.34 322.827 309.247 323.093 309.06 323.28C308.873 323.44 308.607 323.52 308.26 323.52ZM320.14 323.52H316.58C316.233 323.52 315.967 323.44 315.78 323.28C315.62 323.093 315.54 322.827 315.54 322.48V307.24C315.54 306.893 315.62 306.64 315.78 306.48C315.967 306.293 316.233 306.2 316.58 306.2H320.34C320.633 306.2 320.873 306.267 321.06 306.4C321.273 306.533 321.46 306.733 321.62 307C321.967 307.613 322.313 308.267 322.66 308.96C323.033 309.627 323.393 310.253 323.74 310.84C323.793 310.947 323.833 311.027 323.86 311.08C323.913 311.107 323.967 311.12 324.02 311.12H324.22C324.247 311.12 324.287 311.093 324.34 311.04C324.393 310.96 324.433 310.893 324.46 310.84C324.78 310.253 325.127 309.613 325.5 308.92C325.9 308.227 326.247 307.587 326.54 307C326.7 306.733 326.873 306.533 327.06 306.4C327.273 306.267 327.527 306.2 327.82 306.2H331.62C331.967 306.2 332.22 306.293 332.38 306.48C332.567 306.64 332.66 306.893 332.66 307.24V322.48C332.66 322.827 332.567 323.093 332.38 323.28C332.22 323.44 331.967 323.52 331.62 323.52H327.82C327.447 323.52 327.18 323.44 327.02 323.28C326.86 323.093 326.78 322.827 326.78 322.48V314.88L325.74 316.84C325.58 317.133 325.38 317.36 325.14 317.52C324.927 317.653 324.66 317.72 324.34 317.72H323.58C323.26 317.72 322.98 317.653 322.74 317.52C322.527 317.36 322.353 317.133 322.22 316.84L321.18 314.88V322.48C321.18 322.827 321.087 323.093 320.9 323.28C320.74 323.44 320.487 323.52 320.14 323.52Z" fill="white"/>
<path d="M8 28C8 16.9543 16.9543 8 28 8H698C709.046 8 718 16.9543 718 28V58H8V28Z" fill="#2D2D2D"/>
<rect x="670" y="10" width="45" height="45" rx="20" fill="#FF0000"/>
<path d="M682 22L703 43" stroke="black" stroke-width="4" stroke-linecap="round"/>
<path d="M703 22L682 43" stroke="black" stroke-width="4" stroke-linecap="round"/>
<path d="M248.338 42H244.618C244.314 42 244.09 41.936 243.946 41.808C243.818 41.664 243.754 41.44 243.754 41.136V25.584C243.754 25.28 243.818 25.064 243.946 24.936C244.09 24.792 244.314 24.72 244.618 24.72H251.962C254.138 24.72 255.626 25.152 256.426 26.016C257.226 26.88 257.626 28.008 257.626 29.4V32.472C257.626 33.864 257.226 34.992 256.426 35.856C255.626 36.72 254.138 37.152 251.962 37.152H249.202V41.136C249.202 41.44 249.13 41.664 248.986 41.808C248.858 41.936 248.642 42 248.338 42ZM249.154 29.208V32.832H251.314C251.778 32.832 252.082 32.712 252.226 32.472C252.37 32.232 252.442 31.96 252.442 31.656V30.384C252.442 30.08 252.37 29.808 252.226 29.568C252.082 29.328 251.778 29.208 251.314 29.208H249.154ZM274.753 37.464C274.753 38.2 274.641 38.872 274.417 39.48C274.209 40.072 273.825 40.584 273.265 41.016C272.721 41.432 271.961 41.76 270.985 42C270.025 42.24 268.801 42.36 267.313 42.36C265.825 42.36 264.593 42.24 263.617 42C262.641 41.76 261.873 41.432 261.313 41.016C260.769 40.584 260.385 40.072 260.161 39.48C259.953 38.872 259.849 38.2 259.849 37.464V29.28C259.849 28.544 259.953 27.88 260.161 27.288C260.385 26.68 260.769 26.16 261.313 25.728C261.873 25.296 262.641 24.96 263.617 24.72C264.593 24.48 265.825 24.36 267.313 24.36C268.801 24.36 270.025 24.48 270.985 24.72C271.961 24.96 272.721 25.296 273.265 25.728C273.825 26.16 274.209 26.68 274.417 27.288C274.641 27.88 274.753 28.544 274.753 29.28V37.464ZM265.297 36.6C265.297 36.92 265.417 37.192 265.657 37.416C265.897 37.624 266.449 37.728 267.313 37.728C268.177 37.728 268.729 37.624 268.969 37.416C269.209 37.192 269.329 36.92 269.329 36.6V30.144C269.329 29.84 269.209 29.584 268.969 29.376C268.729 29.152 268.177 29.04 267.313 29.04C266.449 29.04 265.897 29.152 265.657 29.376C265.417 29.584 265.297 29.84 265.297 30.144V36.6ZM282.392 42H278.672C278.368 42 278.144 41.936 278 41.808C277.872 41.664 277.808 41.44 277.808 41.136V25.584C277.808 25.28 277.872 25.064 278 24.936C278.144 24.792 278.368 24.72 278.672 24.72H286.016C288.192 24.72 289.68 25.152 290.48 26.016C291.28 26.88 291.68 28.008 291.68 29.4V32.472C291.68 33.864 291.28 34.992 290.48 35.856C289.68 36.72 288.192 37.152 286.016 37.152H283.256V41.136C283.256 41.44 283.184 41.664 283.04 41.808C282.912 41.936 282.696 42 282.392 42ZM283.208 29.208V32.832H285.368C285.832 32.832 286.136 32.712 286.28 32.472C286.424 32.232 286.496 31.96 286.496 31.656V30.384C286.496 30.08 286.424 29.808 286.28 29.568C286.136 29.328 285.832 29.208 285.368 29.208H283.208ZM294.336 35.832C294.032 35.832 293.808 35.768 293.664 35.64C293.536 35.496 293.472 35.272 293.472 34.968V31.752C293.472 31.448 293.536 31.232 293.664 31.104C293.808 30.96 294.032 30.888 294.336 30.888H300.768C301.072 30.888 301.288 30.96 301.416 31.104C301.56 31.232 301.632 31.448 301.632 31.752V34.968C301.632 35.272 301.56 35.496 301.416 35.64C301.288 35.768 301.072 35.832 300.768 35.832H294.336ZM318.958 37.464C318.958 38.2 318.846 38.872 318.622 39.48C318.414 40.072 318.03 40.584 317.47 41.016C316.926 41.432 316.174 41.76 315.214 42C314.254 42.24 313.03 42.36 311.542 42.36C310.054 42.36 308.83 42.24 307.87 42C306.91 41.76 306.15 41.432 305.59 41.016C305.046 40.584 304.662 40.072 304.438 39.48C304.23 38.872 304.126 38.2 304.126 37.464V25.584C304.126 25.28 304.19 25.064 304.318 24.936C304.462 24.792 304.686 24.72 304.99 24.72H308.758C309.062 24.72 309.278 24.792 309.406 24.936C309.55 25.064 309.622 25.28 309.622 25.584V36.528C309.622 36.848 309.742 37.12 309.982 37.344C310.222 37.552 310.758 37.656 311.59 37.656C312.438 37.656 312.982 37.552 313.222 37.344C313.462 37.12 313.582 36.848 313.582 36.528V25.584C313.582 25.28 313.646 25.064 313.774 24.936C313.918 24.792 314.142 24.72 314.446 24.72H318.094C318.398 24.72 318.614 24.792 318.742 24.936C318.886 25.064 318.958 25.28 318.958 25.584V37.464ZM326.736 42H323.016C322.712 42 322.488 41.936 322.344 41.808C322.216 41.664 322.152 41.44 322.152 41.136V25.584C322.152 25.28 322.216 25.064 322.344 24.936C322.488 24.792 322.712 24.72 323.016 24.72H330.36C332.536 24.72 334.024 25.152 334.824 26.016C335.624 26.88 336.024 28.008 336.024 29.4V32.472C336.024 33.864 335.624 34.992 334.824 35.856C334.024 36.72 332.536 37.152 330.36 37.152H327.6V41.136C327.6 41.44 327.528 41.664 327.384 41.808C327.256 41.936 327.04 42 326.736 42ZM327.552 29.208V32.832H329.712C330.176 32.832 330.48 32.712 330.624 32.472C330.768 32.232 330.84 31.96 330.84 31.656V30.384C330.84 30.08 330.768 29.808 330.624 29.568C330.48 29.328 330.176 29.208 329.712 29.208H327.552ZM343.887 42H339.039C338.735 42 338.511 41.936 338.367 41.808C338.239 41.664 338.175 41.44 338.175 41.136V36.264C338.175 35.96 338.239 35.744 338.367 35.616C338.511 35.472 338.735 35.4 339.039 35.4H343.887C344.191 35.4 344.407 35.472 344.535 35.616C344.679 35.744 344.751 35.96 344.751 36.264V41.136C344.751 41.44 344.679 41.664 344.535 41.808C344.407 41.936 344.191 42 343.887 42ZM343.887 33.48H339.039C338.735 33.48 338.511 33.416 338.367 33.288C338.239 33.144 338.175 32.92 338.175 32.616V27.744C338.175 27.44 338.239 27.224 338.367 27.096C338.511 26.952 338.735 26.88 339.039 26.88H343.887C344.191 26.88 344.407 26.952 344.535 27.096C344.679 27.224 344.751 27.44 344.751 27.744V32.616C344.751 32.92 344.679 33.144 344.535 33.288C344.407 33.416 344.191 33.48 343.887 33.48ZM366.199 37.464C366.199 38.2 366.095 38.872 365.887 39.48C365.679 40.072 365.311 40.584 364.783 41.016C364.271 41.432 363.559 41.76 362.647 42C361.735 42.24 360.575 42.36 359.167 42.36C357.775 42.36 356.623 42.24 355.711 42C354.815 41.76 354.103 41.432 353.575 41.016C353.063 40.584 352.703 40.072 352.495 39.48C352.303 38.872 352.207 38.2 352.207 37.464V33.576C352.207 33.272 352.271 33.056 352.399 32.928C352.543 32.784 352.767 32.712 353.071 32.712H356.551C356.855 32.712 357.071 32.784 357.199 32.928C357.343 33.056 357.415 33.272 357.415 33.576V36.504C357.415 36.824 357.511 37.096 357.703 37.32C357.911 37.528 358.383 37.632 359.119 37.632C359.807 37.632 360.239 37.528 360.415 37.32C360.607 37.096 360.703 36.824 360.703 36.504V25.584C360.703 25.28 360.767 25.064 360.895 24.936C361.039 24.792 361.263 24.72 361.567 24.72H365.335C365.639 24.72 365.855 24.792 365.983 24.936C366.127 25.064 366.199 25.28 366.199 25.584V37.464ZM375.666 29.76L374.538 33.408H378.306L377.178 29.76C377.114 29.616 377.042 29.512 376.962 29.448C376.898 29.384 376.818 29.352 376.722 29.352H376.122C376.026 29.352 375.938 29.384 375.858 29.448C375.794 29.512 375.73 29.616 375.666 29.76ZM374.298 41.136C374.298 41.44 374.226 41.664 374.082 41.808C373.954 41.936 373.738 42 373.434 42H369.906C369.602 42 369.378 41.936 369.234 41.808C369.106 41.664 369.042 41.44 369.042 41.136V34.8C369.042 34.32 369.114 33.768 369.258 33.144C369.418 32.52 369.658 31.792 369.978 30.96L372.066 25.512C372.162 25.24 372.306 25.04 372.498 24.912C372.706 24.784 372.97 24.72 373.29 24.72H379.746C380.05 24.72 380.298 24.784 380.49 24.912C380.698 25.04 380.85 25.24 380.946 25.512L383.034 30.96C383.354 31.792 383.586 32.52 383.73 33.144C383.89 33.768 383.97 34.32 383.97 34.8V41.136C383.97 41.44 383.898 41.664 383.754 41.808C383.626 41.936 383.41 42 383.106 42H379.482C379.162 42 378.922 41.936 378.762 41.808C378.618 41.664 378.546 41.44 378.546 41.136V37.776H374.298V41.136ZM400.253 37.464C400.253 38.2 400.149 38.872 399.941 39.48C399.733 40.072 399.365 40.584 398.837 41.016C398.325 41.432 397.613 41.76 396.701 42C395.789 42.24 394.629 42.36 393.221 42.36C391.829 42.36 390.677 42.24 389.765 42C388.869 41.76 388.157 41.432 387.629 41.016C387.117 40.584 386.757 40.072 386.549 39.48C386.357 38.872 386.261 38.2 386.261 37.464V33.576C386.261 33.272 386.325 33.056 386.453 32.928C386.597 32.784 386.821 32.712 387.125 32.712H390.605C390.909 32.712 391.125 32.784 391.253 32.928C391.397 33.056 391.469 33.272 391.469 33.576V36.504C391.469 36.824 391.565 37.096 391.757 37.32C391.965 37.528 392.437 37.632 393.173 37.632C393.861 37.632 394.293 37.528 394.469 37.32C394.661 37.096 394.757 36.824 394.757 36.504V25.584C394.757 25.28 394.821 25.064 394.949 24.936C395.093 24.792 395.317 24.72 395.621 24.72H399.389C399.693 24.72 399.909 24.792 400.037 24.936C400.181 25.064 400.253 25.28 400.253 25.584V37.464ZM415.457 42H404.321C404.017 42 403.793 41.936 403.649 41.808C403.521 41.664 403.457 41.44 403.457 41.136V25.584C403.457 25.28 403.521 25.064 403.649 24.936C403.793 24.792 404.017 24.72 404.321 24.72H415.457C415.761 24.72 415.977 24.792 416.105 24.936C416.249 25.064 416.321 25.28 416.321 25.584V28.392C416.321 28.696 416.249 28.92 416.105 29.064C415.977 29.192 415.761 29.256 415.457 29.256H408.833V31.104H413.513C413.817 31.104 414.033 31.176 414.161 31.32C414.305 31.448 414.377 31.664 414.377 31.968V34.536C414.377 34.84 414.305 35.064 414.161 35.208C414.033 35.336 413.817 35.4 413.513 35.4H408.833V37.464H415.457C415.761 37.464 415.977 37.536 416.105 37.68C416.249 37.808 416.321 38.024 416.321 38.328V41.136C416.321 41.44 416.249 41.664 416.105 41.808C415.977 41.936 415.761 42 415.457 42ZM430.539 42H424.683C422.683 42 421.195 41.6 420.219 40.8C419.259 40 418.779 38.768 418.779 37.104V29.64C418.779 27.976 419.259 26.744 420.219 25.944C421.195 25.128 422.683 24.72 424.683 24.72H430.539C430.843 24.72 431.059 24.792 431.187 24.936C431.331 25.064 431.403 25.28 431.403 25.584V28.488C431.403 28.792 431.331 29.016 431.187 29.16C431.059 29.288 430.843 29.352 430.539 29.352H425.715C425.219 29.352 424.851 29.456 424.611 29.664C424.371 29.856 424.251 30.152 424.251 30.552V36.264C424.251 36.664 424.371 36.96 424.611 37.152C424.851 37.328 425.219 37.416 425.715 37.416H430.539C430.843 37.416 431.059 37.488 431.187 37.632C431.331 37.76 431.403 37.976 431.403 38.28V41.136C431.403 41.44 431.331 41.664 431.187 41.808C431.059 41.936 430.843 42 430.539 42ZM446.329 42H434.425C434.121 42 433.897 41.936 433.753 41.808C433.625 41.664 433.561 41.44 433.561 41.136V37.92C433.561 37.616 433.609 37.352 433.705 37.128C433.801 36.888 433.953 36.656 434.161 36.432L439.993 29.352H434.857C434.553 29.352 434.329 29.288 434.185 29.16C434.057 29.016 433.993 28.792 433.993 28.488V25.584C433.993 25.28 434.057 25.064 434.185 24.936C434.329 24.792 434.553 24.72 434.857 24.72H445.897C446.201 24.72 446.417 24.792 446.545 24.936C446.689 25.064 446.761 25.28 446.761 25.584V29.16C446.761 29.48 446.713 29.76 446.617 30C446.521 30.224 446.369 30.448 446.161 30.672L440.593 37.416H446.329C446.633 37.416 446.849 37.488 446.977 37.632C447.121 37.76 447.193 37.976 447.193 38.28V41.136C447.193 41.44 447.121 41.664 446.977 41.808C446.849 41.936 446.633 42 446.329 42ZM454.541 42H450.821C450.517 42 450.293 41.936 450.149 41.808C450.021 41.664 449.957 41.44 449.957 41.136V25.584C449.957 25.28 450.021 25.064 450.149 24.936C450.293 24.792 450.517 24.72 450.821 24.72H454.541C454.845 24.72 455.061 24.792 455.189 24.936C455.333 25.064 455.405 25.28 455.405 25.584V31.104H456.365L458.837 25.512C458.949 25.224 459.101 25.024 459.293 24.912C459.485 24.784 459.733 24.72 460.037 24.72H463.733C464.005 24.72 464.189 24.792 464.285 24.936C464.381 25.064 464.373 25.256 464.261 25.512L461.813 31.104C462.709 31.152 463.421 31.472 463.949 32.064C464.493 32.64 464.765 33.408 464.765 34.368V41.136C464.765 41.44 464.693 41.664 464.549 41.808C464.421 41.936 464.205 42 463.901 42H460.205C459.901 42 459.677 41.936 459.533 41.808C459.405 41.664 459.341 41.44 459.341 41.136V36.456C459.341 36.2 459.277 36 459.149 35.856C459.021 35.712 458.829 35.64 458.573 35.64H455.405V41.136C455.405 41.44 455.333 41.664 455.189 41.808C455.061 41.936 454.845 42 454.541 42ZM482.503 37.464C482.503 38.2 482.391 38.872 482.167 39.48C481.959 40.072 481.575 40.584 481.015 41.016C480.471 41.432 479.711 41.76 478.735 42C477.775 42.24 476.551 42.36 475.063 42.36C473.575 42.36 472.343 42.24 471.367 42C470.391 41.76 469.623 41.432 469.063 41.016C468.519 40.584 468.135 40.072 467.911 39.48C467.703 38.872 467.599 38.2 467.599 37.464V29.28C467.599 28.544 467.703 27.88 467.911 27.288C468.135 26.68 468.519 26.16 469.063 25.728C469.623 25.296 470.391 24.96 471.367 24.72C472.343 24.48 473.575 24.36 475.063 24.36C476.551 24.36 477.775 24.48 478.735 24.72C479.711 24.96 480.471 25.296 481.015 25.728C481.575 26.16 481.959 26.68 482.167 27.288C482.391 27.88 482.503 28.544 482.503 29.28V37.464ZM473.047 36.6C473.047 36.92 473.167 37.192 473.407 37.416C473.647 37.624 474.199 37.728 475.063 37.728C475.927 37.728 476.479 37.624 476.719 37.416C476.959 37.192 477.079 36.92 477.079 36.6V30.144C477.079 29.84 476.959 29.584 476.719 29.376C476.479 29.152 475.927 29.04 475.063 29.04C474.199 29.04 473.647 29.152 473.407 29.376C473.167 29.584 473.047 29.84 473.047 30.144V36.6Z" fill="white"/>
<path d="M530.5 116.208C505.057 116.208 483.598 137.096 468.353 162.953C453.107 188.81 443.729 220.261 443.729 245.168C443.729 294.983 482.514 335.687 530.5 335.687C578.486 335.687 617.271 294.983 617.271 245.168C617.271 220.263 607.893 188.811 592.647 162.953C577.402 137.096 555.943 116.208 530.5 116.208ZM530.5 126.417C550.158 126.417 569.532 143.861 583.845 168.137C598.157 192.413 607.063 222.901 607.063 245.168C607.063 289.709 572.715 325.479 530.5 325.479C488.285 325.479 453.938 289.709 453.938 245.168C453.938 222.898 462.843 192.412 477.156 168.137C491.468 143.862 510.842 126.417 530.5 126.417ZM487.115 233.604C485.084 233.604 483.137 234.68 481.701 236.594C480.265 238.508 479.458 241.105 479.458 243.812C479.458 246.52 480.265 249.116 481.701 251.031C483.137 252.945 485.084 254.021 487.115 254.021C489.145 254.021 491.093 252.945 492.528 251.031C493.964 249.116 494.771 246.52 494.771 243.812C494.771 241.105 493.964 238.508 492.528 236.594C491.093 234.68 489.145 233.604 487.115 233.604ZM573.885 233.604C571.855 233.604 569.908 234.68 568.472 236.594C567.036 238.508 566.229 241.105 566.229 243.812C566.229 246.52 567.036 249.116 568.472 251.031C569.908 252.945 571.855 254.021 573.885 254.021C575.916 254.021 577.863 252.945 579.299 251.031C580.735 249.116 581.542 246.52 581.542 243.812C581.542 241.105 580.735 238.508 579.299 236.594C577.863 234.68 575.916 233.604 573.885 233.604ZM509.874 259.065C508.989 259.094 508.126 259.354 507.372 259.817C506.617 260.281 505.996 260.933 505.569 261.71C505.143 262.486 504.926 263.36 504.939 264.246C504.953 265.131 505.197 265.998 505.647 266.761C505.647 266.761 513.535 279.542 530.5 279.542C547.465 279.542 555.353 266.761 555.353 266.761C555.686 266.179 555.9 265.536 555.985 264.871C556.069 264.205 556.022 263.529 555.845 262.882C555.668 262.235 555.365 261.629 554.954 261.099C554.543 260.569 554.032 260.125 553.449 259.792C552.867 259.459 552.224 259.245 551.559 259.161C550.893 259.076 550.218 259.124 549.57 259.301C548.923 259.478 548.317 259.78 547.787 260.192C547.257 260.603 546.813 261.114 546.481 261.697C546.481 261.697 542.701 269.333 530.5 269.333C518.3 269.333 514.52 261.697 514.52 261.697C514.064 260.872 513.388 260.19 512.568 259.725C511.748 259.261 510.816 259.032 509.874 259.065Z" fill="white"/>
</svg>
