<svg width="726" height="400" viewBox="0 0 726 400" fill="none" xmlns="http://www.w3.org/2000/svg">
<path d="M698 4C711.255 4 722 14.7452 722 28V372C722 385.255 711.255 396 698 396H28C14.7452 396 4 385.255 4 372V28C4 14.7452 14.7452 4 28 4H698Z" fill="#373737" stroke="black" stroke-width="8"/>
<path d="M84.5719 167H78.3719C77.8652 167 77.4919 166.893 77.2519 166.68C77.0385 166.44 76.9319 166.067 76.9319 165.56V139.64C76.9319 139.133 77.0385 138.773 77.2519 138.56C77.4919 138.32 77.8652 138.2 78.3719 138.2H90.6119C94.2385 138.2 96.7185 138.92 98.0519 140.36C99.3852 141.8 100.052 143.68 100.052 146V151.12C100.052 153.44 99.3852 155.32 98.0519 156.76C96.7185 158.2 94.2385 158.92 90.6119 158.92H86.0119V165.56C86.0119 166.067 85.8919 166.44 85.6519 166.68C85.4385 166.893 85.0785 167 84.5719 167ZM85.9319 145.68V151.72H89.5319C90.3052 151.72 90.8119 151.52 91.0519 151.12C91.2919 150.72 91.4119 150.267 91.4119 149.76V147.64C91.4119 147.133 91.2919 146.68 91.0519 146.28C90.8119 145.88 90.3052 145.68 89.5319 145.68H85.9319ZM128.598 159.44C128.598 160.667 128.411 161.787 128.038 162.8C127.691 163.787 127.051 164.64 126.118 165.36C125.211 166.053 123.944 166.6 122.318 167C120.718 167.4 118.678 167.6 116.198 167.6C113.718 167.6 111.664 167.4 110.038 167C108.411 166.6 107.131 166.053 106.198 165.36C105.291 164.64 104.651 163.787 104.278 162.8C103.931 161.787 103.758 160.667 103.758 159.44V145.8C103.758 144.573 103.931 143.467 104.278 142.48C104.651 141.467 105.291 140.6 106.198 139.88C107.131 139.16 108.411 138.6 110.038 138.2C111.664 137.8 113.718 137.6 116.198 137.6C118.678 137.6 120.718 137.8 122.318 138.2C123.944 138.6 125.211 139.16 126.118 139.88C127.051 140.6 127.691 141.467 128.038 142.48C128.411 143.467 128.598 144.573 128.598 145.8V159.44ZM112.838 158C112.838 158.533 113.038 158.987 113.438 159.36C113.838 159.707 114.758 159.88 116.198 159.88C117.638 159.88 118.558 159.707 118.958 159.36C119.358 158.987 119.558 158.533 119.558 158V147.24C119.558 146.733 119.358 146.307 118.958 145.96C118.558 145.587 117.638 145.4 116.198 145.4C114.758 145.4 113.838 145.587 113.438 145.96C113.038 146.307 112.838 146.733 112.838 147.24V158ZM154.37 138.2H160.33C160.836 138.2 161.196 138.32 161.41 138.56C161.65 138.773 161.77 139.133 161.77 139.64V155.16C161.77 156.013 161.73 156.813 161.65 157.56C161.596 158.28 161.396 159.133 161.05 160.12L159.05 165.56C158.916 165.96 158.716 166.307 158.45 166.6C158.21 166.867 157.876 167 157.45 167H152.13C151.703 167 151.316 166.907 150.97 166.72C150.623 166.533 150.396 166.227 150.29 165.8L148.45 159.28C148.37 159.013 148.263 158.84 148.13 158.76C148.023 158.653 147.89 158.6 147.73 158.6H147.37C147.21 158.6 147.063 158.653 146.93 158.76C146.823 158.84 146.73 159.013 146.65 159.28L144.77 165.8C144.663 166.2 144.463 166.507 144.17 166.72C143.876 166.907 143.516 167 143.09 167H137.81C137.383 167 137.01 166.867 136.69 166.6C136.396 166.333 136.183 165.987 136.05 165.56L134.05 160.04C133.703 159.053 133.49 158.2 133.41 157.48C133.356 156.733 133.33 155.933 133.33 155.08V139.64C133.33 139.133 133.436 138.773 133.65 138.56C133.89 138.32 134.263 138.2 134.77 138.2H140.93C141.436 138.2 141.796 138.32 142.01 138.56C142.25 138.773 142.37 139.133 142.37 139.64V154.36L144.69 149.32C144.903 148.867 145.183 148.547 145.53 148.36C145.876 148.173 146.303 148.08 146.81 148.08H148.49C148.996 148.08 149.423 148.173 149.77 148.36C150.116 148.547 150.396 148.867 150.61 149.32L152.93 154.36V139.64C152.93 139.133 153.036 138.773 153.25 138.56C153.49 138.32 153.863 138.2 154.37 138.2ZM167.732 167C167.225 167 166.852 166.893 166.612 166.68C166.399 166.44 166.292 166.067 166.292 165.56V160.8C166.292 160.293 166.399 159.933 166.612 159.72C166.852 159.48 167.225 159.36 167.732 159.36H171.692V145.92H167.732C167.225 145.92 166.852 145.813 166.612 145.6C166.399 145.36 166.292 144.987 166.292 144.48V139.64C166.292 139.133 166.399 138.773 166.612 138.56C166.852 138.32 167.225 138.2 167.732 138.2H184.772C185.279 138.2 185.639 138.32 185.852 138.56C186.092 138.773 186.212 139.133 186.212 139.64V144.48C186.212 144.987 186.092 145.36 185.852 145.6C185.639 145.813 185.279 145.92 184.772 145.92H180.892V159.36H184.772C185.279 159.36 185.639 159.48 185.852 159.72C186.092 159.933 186.212 160.293 186.212 160.8V165.56C186.212 166.067 186.092 166.44 185.852 166.68C185.639 166.893 185.279 167 184.772 167H167.732ZM212.591 173.08C212.591 173.587 212.497 173.933 212.311 174.12C212.124 174.333 211.777 174.44 211.271 174.44H206.831C205.124 174.44 203.951 174 203.311 173.12C202.697 172.24 202.524 170.88 202.791 169.04L203.151 167H192.591C192.084 167 191.711 166.893 191.471 166.68C191.257 166.44 191.151 166.067 191.151 165.56V139.64C191.151 139.133 191.257 138.773 191.471 138.56C191.711 138.32 192.084 138.2 192.591 138.2H211.151C211.657 138.2 212.017 138.32 212.231 138.56C212.471 138.773 212.591 139.133 212.591 139.64V144.32C212.591 144.827 212.471 145.2 212.231 145.44C212.017 145.653 211.657 145.76 211.151 145.76H200.111V148.84H207.911C208.417 148.84 208.777 148.96 208.991 149.2C209.231 149.413 209.351 149.773 209.351 150.28V154.56C209.351 155.067 209.231 155.44 208.991 155.68C208.777 155.893 208.417 156 207.911 156H200.111V159.44H211.151C211.657 159.44 212.017 159.56 212.231 159.8C212.471 160.013 212.591 160.373 212.591 160.88V165.56C212.591 166.067 212.471 166.44 212.231 166.68C212.017 166.893 211.657 167 211.151 167H209.791L209.511 168.84H211.151C211.711 168.84 212.084 168.933 212.271 169.12C212.484 169.333 212.591 169.693 212.591 170.2V173.08ZM224.963 167H218.763C218.256 167 217.883 166.893 217.643 166.68C217.429 166.44 217.323 166.067 217.323 165.56V139.64C217.323 139.133 217.429 138.773 217.643 138.56C217.883 138.32 218.256 138.2 218.763 138.2H224.963C225.469 138.2 225.829 138.32 226.043 138.56C226.283 138.773 226.403 139.133 226.403 139.64V148.84H228.003L232.123 139.52C232.309 139.04 232.563 138.707 232.883 138.52C233.203 138.307 233.616 138.2 234.123 138.2H240.283C240.736 138.2 241.043 138.32 241.203 138.56C241.363 138.773 241.349 139.093 241.163 139.52L237.083 148.84C238.576 148.92 239.763 149.453 240.643 150.44C241.549 151.4 242.003 152.68 242.003 154.28V165.56C242.003 166.067 241.883 166.44 241.643 166.68C241.429 166.893 241.069 167 240.563 167H234.403C233.896 167 233.523 166.893 233.283 166.68C233.069 166.44 232.963 166.067 232.963 165.56V157.76C232.963 157.333 232.856 157 232.643 156.76C232.429 156.52 232.109 156.4 231.683 156.4H226.403V165.56C226.403 166.067 226.283 166.44 226.043 166.68C225.829 166.893 225.469 167 224.963 167ZM260.526 167H247.886C247.38 167 247.006 166.893 246.766 166.68C246.553 166.44 246.446 166.067 246.446 165.56V160.88C246.446 160.373 246.553 160.013 246.766 159.8C247.006 159.56 247.38 159.44 247.886 159.44H258.646C258.993 159.44 259.246 159.333 259.406 159.12C259.593 158.88 259.686 158.6 259.686 158.28C259.686 157.827 259.593 157.493 259.406 157.28C259.246 157.067 258.993 156.947 258.646 156.92L252.646 156.08C250.78 155.813 249.273 155.2 248.126 154.24C247.006 153.28 246.446 151.68 246.446 149.44V145.24C246.446 142.973 247.18 141.24 248.646 140.04C250.113 138.813 252.14 138.2 254.726 138.2H265.926C266.433 138.2 266.793 138.32 267.006 138.56C267.246 138.773 267.366 139.133 267.366 139.64V144.4C267.366 144.907 267.246 145.28 267.006 145.52C266.793 145.733 266.433 145.84 265.926 145.84H256.606C256.26 145.84 255.993 145.96 255.806 146.2C255.62 146.413 255.526 146.693 255.526 147.04C255.526 147.387 255.62 147.68 255.806 147.92C255.993 148.16 256.26 148.293 256.606 148.32L262.566 149.12C264.433 149.387 265.94 150 267.086 150.96C268.233 151.92 268.806 153.52 268.806 155.76V159.96C268.806 162.227 268.06 163.973 266.566 165.2C265.1 166.4 263.086 167 260.526 167ZM293.542 167H273.702C273.195 167 272.822 166.893 272.582 166.68C272.369 166.44 272.262 166.067 272.262 165.56V160.2C272.262 159.693 272.342 159.253 272.502 158.88C272.662 158.48 272.915 158.093 273.262 157.72L282.982 145.92H274.422C273.915 145.92 273.542 145.813 273.302 145.6C273.089 145.36 272.982 144.987 272.982 144.48V139.64C272.982 139.133 273.089 138.773 273.302 138.56C273.542 138.32 273.915 138.2 274.422 138.2H292.822C293.329 138.2 293.689 138.32 293.902 138.56C294.142 138.773 294.262 139.133 294.262 139.64V145.6C294.262 146.133 294.182 146.6 294.022 147C293.862 147.373 293.609 147.747 293.262 148.12L283.982 159.36H293.542C294.049 159.36 294.409 159.48 294.622 159.72C294.862 159.933 294.982 160.293 294.982 160.8V165.56C294.982 166.067 294.862 166.44 294.622 166.68C294.409 166.893 294.049 167 293.542 167ZM101.581 215H88.9409C88.4343 215 88.0609 214.893 87.8209 214.68C87.6076 214.44 87.5009 214.067 87.5009 213.56V208.88C87.5009 208.373 87.6076 208.013 87.8209 207.8C88.0609 207.56 88.4343 207.44 88.9409 207.44H99.7009C100.048 207.44 100.301 207.333 100.461 207.12C100.648 206.88 100.741 206.6 100.741 206.28C100.741 205.827 100.648 205.493 100.461 205.28C100.301 205.067 100.048 204.947 99.7009 204.92L93.7009 204.08C91.8343 203.813 90.3276 203.2 89.1809 202.24C88.0609 201.28 87.5009 199.68 87.5009 197.44V193.24C87.5009 190.973 88.2343 189.24 89.7009 188.04C91.1676 186.813 93.1943 186.2 95.7809 186.2H106.981C107.488 186.2 107.848 186.32 108.061 186.56C108.301 186.773 108.421 187.133 108.421 187.64V192.4C108.421 192.907 108.301 193.28 108.061 193.52C107.848 193.733 107.488 193.84 106.981 193.84H97.6609C97.3143 193.84 97.0476 193.96 96.8609 194.2C96.6743 194.413 96.5809 194.693 96.5809 195.04C96.5809 195.387 96.6743 195.68 96.8609 195.92C97.0476 196.16 97.3143 196.293 97.6609 196.32L103.621 197.12C105.488 197.387 106.994 198 108.141 198.96C109.288 199.92 109.861 201.52 109.861 203.76V207.96C109.861 210.227 109.114 211.973 107.621 213.2C106.154 214.4 104.141 215 101.581 215ZM134.917 186.2H140.877C141.383 186.2 141.743 186.32 141.957 186.56C142.197 186.773 142.317 187.133 142.317 187.64V203.16C142.317 204.013 142.277 204.813 142.197 205.56C142.143 206.28 141.943 207.133 141.597 208.12L139.597 213.56C139.463 213.96 139.263 214.307 138.997 214.6C138.757 214.867 138.423 215 137.997 215H132.677C132.25 215 131.863 214.907 131.517 214.72C131.17 214.533 130.943 214.227 130.837 213.8L128.997 207.28C128.917 207.013 128.81 206.84 128.677 206.76C128.57 206.653 128.437 206.6 128.277 206.6H127.917C127.757 206.6 127.61 206.653 127.477 206.76C127.37 206.84 127.277 207.013 127.197 207.28L125.317 213.8C125.21 214.2 125.01 214.507 124.717 214.72C124.423 214.907 124.063 215 123.637 215H118.357C117.93 215 117.557 214.867 117.237 214.6C116.943 214.333 116.73 213.987 116.597 213.56L114.597 208.04C114.25 207.053 114.037 206.2 113.957 205.48C113.903 204.733 113.877 203.933 113.877 203.08V187.64C113.877 187.133 113.983 186.773 114.197 186.56C114.437 186.32 114.81 186.2 115.317 186.2H121.477C121.983 186.2 122.343 186.32 122.557 186.56C122.797 186.773 122.917 187.133 122.917 187.64V202.36L125.237 197.32C125.45 196.867 125.73 196.547 126.077 196.36C126.423 196.173 126.85 196.08 127.357 196.08H129.037C129.543 196.08 129.97 196.173 130.317 196.36C130.663 196.547 130.943 196.867 131.157 197.32L133.477 202.36V187.64C133.477 187.133 133.583 186.773 133.797 186.56C134.037 186.32 134.41 186.2 134.917 186.2ZM171.879 207.44C171.879 208.667 171.692 209.787 171.319 210.8C170.972 211.787 170.332 212.64 169.399 213.36C168.492 214.053 167.225 214.6 165.599 215C163.999 215.4 161.959 215.6 159.479 215.6C156.999 215.6 154.945 215.4 153.319 215C151.692 214.6 150.412 214.053 149.479 213.36C148.572 212.64 147.932 211.787 147.559 210.8C147.212 209.787 147.039 208.667 147.039 207.44V193.8C147.039 192.573 147.212 191.467 147.559 190.48C147.932 189.467 148.572 188.6 149.479 187.88C150.412 187.16 151.692 186.6 153.319 186.2C154.945 185.8 156.999 185.6 159.479 185.6C161.959 185.6 163.999 185.8 165.599 186.2C167.225 186.6 168.492 187.16 169.399 187.88C170.332 188.6 170.972 189.467 171.319 190.48C171.692 191.467 171.879 192.573 171.879 193.8V207.44ZM156.119 206C156.119 206.533 156.319 206.987 156.719 207.36C157.119 207.707 158.039 207.88 159.479 207.88C160.919 207.88 161.839 207.707 162.239 207.36C162.639 206.987 162.839 206.533 162.839 206V195.24C162.839 194.733 162.639 194.307 162.239 193.96C161.839 193.587 160.919 193.4 159.479 193.4C158.039 193.4 157.119 193.587 156.719 193.96C156.319 194.307 156.119 194.733 156.119 195.24V206ZM199.171 207.44C199.171 208.667 198.998 209.787 198.651 210.8C198.304 211.787 197.691 212.64 196.811 213.36C195.958 214.053 194.771 214.6 193.251 215C191.731 215.4 189.798 215.6 187.451 215.6C185.131 215.6 183.211 215.4 181.691 215C180.198 214.6 179.011 214.053 178.131 213.36C177.278 212.64 176.678 211.787 176.331 210.8C176.011 209.787 175.851 208.667 175.851 207.44V200.96C175.851 200.453 175.958 200.093 176.171 199.88C176.411 199.64 176.784 199.52 177.291 199.52H183.091C183.598 199.52 183.958 199.64 184.171 199.88C184.411 200.093 184.531 200.453 184.531 200.96V205.84C184.531 206.373 184.691 206.827 185.011 207.2C185.358 207.547 186.144 207.72 187.371 207.72C188.518 207.72 189.238 207.547 189.531 207.2C189.851 206.827 190.011 206.373 190.011 205.84V187.64C190.011 187.133 190.118 186.773 190.331 186.56C190.571 186.32 190.944 186.2 191.451 186.2H197.731C198.238 186.2 198.598 186.32 198.811 186.56C199.051 186.773 199.171 187.133 199.171 187.64V207.44ZM224.51 215H205.95C205.443 215 205.07 214.893 204.83 214.68C204.617 214.44 204.51 214.067 204.51 213.56V187.64C204.51 187.133 204.617 186.773 204.83 186.56C205.07 186.32 205.443 186.2 205.95 186.2H224.51C225.017 186.2 225.377 186.32 225.59 186.56C225.83 186.773 225.95 187.133 225.95 187.64V192.32C225.95 192.827 225.83 193.2 225.59 193.44C225.377 193.653 225.017 193.76 224.51 193.76H213.47V196.84H221.27C221.777 196.84 222.137 196.96 222.35 197.2C222.59 197.413 222.71 197.773 222.71 198.28V202.56C222.71 203.067 222.59 203.44 222.35 203.68C222.137 203.893 221.777 204 221.27 204H213.47V207.44H224.51C225.017 207.44 225.377 207.56 225.59 207.8C225.83 208.013 225.95 208.373 225.95 208.88V213.56C225.95 214.067 225.83 214.44 225.59 214.68C225.377 214.893 225.017 215 224.51 215ZM252.487 215H239.887C236.553 215 234.073 214.333 232.447 213C230.847 211.667 230.047 209.613 230.047 206.84V194.36C230.047 191.587 230.847 189.533 232.447 188.2C234.073 186.867 236.553 186.2 239.887 186.2H249.887C250.393 186.2 250.753 186.32 250.967 186.56C251.207 186.773 251.327 187.133 251.327 187.64V192.48C251.327 192.987 251.207 193.36 250.967 193.6C250.753 193.813 250.393 193.92 249.887 193.92H241.567C240.74 193.92 240.127 194.093 239.727 194.44C239.327 194.76 239.127 195.253 239.127 195.92V205.48C239.127 206.147 239.273 206.64 239.567 206.96C239.887 207.28 240.353 207.44 240.967 207.44H244.847V201.2C244.847 200.693 244.953 200.333 245.167 200.12C245.407 199.88 245.78 199.76 246.287 199.76H252.487C252.993 199.76 253.353 199.88 253.567 200.12C253.807 200.333 253.927 200.693 253.927 201.2V213.56C253.927 214.067 253.807 214.44 253.567 214.68C253.353 214.893 252.993 215 252.487 215ZM283.207 207.44C283.207 208.667 283.02 209.787 282.647 210.8C282.3 211.787 281.66 212.64 280.727 213.36C279.82 214.053 278.554 214.6 276.927 215C275.327 215.4 273.287 215.6 270.807 215.6C268.327 215.6 266.274 215.4 264.647 215C263.02 214.6 261.74 214.053 260.807 213.36C259.9 212.64 259.26 211.787 258.887 210.8C258.54 209.787 258.367 208.667 258.367 207.44V193.8C258.367 192.573 258.54 191.467 258.887 190.48C259.26 189.467 259.9 188.6 260.807 187.88C261.74 187.16 263.02 186.6 264.647 186.2C266.274 185.8 268.327 185.6 270.807 185.6C273.287 185.6 275.327 185.8 276.927 186.2C278.554 186.6 279.82 187.16 280.727 187.88C281.66 188.6 282.3 189.467 282.647 190.48C283.02 191.467 283.207 192.573 283.207 193.8V207.44ZM267.447 206C267.447 206.533 267.647 206.987 268.047 207.36C268.447 207.707 269.367 207.88 270.807 207.88C272.247 207.88 273.167 207.707 273.567 207.36C273.967 206.987 274.167 206.533 274.167 206V195.24C274.167 194.733 273.967 194.307 273.567 193.96C273.167 193.587 272.247 193.4 270.807 193.4C269.367 193.4 268.447 193.587 268.047 193.96C267.647 194.307 267.447 194.733 267.447 195.24V206ZM46.4469 263H40.2469C39.7402 263 39.3669 262.893 39.1269 262.68C38.9135 262.44 38.8069 262.067 38.8069 261.56V235.64C38.8069 235.133 38.9135 234.773 39.1269 234.56C39.3669 234.32 39.7402 234.2 40.2469 234.2H52.4869C56.1135 234.2 58.5935 234.92 59.9269 236.36C61.2602 237.8 61.9269 239.68 61.9269 242V247.12C61.9269 249.44 61.2602 251.32 59.9269 252.76C58.5935 254.2 56.1135 254.92 52.4869 254.92H47.8869V261.56C47.8869 262.067 47.7669 262.44 47.5269 262.68C47.3135 262.893 46.9535 263 46.4469 263ZM47.8069 241.68V247.72H51.4069C52.1802 247.72 52.6869 247.52 52.9269 247.12C53.1669 246.72 53.2869 246.267 53.2869 245.76V243.64C53.2869 243.133 53.1669 242.68 52.9269 242.28C52.6869 241.88 52.1802 241.68 51.4069 241.68H47.8069ZM66.8725 263C66.3658 263 65.9925 262.893 65.7525 262.68C65.5392 262.44 65.4325 262.067 65.4325 261.56V256.8C65.4325 256.293 65.5392 255.933 65.7525 255.72C65.9925 255.48 66.3658 255.36 66.8725 255.36H70.8325V241.92H66.8725C66.3658 241.92 65.9925 241.813 65.7525 241.6C65.5392 241.36 65.4325 240.987 65.4325 240.48V235.64C65.4325 235.133 65.5392 234.773 65.7525 234.56C65.9925 234.32 66.3658 234.2 66.8725 234.2H83.9125C84.4192 234.2 84.7792 234.32 84.9925 234.56C85.2325 234.773 85.3525 235.133 85.3525 235.64V240.48C85.3525 240.987 85.2325 241.36 84.9925 241.6C84.7792 241.813 84.4192 241.92 83.9125 241.92H80.0325V255.36H83.9125C84.4192 255.36 84.7792 255.48 84.9925 255.72C85.2325 255.933 85.3525 256.293 85.3525 256.8V261.56C85.3525 262.067 85.2325 262.44 84.9925 262.68C84.7792 262.893 84.4192 263 83.9125 263H66.8725ZM110.291 263H91.7313C91.2246 263 90.8513 262.893 90.6113 262.68C90.3979 262.44 90.2913 262.067 90.2913 261.56V235.64C90.2913 235.133 90.3979 234.773 90.6113 234.56C90.8513 234.32 91.2246 234.2 91.7313 234.2H110.291C110.798 234.2 111.158 234.32 111.371 234.56C111.611 234.773 111.731 235.133 111.731 235.64V240.32C111.731 240.827 111.611 241.2 111.371 241.44C111.158 241.653 110.798 241.76 110.291 241.76H99.2513V244.84H107.051C107.558 244.84 107.918 244.96 108.131 245.2C108.371 245.413 108.491 245.773 108.491 246.28V250.56C108.491 251.067 108.371 251.44 108.131 251.68C107.918 251.893 107.558 252 107.051 252H99.2513V255.44H110.291C110.798 255.44 111.158 255.56 111.371 255.8C111.611 256.013 111.731 256.373 111.731 256.88V261.56C111.731 262.067 111.611 262.44 111.371 262.68C111.158 262.893 110.798 263 110.291 263ZM124.103 263H117.903C117.396 263 117.023 262.893 116.783 262.68C116.57 262.44 116.463 262.067 116.463 261.56V235.64C116.463 235.133 116.57 234.773 116.783 234.56C117.023 234.32 117.396 234.2 117.903 234.2H124.103C124.61 234.2 124.97 234.32 125.183 234.56C125.423 234.773 125.543 235.133 125.543 235.64V244.84H127.143L131.263 235.52C131.45 235.04 131.703 234.707 132.023 234.52C132.343 234.307 132.756 234.2 133.263 234.2H139.423C139.876 234.2 140.183 234.32 140.343 234.56C140.503 234.773 140.49 235.093 140.303 235.52L136.223 244.84C137.716 244.92 138.903 245.453 139.783 246.44C140.69 247.4 141.143 248.68 141.143 250.28V261.56C141.143 262.067 141.023 262.44 140.783 262.68C140.57 262.893 140.21 263 139.703 263H133.543C133.036 263 132.663 262.893 132.423 262.68C132.21 262.44 132.103 262.067 132.103 261.56V253.76C132.103 253.333 131.996 253 131.783 252.76C131.57 252.52 131.25 252.4 130.823 252.4H125.543V261.56C125.543 262.067 125.423 262.44 125.183 262.68C124.97 262.893 124.61 263 124.103 263ZM147.107 263C146.6 263 146.227 262.893 145.987 262.68C145.774 262.44 145.667 262.067 145.667 261.56V256.8C145.667 256.293 145.774 255.933 145.987 255.72C146.227 255.48 146.6 255.36 147.107 255.36H151.067V241.92H147.107C146.6 241.92 146.227 241.813 145.987 241.6C145.774 241.36 145.667 240.987 145.667 240.48V235.64C145.667 235.133 145.774 234.773 145.987 234.56C146.227 234.32 146.6 234.2 147.107 234.2H164.147C164.654 234.2 165.014 234.32 165.227 234.56C165.467 234.773 165.587 235.133 165.587 235.64V240.48C165.587 240.987 165.467 241.36 165.227 241.6C165.014 241.813 164.654 241.92 164.147 241.92H160.267V255.36H164.147C164.654 255.36 165.014 255.48 165.227 255.72C165.467 255.933 165.587 256.293 165.587 256.8V261.56C165.587 262.067 165.467 262.44 165.227 262.68C165.014 262.893 164.654 263 164.147 263H147.107ZM190.526 263H171.966C171.459 263 171.086 262.893 170.846 262.68C170.632 262.44 170.526 262.067 170.526 261.56V235.64C170.526 235.133 170.632 234.773 170.846 234.56C171.086 234.32 171.459 234.2 171.966 234.2H190.526C191.032 234.2 191.392 234.32 191.606 234.56C191.846 234.773 191.966 235.133 191.966 235.64V240.32C191.966 240.827 191.846 241.2 191.606 241.44C191.392 241.653 191.032 241.76 190.526 241.76H179.486V244.84H187.286C187.792 244.84 188.152 244.96 188.366 245.2C188.606 245.413 188.726 245.773 188.726 246.28V250.56C188.726 251.067 188.606 251.44 188.366 251.68C188.152 251.893 187.792 252 187.286 252H179.486V255.44H190.526C191.032 255.44 191.392 255.56 191.606 255.8C191.846 256.013 191.966 256.373 191.966 256.88V261.56C191.966 262.067 191.846 262.44 191.606 262.68C191.392 262.893 191.032 263 190.526 263ZM218.498 263H198.138C197.631 263 197.258 262.893 197.018 262.68C196.804 262.44 196.698 262.067 196.698 261.56V235.64C196.698 235.133 196.804 234.773 197.018 234.56C197.258 234.32 197.631 234.2 198.138 234.2H204.338C204.844 234.2 205.204 234.32 205.418 234.56C205.658 234.773 205.778 235.133 205.778 235.64V255.44H211.258V248.96C211.258 248.453 211.364 248.093 211.578 247.88C211.818 247.64 212.191 247.52 212.698 247.52H218.498C219.004 247.52 219.364 247.64 219.578 247.88C219.818 248.093 219.938 248.453 219.938 248.96V261.56C219.938 262.067 219.818 262.44 219.578 262.68C219.364 262.893 219.004 263 218.498 263ZM231.95 263H225.95C225.443 263 225.07 262.893 224.83 262.68C224.617 262.44 224.51 262.067 224.51 261.56V235.64C224.51 235.133 224.617 234.773 224.83 234.56C225.07 234.32 225.443 234.2 225.95 234.2H230.11C230.617 234.2 231.043 234.28 231.39 234.44C231.763 234.6 232.123 234.88 232.47 235.28L240.23 244.16V235.64C240.23 235.133 240.337 234.773 240.55 234.56C240.79 234.32 241.163 234.2 241.67 234.2H247.67C248.177 234.2 248.537 234.32 248.75 234.56C248.99 234.773 249.11 235.133 249.11 235.64V261.56C249.11 262.067 248.99 262.44 248.75 262.68C248.537 262.893 248.177 263 247.67 263H241.67C241.163 263 240.79 262.893 240.55 262.68C240.337 262.44 240.23 262.067 240.23 261.56V256.64L233.39 248.36V261.56C233.39 262.067 233.27 262.44 233.03 262.68C232.817 262.893 232.457 263 231.95 263ZM255.427 263C254.921 263 254.547 262.893 254.307 262.68C254.094 262.44 253.987 262.067 253.987 261.56V256.8C253.987 256.293 254.094 255.933 254.307 255.72C254.547 255.48 254.921 255.36 255.427 255.36H259.387V241.92H255.427C254.921 241.92 254.547 241.813 254.307 241.6C254.094 241.36 253.987 240.987 253.987 240.48V235.64C253.987 235.133 254.094 234.773 254.307 234.56C254.547 234.32 254.921 234.2 255.427 234.2H272.467C272.974 234.2 273.334 234.32 273.547 234.56C273.787 234.773 273.907 235.133 273.907 235.64V240.48C273.907 240.987 273.787 241.36 273.547 241.6C273.334 241.813 272.974 241.92 272.467 241.92H268.587V255.36H272.467C272.974 255.36 273.334 255.48 273.547 255.72C273.787 255.933 273.907 256.293 273.907 256.8V261.56C273.907 262.067 273.787 262.44 273.547 262.68C273.334 262.893 272.974 263 272.467 263H255.427ZM286.486 263H280.286C279.779 263 279.406 262.893 279.166 262.68C278.953 262.44 278.846 262.067 278.846 261.56V235.64C278.846 235.133 278.953 234.773 279.166 234.56C279.406 234.32 279.779 234.2 280.286 234.2H286.486C286.993 234.2 287.353 234.32 287.566 234.56C287.806 234.773 287.926 235.133 287.926 235.64V244.84H289.526L293.646 235.52C293.833 235.04 294.086 234.707 294.406 234.52C294.726 234.307 295.139 234.2 295.646 234.2H301.806C302.259 234.2 302.566 234.32 302.726 234.56C302.886 234.773 302.873 235.093 302.686 235.52L298.606 244.84C300.099 244.92 301.286 245.453 302.166 246.44C303.073 247.4 303.526 248.68 303.526 250.28V261.56C303.526 262.067 303.406 262.44 303.166 262.68C302.953 262.893 302.593 263 302.086 263H295.926C295.419 263 295.046 262.893 294.806 262.68C294.593 262.44 294.486 262.067 294.486 261.56V253.76C294.486 253.333 294.379 253 294.166 252.76C293.953 252.52 293.633 252.4 293.206 252.4H287.926V261.56C287.926 262.067 287.806 262.44 287.566 262.68C287.353 262.893 286.993 263 286.486 263ZM319.13 242.6L317.25 248.68H323.53L321.65 242.6C321.543 242.36 321.423 242.187 321.29 242.08C321.183 241.973 321.05 241.92 320.89 241.92H319.89C319.73 241.92 319.583 241.973 319.45 242.08C319.343 242.187 319.236 242.36 319.13 242.6ZM316.85 261.56C316.85 262.067 316.73 262.44 316.49 262.68C316.276 262.893 315.916 263 315.41 263H309.53C309.023 263 308.65 262.893 308.41 262.68C308.196 262.44 308.09 262.067 308.09 261.56V251C308.09 250.2 308.21 249.28 308.45 248.24C308.716 247.2 309.116 245.987 309.65 244.6L313.13 235.52C313.29 235.067 313.53 234.733 313.85 234.52C314.196 234.307 314.636 234.2 315.17 234.2H325.93C326.436 234.2 326.85 234.307 327.17 234.52C327.516 234.733 327.77 235.067 327.93 235.52L331.41 244.6C331.943 245.987 332.33 247.2 332.57 248.24C332.836 249.28 332.97 250.2 332.97 251V261.56C332.97 262.067 332.85 262.44 332.61 262.68C332.396 262.893 332.036 263 331.53 263H325.49C324.956 263 324.556 262.893 324.29 262.68C324.05 262.44 323.93 262.067 323.93 261.56V255.96H316.85V261.56ZM95.3819 303.44C95.3819 304.667 95.2085 305.787 94.8619 306.8C94.5152 307.787 93.9019 308.64 93.0219 309.36C92.1685 310.053 90.9819 310.6 89.4619 311C87.9419 311.4 86.0085 311.6 83.6619 311.6C81.3419 311.6 79.4219 311.4 77.9019 311C76.4085 310.6 75.2219 310.053 74.3419 309.36C73.4885 308.64 72.8885 307.787 72.5419 306.8C72.2219 305.787 72.0619 304.667 72.0619 303.44V296.96C72.0619 296.453 72.1685 296.093 72.3819 295.88C72.6219 295.64 72.9952 295.52 73.5019 295.52H79.3019C79.8085 295.52 80.1685 295.64 80.3819 295.88C80.6219 296.093 80.7419 296.453 80.7419 296.96V301.84C80.7419 302.373 80.9019 302.827 81.2219 303.2C81.5685 303.547 82.3552 303.72 83.5819 303.72C84.7285 303.72 85.4485 303.547 85.7419 303.2C86.0619 302.827 86.2219 302.373 86.2219 301.84V283.64C86.2219 283.133 86.3285 282.773 86.5419 282.56C86.7819 282.32 87.1552 282.2 87.6619 282.2H93.9419C94.4485 282.2 94.8085 282.32 95.0219 282.56C95.2619 282.773 95.3819 283.133 95.3819 283.64V303.44ZM125.241 303.44C125.241 304.667 125.054 305.787 124.681 306.8C124.334 307.787 123.694 308.64 122.761 309.36C121.854 310.053 120.601 310.6 119.001 311C117.401 311.4 115.361 311.6 112.881 311.6C110.401 311.6 108.361 311.4 106.761 311C105.161 310.6 103.894 310.053 102.961 309.36C102.054 308.64 101.414 307.787 101.041 306.8C100.694 305.787 100.521 304.667 100.521 303.44V283.64C100.521 283.133 100.628 282.773 100.841 282.56C101.081 282.32 101.454 282.2 101.961 282.2H108.241C108.748 282.2 109.108 282.32 109.321 282.56C109.561 282.773 109.681 283.133 109.681 283.64V301.88C109.681 302.413 109.881 302.867 110.281 303.24C110.681 303.587 111.574 303.76 112.961 303.76C114.374 303.76 115.281 303.587 115.681 303.24C116.081 302.867 116.281 302.413 116.281 301.88V283.64C116.281 283.133 116.388 282.773 116.601 282.56C116.841 282.32 117.214 282.2 117.721 282.2H123.801C124.308 282.2 124.668 282.32 124.881 282.56C125.121 282.773 125.241 283.133 125.241 283.64V303.44ZM150.925 311H131.085C130.578 311 130.205 310.893 129.965 310.68C129.751 310.44 129.645 310.067 129.645 309.56V304.2C129.645 303.693 129.725 303.253 129.885 302.88C130.045 302.48 130.298 302.093 130.645 301.72L140.365 289.92H131.805C131.298 289.92 130.925 289.813 130.685 289.6C130.471 289.36 130.365 288.987 130.365 288.48V283.64C130.365 283.133 130.471 282.773 130.685 282.56C130.925 282.32 131.298 282.2 131.805 282.2H150.205C150.711 282.2 151.071 282.32 151.285 282.56C151.525 282.773 151.645 283.133 151.645 283.64V289.6C151.645 290.133 151.565 290.6 151.405 291C151.245 291.373 150.991 291.747 150.645 292.12L141.365 303.36H150.925C151.431 303.36 151.791 303.48 152.005 303.72C152.245 303.933 152.365 304.293 152.365 304.8V309.56C152.365 310.067 152.245 310.44 152.005 310.68C151.791 310.893 151.431 311 150.925 311ZM144.205 280.6H137.885C137.378 280.6 137.005 280.493 136.765 280.28C136.551 280.04 136.445 279.667 136.445 279.16V274.08C136.445 273.573 136.551 273.213 136.765 273C137.005 272.76 137.378 272.64 137.885 272.64H144.205C144.711 272.64 145.071 272.76 145.285 273C145.525 273.213 145.645 273.573 145.645 274.08V279.16C145.645 279.667 145.525 280.04 145.285 280.28C145.071 280.493 144.711 280.6 144.205 280.6ZM179.165 311H172.685C172.178 311 171.805 310.893 171.565 310.68C171.351 310.44 171.245 310.067 171.245 309.56V289.92H165.365C164.858 289.92 164.485 289.813 164.245 289.6C164.031 289.36 163.925 288.987 163.925 288.48V283.64C163.925 283.133 164.031 282.773 164.245 282.56C164.485 282.32 164.858 282.2 165.365 282.2H186.485C186.991 282.2 187.351 282.32 187.565 282.56C187.805 282.773 187.925 283.133 187.925 283.64V288.48C187.925 288.987 187.805 289.36 187.565 289.6C187.351 289.813 186.991 289.92 186.485 289.92H180.605V309.56C180.605 310.067 180.485 310.44 180.245 310.68C180.031 310.893 179.671 311 179.165 311ZM211.815 311H193.255C192.748 311 192.375 310.893 192.135 310.68C191.921 310.44 191.815 310.067 191.815 309.56V283.64C191.815 283.133 191.921 282.773 192.135 282.56C192.375 282.32 192.748 282.2 193.255 282.2H211.815C212.321 282.2 212.681 282.32 212.895 282.56C213.135 282.773 213.255 283.133 213.255 283.64V288.32C213.255 288.827 213.135 289.2 212.895 289.44C212.681 289.653 212.321 289.76 211.815 289.76H200.775V292.84H208.575C209.081 292.84 209.441 292.96 209.655 293.2C209.895 293.413 210.015 293.773 210.015 294.28V298.56C210.015 299.067 209.895 299.44 209.655 299.68C209.441 299.893 209.081 300 208.575 300H200.775V303.44H211.815C212.321 303.44 212.681 303.56 212.895 303.8C213.135 304.013 213.255 304.373 213.255 304.88V309.56C213.255 310.067 213.135 310.44 212.895 310.68C212.681 310.893 212.321 311 211.815 311ZM227.027 289.4V294.52H230.027C230.72 294.52 231.187 294.347 231.427 294C231.667 293.627 231.787 293.173 231.787 292.64V291.28C231.787 290.747 231.667 290.307 231.427 289.96C231.187 289.587 230.72 289.4 230.027 289.4H227.027ZM225.587 311H219.427C218.92 311 218.547 310.893 218.307 310.68C218.093 310.44 217.987 310.067 217.987 309.56V283.64C217.987 283.133 218.093 282.773 218.307 282.56C218.547 282.32 218.92 282.2 219.427 282.2H232.747C235.733 282.2 237.787 282.827 238.907 284.08C240.053 285.307 240.627 286.907 240.627 288.88V290.72C240.627 291.84 240.453 292.8 240.107 293.6C239.787 294.373 239.213 294.933 238.387 295.28C239.827 295.44 240.987 296.027 241.867 297.04C242.773 298.053 243.227 299.4 243.227 301.08V309.56C243.227 310.067 243.107 310.44 242.867 310.68C242.653 310.893 242.293 311 241.787 311H235.587C235.08 311 234.707 310.893 234.467 310.68C234.253 310.44 234.147 310.067 234.147 309.56V303.44C234.147 302.853 234.027 302.427 233.787 302.16C233.573 301.867 233.187 301.72 232.627 301.72H227.027V309.56C227.027 310.067 226.907 310.44 226.667 310.68C226.453 310.893 226.093 311 225.587 311ZM258.153 290.6L256.273 296.68H262.553L260.673 290.6C260.566 290.36 260.446 290.187 260.313 290.08C260.206 289.973 260.073 289.92 259.913 289.92H258.913C258.753 289.92 258.606 289.973 258.473 290.08C258.366 290.187 258.26 290.36 258.153 290.6ZM255.873 309.56C255.873 310.067 255.753 310.44 255.513 310.68C255.3 310.893 254.94 311 254.433 311H248.553C248.046 311 247.673 310.893 247.433 310.68C247.22 310.44 247.113 310.067 247.113 309.56V299C247.113 298.2 247.233 297.28 247.473 296.24C247.74 295.2 248.14 293.987 248.673 292.6L252.153 283.52C252.313 283.067 252.553 282.733 252.873 282.52C253.22 282.307 253.66 282.2 254.193 282.2H264.953C265.46 282.2 265.873 282.307 266.193 282.52C266.54 282.733 266.793 283.067 266.953 283.52L270.433 292.6C270.966 293.987 271.353 295.2 271.593 296.24C271.86 297.28 271.993 298.2 271.993 299V309.56C271.993 310.067 271.873 310.44 271.633 310.68C271.42 310.893 271.06 311 270.553 311H264.513C263.98 311 263.58 310.893 263.313 310.68C263.073 310.44 262.953 310.067 262.953 309.56V303.96H255.873V309.56ZM297.292 311H277.452C276.945 311 276.572 310.893 276.332 310.68C276.119 310.44 276.012 310.067 276.012 309.56V304.2C276.012 303.693 276.092 303.253 276.252 302.88C276.412 302.48 276.665 302.093 277.012 301.72L286.732 289.92H278.172C277.665 289.92 277.292 289.813 277.052 289.6C276.839 289.36 276.732 288.987 276.732 288.48V283.64C276.732 283.133 276.839 282.773 277.052 282.56C277.292 282.32 277.665 282.2 278.172 282.2H296.572C297.079 282.2 297.439 282.32 297.652 282.56C297.892 282.773 298.012 283.133 298.012 283.64V289.6C298.012 290.133 297.932 290.6 297.772 291C297.612 291.373 297.359 291.747 297.012 292.12L287.732 303.36H297.292C297.799 303.36 298.159 303.48 298.372 303.72C298.612 303.933 298.732 304.293 298.732 304.8V309.56C298.732 310.067 298.612 310.44 298.372 310.68C298.159 310.893 297.799 311 297.292 311Z" fill="white"/>
<path d="M8 28C8 16.9543 16.9543 8 28 8H698C709.046 8 718 16.9543 718 28V58H8V28Z" fill="#2D2D2D"/>
<rect x="670" y="10" width="45" height="45" rx="20" fill="#FF0000"/>
<path d="M682 22L703 43" stroke="black" stroke-width="4" stroke-linecap="round"/>
<path d="M703 22L682 43" stroke="black" stroke-width="4" stroke-linecap="round"/>
<path d="M233.595 42H229.875C229.571 42 229.347 41.936 229.203 41.808C229.075 41.664 229.011 41.44 229.011 41.136V25.584C229.011 25.28 229.075 25.064 229.203 24.936C229.347 24.792 229.571 24.72 229.875 24.72H237.219C239.395 24.72 240.883 25.152 241.683 26.016C242.483 26.88 242.883 28.008 242.883 29.4V32.472C242.883 33.864 242.483 34.992 241.683 35.856C240.883 36.72 239.395 37.152 237.219 37.152H234.459V41.136C234.459 41.44 234.387 41.664 234.243 41.808C234.115 41.936 233.899 42 233.595 42ZM234.411 29.208V32.832H236.571C237.035 32.832 237.339 32.712 237.483 32.472C237.627 32.232 237.699 31.96 237.699 31.656V30.384C237.699 30.08 237.627 29.808 237.483 29.568C237.339 29.328 237.035 29.208 236.571 29.208H234.411ZM260.011 37.464C260.011 38.2 259.899 38.872 259.675 39.48C259.467 40.072 259.083 40.584 258.523 41.016C257.979 41.432 257.219 41.76 256.243 42C255.283 42.24 254.059 42.36 252.571 42.36C251.083 42.36 249.851 42.24 248.875 42C247.899 41.76 247.131 41.432 246.571 41.016C246.027 40.584 245.643 40.072 245.419 39.48C245.211 38.872 245.107 38.2 245.107 37.464V29.28C245.107 28.544 245.211 27.88 245.419 27.288C245.643 26.68 246.027 26.16 246.571 25.728C247.131 25.296 247.899 24.96 248.875 24.72C249.851 24.48 251.083 24.36 252.571 24.36C254.059 24.36 255.283 24.48 256.243 24.72C257.219 24.96 257.979 25.296 258.523 25.728C259.083 26.16 259.467 26.68 259.675 27.288C259.899 27.88 260.011 28.544 260.011 29.28V37.464ZM250.555 36.6C250.555 36.92 250.675 37.192 250.915 37.416C251.155 37.624 251.707 37.728 252.571 37.728C253.435 37.728 253.987 37.624 254.227 37.416C254.467 37.192 254.587 36.92 254.587 36.6V30.144C254.587 29.84 254.467 29.584 254.227 29.376C253.987 29.152 253.435 29.04 252.571 29.04C251.707 29.04 251.155 29.152 250.915 29.376C250.675 29.584 250.555 29.84 250.555 30.144V36.6ZM267.65 42H263.93C263.626 42 263.402 41.936 263.258 41.808C263.13 41.664 263.066 41.44 263.066 41.136V25.584C263.066 25.28 263.13 25.064 263.258 24.936C263.402 24.792 263.626 24.72 263.93 24.72H271.274C273.45 24.72 274.938 25.152 275.738 26.016C276.538 26.88 276.938 28.008 276.938 29.4V32.472C276.938 33.864 276.538 34.992 275.738 35.856C274.938 36.72 273.45 37.152 271.274 37.152H268.514V41.136C268.514 41.44 268.442 41.664 268.298 41.808C268.17 41.936 267.954 42 267.65 42ZM268.466 29.208V32.832H270.626C271.09 32.832 271.394 32.712 271.538 32.472C271.682 32.232 271.754 31.96 271.754 31.656V30.384C271.754 30.08 271.682 29.808 271.538 29.568C271.394 29.328 271.09 29.208 270.626 29.208H268.466ZM279.594 35.832C279.29 35.832 279.066 35.768 278.922 35.64C278.794 35.496 278.73 35.272 278.73 34.968V31.752C278.73 31.448 278.794 31.232 278.922 31.104C279.066 30.96 279.29 30.888 279.594 30.888H286.026C286.33 30.888 286.546 30.96 286.674 31.104C286.818 31.232 286.89 31.448 286.89 31.752V34.968C286.89 35.272 286.818 35.496 286.674 35.64C286.546 35.768 286.33 35.832 286.026 35.832H279.594ZM304.216 37.464C304.216 38.2 304.104 38.872 303.88 39.48C303.672 40.072 303.288 40.584 302.728 41.016C302.184 41.432 301.432 41.76 300.472 42C299.512 42.24 298.288 42.36 296.8 42.36C295.312 42.36 294.088 42.24 293.128 42C292.168 41.76 291.408 41.432 290.848 41.016C290.304 40.584 289.92 40.072 289.696 39.48C289.488 38.872 289.384 38.2 289.384 37.464V25.584C289.384 25.28 289.448 25.064 289.576 24.936C289.72 24.792 289.944 24.72 290.248 24.72H294.016C294.32 24.72 294.536 24.792 294.664 24.936C294.808 25.064 294.88 25.28 294.88 25.584V36.528C294.88 36.848 295 37.12 295.24 37.344C295.48 37.552 296.016 37.656 296.848 37.656C297.696 37.656 298.24 37.552 298.48 37.344C298.72 37.12 298.84 36.848 298.84 36.528V25.584C298.84 25.28 298.904 25.064 299.032 24.936C299.176 24.792 299.4 24.72 299.704 24.72H303.352C303.656 24.72 303.872 24.792 304 24.936C304.144 25.064 304.216 25.28 304.216 25.584V37.464ZM311.994 42H308.274C307.97 42 307.746 41.936 307.602 41.808C307.474 41.664 307.41 41.44 307.41 41.136V25.584C307.41 25.28 307.474 25.064 307.602 24.936C307.746 24.792 307.97 24.72 308.274 24.72H315.618C317.794 24.72 319.282 25.152 320.082 26.016C320.882 26.88 321.282 28.008 321.282 29.4V32.472C321.282 33.864 320.882 34.992 320.082 35.856C319.282 36.72 317.794 37.152 315.618 37.152H312.858V41.136C312.858 41.44 312.786 41.664 312.642 41.808C312.514 41.936 312.298 42 311.994 42ZM312.81 29.208V32.832H314.97C315.434 32.832 315.738 32.712 315.882 32.472C316.026 32.232 316.098 31.96 316.098 31.656V30.384C316.098 30.08 316.026 29.808 315.882 29.568C315.738 29.328 315.434 29.208 314.97 29.208H312.81ZM329.145 42H324.297C323.993 42 323.769 41.936 323.625 41.808C323.497 41.664 323.433 41.44 323.433 41.136V36.264C323.433 35.96 323.497 35.744 323.625 35.616C323.769 35.472 323.993 35.4 324.297 35.4H329.145C329.449 35.4 329.665 35.472 329.793 35.616C329.937 35.744 330.009 35.96 330.009 36.264V41.136C330.009 41.44 329.937 41.664 329.793 41.808C329.665 41.936 329.449 42 329.145 42ZM329.145 33.48H324.297C323.993 33.48 323.769 33.416 323.625 33.288C323.497 33.144 323.433 32.92 323.433 32.616V27.744C323.433 27.44 323.497 27.224 323.625 27.096C323.769 26.952 323.993 26.88 324.297 26.88H329.145C329.449 26.88 329.665 26.952 329.793 27.096C329.937 27.224 330.009 27.44 330.009 27.744V32.616C330.009 32.92 329.937 33.144 329.793 33.288C329.665 33.416 329.449 33.48 329.145 33.48ZM342.955 42H339.235C338.931 42 338.707 41.936 338.563 41.808C338.435 41.664 338.371 41.44 338.371 41.136V25.584C338.371 25.28 338.435 25.064 338.563 24.936C338.707 24.792 338.931 24.72 339.235 24.72H346.579C348.755 24.72 350.243 25.152 351.043 26.016C351.843 26.88 352.243 28.008 352.243 29.4V32.472C352.243 33.864 351.843 34.992 351.043 35.856C350.243 36.72 348.755 37.152 346.579 37.152H343.819V41.136C343.819 41.44 343.747 41.664 343.603 41.808C343.475 41.936 343.259 42 342.955 42ZM343.771 29.208V32.832H345.931C346.395 32.832 346.699 32.712 346.843 32.472C346.987 32.232 347.059 31.96 347.059 31.656V30.384C347.059 30.08 346.987 29.808 346.843 29.568C346.699 29.328 346.395 29.208 345.931 29.208H343.771ZM355.21 42C354.906 42 354.682 41.936 354.538 41.808C354.41 41.664 354.346 41.44 354.346 41.136V38.28C354.346 37.976 354.41 37.76 354.538 37.632C354.682 37.488 354.906 37.416 355.21 37.416H357.586V29.352H355.21C354.906 29.352 354.682 29.288 354.538 29.16C354.41 29.016 354.346 28.792 354.346 28.488V25.584C354.346 25.28 354.41 25.064 354.538 24.936C354.682 24.792 354.906 24.72 355.21 24.72H365.434C365.738 24.72 365.954 24.792 366.082 24.936C366.226 25.064 366.298 25.28 366.298 25.584V28.488C366.298 28.792 366.226 29.016 366.082 29.16C365.954 29.288 365.738 29.352 365.434 29.352H363.106V37.416H365.434C365.738 37.416 365.954 37.488 366.082 37.632C366.226 37.76 366.298 37.976 366.298 38.28V41.136C366.298 41.44 366.226 41.664 366.082 41.808C365.954 41.936 365.738 42 365.434 42H355.21ZM381.261 42H370.125C369.821 42 369.597 41.936 369.453 41.808C369.325 41.664 369.261 41.44 369.261 41.136V25.584C369.261 25.28 369.325 25.064 369.453 24.936C369.597 24.792 369.821 24.72 370.125 24.72H381.261C381.565 24.72 381.781 24.792 381.909 24.936C382.053 25.064 382.125 25.28 382.125 25.584V28.392C382.125 28.696 382.053 28.92 381.909 29.064C381.781 29.192 381.565 29.256 381.261 29.256H374.637V31.104H379.317C379.621 31.104 379.837 31.176 379.965 31.32C380.109 31.448 380.181 31.664 380.181 31.968V34.536C380.181 34.84 380.109 35.064 379.965 35.208C379.837 35.336 379.621 35.4 379.317 35.4H374.637V37.464H381.261C381.565 37.464 381.781 37.536 381.909 37.68C382.053 37.808 382.125 38.024 382.125 38.328V41.136C382.125 41.44 382.053 41.664 381.909 41.808C381.781 41.936 381.565 42 381.261 42ZM389.549 42H385.829C385.525 42 385.301 41.936 385.157 41.808C385.029 41.664 384.965 41.44 384.965 41.136V25.584C384.965 25.28 385.029 25.064 385.157 24.936C385.301 24.792 385.525 24.72 385.829 24.72H389.549C389.853 24.72 390.069 24.792 390.197 24.936C390.341 25.064 390.413 25.28 390.413 25.584V31.104H391.373L393.845 25.512C393.957 25.224 394.109 25.024 394.301 24.912C394.493 24.784 394.741 24.72 395.045 24.72H398.741C399.013 24.72 399.197 24.792 399.293 24.936C399.389 25.064 399.381 25.256 399.269 25.512L396.821 31.104C397.717 31.152 398.429 31.472 398.957 32.064C399.501 32.64 399.773 33.408 399.773 34.368V41.136C399.773 41.44 399.701 41.664 399.557 41.808C399.429 41.936 399.213 42 398.909 42H395.213C394.909 42 394.685 41.936 394.541 41.808C394.413 41.664 394.349 41.44 394.349 41.136V36.456C394.349 36.2 394.285 36 394.157 35.856C394.029 35.712 393.837 35.64 393.581 35.64H390.413V41.136C390.413 41.44 390.341 41.664 390.197 41.808C390.069 41.936 389.853 42 389.549 42ZM403.351 42C403.047 42 402.823 41.936 402.679 41.808C402.551 41.664 402.487 41.44 402.487 41.136V38.28C402.487 37.976 402.551 37.76 402.679 37.632C402.823 37.488 403.047 37.416 403.351 37.416H405.727V29.352H403.351C403.047 29.352 402.823 29.288 402.679 29.16C402.551 29.016 402.487 28.792 402.487 28.488V25.584C402.487 25.28 402.551 25.064 402.679 24.936C402.823 24.792 403.047 24.72 403.351 24.72H413.575C413.879 24.72 414.095 24.792 414.223 24.936C414.367 25.064 414.439 25.28 414.439 25.584V28.488C414.439 28.792 414.367 29.016 414.223 29.16C414.095 29.288 413.879 29.352 413.575 29.352H411.247V37.416H413.575C413.879 37.416 414.095 37.488 414.223 37.632C414.367 37.76 414.439 37.976 414.439 38.28V41.136C414.439 41.44 414.367 41.664 414.223 41.808C414.095 41.936 413.879 42 413.575 42H403.351ZM429.402 42H418.266C417.962 42 417.738 41.936 417.594 41.808C417.466 41.664 417.402 41.44 417.402 41.136V25.584C417.402 25.28 417.466 25.064 417.594 24.936C417.738 24.792 417.962 24.72 418.266 24.72H429.402C429.706 24.72 429.922 24.792 430.05 24.936C430.194 25.064 430.266 25.28 430.266 25.584V28.392C430.266 28.696 430.194 28.92 430.05 29.064C429.922 29.192 429.706 29.256 429.402 29.256H422.778V31.104H427.458C427.762 31.104 427.978 31.176 428.106 31.32C428.25 31.448 428.322 31.664 428.322 31.968V34.536C428.322 34.84 428.25 35.064 428.106 35.208C427.978 35.336 427.762 35.4 427.458 35.4H422.778V37.464H429.402C429.706 37.464 429.922 37.536 430.05 37.68C430.194 37.808 430.266 38.024 430.266 38.328V41.136C430.266 41.44 430.194 41.664 430.05 41.808C429.922 41.936 429.706 42 429.402 42ZM446.185 42H433.969C433.665 42 433.441 41.936 433.297 41.808C433.169 41.664 433.105 41.44 433.105 41.136V25.584C433.105 25.28 433.169 25.064 433.297 24.936C433.441 24.792 433.665 24.72 433.969 24.72H437.689C437.993 24.72 438.209 24.792 438.337 24.936C438.481 25.064 438.553 25.28 438.553 25.584V37.464H441.841V33.576C441.841 33.272 441.905 33.056 442.033 32.928C442.177 32.784 442.401 32.712 442.705 32.712H446.185C446.489 32.712 446.705 32.784 446.833 32.928C446.977 33.056 447.049 33.272 447.049 33.576V41.136C447.049 41.44 446.977 41.664 446.833 41.808C446.705 41.936 446.489 42 446.185 42ZM454.257 42H450.657C450.353 42 450.129 41.936 449.985 41.808C449.857 41.664 449.793 41.44 449.793 41.136V25.584C449.793 25.28 449.857 25.064 449.985 24.936C450.129 24.792 450.353 24.72 450.657 24.72H453.153C453.457 24.72 453.713 24.768 453.921 24.864C454.145 24.96 454.361 25.128 454.569 25.368L459.225 30.696V25.584C459.225 25.28 459.289 25.064 459.417 24.936C459.561 24.792 459.785 24.72 460.089 24.72H463.689C463.993 24.72 464.209 24.792 464.337 24.936C464.481 25.064 464.553 25.28 464.553 25.584V41.136C464.553 41.44 464.481 41.664 464.337 41.808C464.209 41.936 463.993 42 463.689 42H460.089C459.785 42 459.561 41.936 459.417 41.808C459.289 41.664 459.225 41.44 459.225 41.136V38.184L455.121 33.216V41.136C455.121 41.44 455.049 41.664 454.905 41.808C454.777 41.936 454.561 42 454.257 42ZM468.343 42C468.039 42 467.815 41.936 467.671 41.808C467.543 41.664 467.479 41.44 467.479 41.136V38.28C467.479 37.976 467.543 37.76 467.671 37.632C467.815 37.488 468.039 37.416 468.343 37.416H470.719V29.352H468.343C468.039 29.352 467.815 29.288 467.671 29.16C467.543 29.016 467.479 28.792 467.479 28.488V25.584C467.479 25.28 467.543 25.064 467.671 24.936C467.815 24.792 468.039 24.72 468.343 24.72H478.567C478.871 24.72 479.087 24.792 479.215 24.936C479.359 25.064 479.431 25.28 479.431 25.584V28.488C479.431 28.792 479.359 29.016 479.215 29.16C479.087 29.288 478.871 29.352 478.567 29.352H476.239V37.416H478.567C478.871 37.416 479.087 37.488 479.215 37.632C479.359 37.76 479.431 37.976 479.431 38.28V41.136C479.431 41.44 479.359 41.664 479.215 41.808C479.087 41.936 478.871 42 478.567 42H468.343ZM486.978 42H483.258C482.954 42 482.73 41.936 482.586 41.808C482.458 41.664 482.394 41.44 482.394 41.136V25.584C482.394 25.28 482.458 25.064 482.586 24.936C482.73 24.792 482.954 24.72 483.258 24.72H486.978C487.282 24.72 487.498 24.792 487.626 24.936C487.77 25.064 487.842 25.28 487.842 25.584V31.104H488.802L491.274 25.512C491.386 25.224 491.538 25.024 491.73 24.912C491.922 24.784 492.17 24.72 492.474 24.72H496.17C496.442 24.72 496.626 24.792 496.722 24.936C496.818 25.064 496.81 25.256 496.698 25.512L494.25 31.104C495.146 31.152 495.858 31.472 496.386 32.064C496.93 32.64 497.202 33.408 497.202 34.368V41.136C497.202 41.44 497.13 41.664 496.986 41.808C496.858 41.936 496.642 42 496.338 42H492.642C492.338 42 492.114 41.936 491.97 41.808C491.842 41.664 491.778 41.44 491.778 41.136V36.456C491.778 36.2 491.714 36 491.586 35.856C491.458 35.712 491.266 35.64 491.01 35.64H487.842V41.136C487.842 41.44 487.77 41.664 487.626 41.808C487.498 41.936 487.282 42 486.978 42Z" fill="white"/>
<path d="M628.98 108.288C628.473 108.033 627.899 107.944 627.339 108.035C626.778 108.125 626.261 108.391 625.861 108.794C625.462 109.196 625.2 109.715 625.113 110.275C625.026 110.835 625.119 111.409 625.379 111.913C629.301 119.061 630.998 127.218 630.251 135.336C629.504 143.454 626.348 151.164 621.187 157.478C617.558 154.863 613.646 152.666 609.524 150.927C579.722 138.173 552.581 161.774 529.793 187.524C506.978 161.774 479.836 138.173 450.142 150.927C446.604 152.443 443.221 154.295 440.038 156.458C435.205 150.164 432.309 142.602 431.703 134.692C431.097 126.783 432.807 118.868 436.625 111.913C436.884 111.409 436.978 110.835 436.891 110.275C436.804 109.715 436.542 109.196 436.142 108.794C435.743 108.391 435.226 108.125 434.665 108.035C434.105 107.944 433.531 108.033 433.024 108.288C425.423 112.182 418.794 117.731 413.626 124.526C408.458 131.322 404.883 139.19 403.166 147.55C401.448 155.911 401.631 164.55 403.701 172.83C405.771 181.11 409.676 188.82 415.127 195.391C411.795 214.777 417.035 236.526 430.256 257.604C434.57 264.443 439.46 270.902 444.875 276.909C433.454 280.561 417.76 288.616 414.509 305.881C413.314 310.885 413.589 316.128 415.3 320.98C417.011 325.833 420.086 330.09 424.156 333.241C430.423 337.789 438.019 340.14 445.762 339.927C454.779 339.741 463.64 337.539 471.694 333.483C480.859 328.694 488.958 322.099 495.503 314.097C506.223 319.039 517.907 321.543 529.712 321.427C530.518 321.454 531.324 321.481 532.104 321.481C544.768 321.099 557.195 317.955 568.516 312.271C578.755 320.246 591.331 329.294 612.211 329.294C613.044 329.294 613.877 329.294 614.737 329.241L615.221 334.906C615.315 336.1 615.731 337.246 616.426 338.222C617.121 339.198 618.068 339.967 619.167 340.446C620.265 340.926 621.473 341.099 622.662 340.946C623.851 340.793 624.976 340.32 625.916 339.578L649 321.588C649.877 320.914 650.57 320.031 651.016 319.02C651.463 318.009 651.647 316.902 651.554 315.8C651.46 314.699 651.091 313.639 650.481 312.717C649.87 311.796 649.038 311.042 648.06 310.526L622.262 296.698C621.208 296.129 620.019 295.856 618.822 295.908C617.625 295.96 616.465 296.335 615.464 296.993C614.464 297.651 613.66 298.568 613.14 299.646C612.619 300.724 612.4 301.923 612.507 303.115L613.286 312.191C602.995 312.624 592.884 309.399 584.747 303.088C602.656 291.216 617.871 275.72 629.41 257.604C642.121 237.358 647.468 216.469 644.915 197.646C650.872 191.182 655.252 183.43 657.716 174.995C660.179 166.561 660.658 157.671 659.115 149.021C657.572 140.37 654.05 132.193 648.823 125.128C643.595 118.062 636.804 112.299 628.98 108.288ZM409.913 175.012C406.516 164.666 406.488 153.51 409.834 143.147C413.18 132.784 419.728 123.748 428.536 117.337C426.141 124.435 425.538 132.014 426.781 139.401C428.023 146.788 431.072 153.754 435.658 159.68C426.883 166.797 420.42 176.357 417.088 187.148C416.954 187.631 416.793 188.088 416.685 188.571C413.768 184.411 411.486 179.842 409.913 175.012ZM529.712 316.057C519.257 316.184 508.895 314.078 499.319 309.881C506.843 301.719 514.072 295.543 531.298 295.892C545.863 296 554.516 301.558 563.599 308.485C553.026 313.55 541.437 316.14 529.712 316.057ZM617.855 302.659C617.832 302.429 617.873 302.198 617.972 301.99C618.072 301.781 618.226 301.604 618.419 301.477C618.627 301.342 618.869 301.268 619.118 301.262C619.325 301.269 619.527 301.324 619.709 301.424L645.533 315.252C645.72 315.345 645.877 315.486 645.991 315.661C646.104 315.836 646.169 316.037 646.178 316.245C646.205 316.459 646.173 316.676 646.089 316.874C646.004 317.072 645.868 317.244 645.695 317.373L622.611 335.363C622.429 335.499 622.214 335.586 621.988 335.614C621.761 335.643 621.532 335.611 621.321 335.524C621.112 335.434 620.931 335.289 620.799 335.105C620.666 334.92 620.587 334.703 620.569 334.476V334.45L620.085 328.892L619.628 323.521L619.091 317.212L618.634 311.842L617.855 302.659ZM613.743 317.561L614.281 323.871C595.255 324.488 583.726 317.131 573.837 309.586C572.655 308.7 571.499 307.787 570.344 306.901C570.344 306.874 570.129 306.713 570.129 306.713C569.779 306.445 569.43 306.176 569.081 305.881H569.054C559.218 298.255 548.819 290.683 531.351 290.522H530.384C510.525 290.522 502.194 298.685 494.133 307.626C493.703 308.082 493.273 308.539 492.87 308.995C492.628 309.264 492.386 309.532 492.144 309.774C491.553 310.418 490.962 311.09 490.37 311.734C484.581 318.733 477.432 324.487 469.356 328.65C453.608 336.249 437.109 336.383 427.408 328.972C424.152 326.411 421.702 322.969 420.349 319.056C418.996 315.143 418.797 310.924 419.776 306.901C422.759 291.086 438.694 284.159 448.96 281.313C450.357 282.789 451.862 284.266 453.42 285.716C453.689 286.011 453.985 286.28 454.28 286.548C450.669 287.312 447.135 288.399 443.719 289.797C433.615 293.986 427.488 300.296 426.01 308.056C424.371 316.621 427.972 321.427 431.277 323.924C437.7 328.865 451.109 330.449 466.588 322.931C473.451 319.414 479.551 314.578 484.539 308.7C484.996 308.19 485.453 307.707 485.91 307.196C486.178 306.928 486.42 306.633 486.689 306.364C486.904 306.096 487.146 305.854 487.468 305.478L488.221 304.646C497.841 294.013 507.327 284.159 530.599 284.159C530.859 284.144 531.12 284.153 531.378 284.186C551.721 284.374 563.572 293.61 574.052 301.746L575.127 302.578L575.154 302.605C576.229 303.41 577.25 304.243 578.298 305.021C578.809 305.397 579.319 305.773 579.83 306.176C588.563 312.593 598.076 318.044 613.743 317.561ZM479.783 305.934C475.437 310.95 470.163 315.08 464.25 318.098C450.894 324.595 439.5 323.468 434.529 319.655C431.439 317.319 430.39 313.828 431.304 309.049C432.433 303.088 437.297 298.255 445.789 294.765C450.037 293.045 454.475 291.837 459.01 291.167C459.129 291.156 459.247 291.128 459.359 291.086C465.741 296.596 472.572 301.563 479.783 305.934ZM624.841 254.757C613.317 272.747 598.036 288.035 580.045 299.571C579.507 299.195 578.97 298.765 578.459 298.363L577.357 297.503C566.205 288.831 553.575 279.03 531.701 278.815C531.351 278.789 531.002 278.789 530.599 278.789C504.317 278.789 493.246 291.059 483.464 301.907L483.437 301.934C475.015 296.891 467.119 291.017 459.87 284.4C458.902 283.541 457.962 282.655 457.021 281.742C456.081 280.829 455.14 279.943 454.253 279.03C453.394 278.171 452.56 277.312 451.754 276.453C445.409 269.796 439.738 262.529 434.824 254.757C423.269 236.338 418.11 217.462 419.829 200.439C420.063 198.228 420.422 196.031 420.904 193.861C421.254 192.115 421.711 190.424 422.221 188.732C425.244 178.963 431.086 170.304 439.017 163.842C440.429 162.693 441.9 161.617 443.424 160.62C446.224 158.778 449.183 157.187 452.265 155.867C456.882 153.841 461.868 152.79 466.91 152.779C488.946 152.779 509.746 172.729 527.75 193.35C528.012 193.624 528.327 193.842 528.676 193.991C529.025 194.14 529.4 194.216 529.779 194.216C530.158 194.216 530.534 194.14 530.882 193.991C531.231 193.842 531.546 193.624 531.808 193.35C553.763 168.192 579.91 144.08 607.428 155.867C611.041 157.408 614.482 159.325 617.693 161.586C619.19 162.622 620.626 163.742 621.993 164.943C629.257 171.261 634.609 179.482 637.445 188.678C638.175 191.039 638.759 193.442 639.192 195.874C639.571 198.025 639.84 200.194 639.998 202.372C641.153 218.885 635.994 237.009 624.841 254.757ZM652.09 175.012C650.222 180.764 647.357 186.145 643.626 190.907C643.33 189.618 642.981 188.329 642.577 187.067C640.087 179.041 635.858 171.661 630.189 165.453C628.716 163.829 627.146 162.295 625.486 160.861C630.403 154.879 633.716 147.745 635.112 140.131C636.508 132.516 635.942 124.672 633.468 117.337C642.276 123.748 648.824 132.784 652.17 143.147C655.516 153.51 655.488 164.666 652.09 175.012Z" fill="white" stroke="white" stroke-width="2"/>
</svg>
