<svg width="726" height="400" viewBox="0 0 726 400" fill="none" xmlns="http://www.w3.org/2000/svg">
<path d="M698 4C711.255 4 722 14.7452 722 28V372C722 385.255 711.255 396 698 396H28C14.7452 396 4 385.255 4 372V28C4 14.7452 14.7452 4 28 4H698Z" fill="#373737" stroke="black" stroke-width="8"/>
<path d="M8 28C8 16.9543 16.9543 8 28 8H698C709.046 8 718 16.9543 718 28V58H8V28Z" fill="#2D2D2D"/>
<rect x="670" y="10" width="45" height="45" rx="20" fill="#FF0000"/>
<path d="M682 22L703 43" stroke="black" stroke-width="4" stroke-linecap="round"/>
<path d="M703 22L682 43" stroke="black" stroke-width="4" stroke-linecap="round"/>
<path d="M231.392 42H227.672C227.368 42 227.144 41.936 227 41.808C226.872 41.664 226.808 41.44 226.808 41.136V25.584C226.808 25.28 226.872 25.064 227 24.936C227.144 24.792 227.368 24.72 227.672 24.72H235.016C237.192 24.72 238.68 25.152 239.48 26.016C240.28 26.88 240.68 28.008 240.68 29.4V32.472C240.68 33.864 240.28 34.992 239.48 35.856C238.68 36.72 237.192 37.152 235.016 37.152H232.256V41.136C232.256 41.44 232.184 41.664 232.04 41.808C231.912 41.936 231.696 42 231.392 42ZM232.208 29.208V32.832H234.368C234.832 32.832 235.136 32.712 235.28 32.472C235.424 32.232 235.496 31.96 235.496 31.656V30.384C235.496 30.08 235.424 29.808 235.28 29.568C235.136 29.328 234.832 29.208 234.368 29.208H232.208ZM257.808 37.464C257.808 38.2 257.696 38.872 257.472 39.48C257.264 40.072 256.88 40.584 256.32 41.016C255.776 41.432 255.016 41.76 254.04 42C253.08 42.24 251.856 42.36 250.368 42.36C248.88 42.36 247.648 42.24 246.672 42C245.696 41.76 244.928 41.432 244.368 41.016C243.824 40.584 243.44 40.072 243.216 39.48C243.008 38.872 242.904 38.2 242.904 37.464V29.28C242.904 28.544 243.008 27.88 243.216 27.288C243.44 26.68 243.824 26.16 244.368 25.728C244.928 25.296 245.696 24.96 246.672 24.72C247.648 24.48 248.88 24.36 250.368 24.36C251.856 24.36 253.08 24.48 254.04 24.72C255.016 24.96 255.776 25.296 256.32 25.728C256.88 26.16 257.264 26.68 257.472 27.288C257.696 27.88 257.808 28.544 257.808 29.28V37.464ZM248.352 36.6C248.352 36.92 248.472 37.192 248.712 37.416C248.952 37.624 249.504 37.728 250.368 37.728C251.232 37.728 251.784 37.624 252.024 37.416C252.264 37.192 252.384 36.92 252.384 36.6V30.144C252.384 29.84 252.264 29.584 252.024 29.376C251.784 29.152 251.232 29.04 250.368 29.04C249.504 29.04 248.952 29.152 248.712 29.376C248.472 29.584 248.352 29.84 248.352 30.144V36.6ZM265.447 42H261.727C261.423 42 261.199 41.936 261.055 41.808C260.927 41.664 260.863 41.44 260.863 41.136V25.584C260.863 25.28 260.927 25.064 261.055 24.936C261.199 24.792 261.423 24.72 261.727 24.72H269.071C271.247 24.72 272.735 25.152 273.535 26.016C274.335 26.88 274.735 28.008 274.735 29.4V32.472C274.735 33.864 274.335 34.992 273.535 35.856C272.735 36.72 271.247 37.152 269.071 37.152H266.311V41.136C266.311 41.44 266.239 41.664 266.095 41.808C265.967 41.936 265.751 42 265.447 42ZM266.263 29.208V32.832H268.423C268.887 32.832 269.191 32.712 269.335 32.472C269.479 32.232 269.551 31.96 269.551 31.656V30.384C269.551 30.08 269.479 29.808 269.335 29.568C269.191 29.328 268.887 29.208 268.423 29.208H266.263ZM277.39 35.832C277.086 35.832 276.862 35.768 276.718 35.64C276.59 35.496 276.526 35.272 276.526 34.968V31.752C276.526 31.448 276.59 31.232 276.718 31.104C276.862 30.96 277.086 30.888 277.39 30.888H283.822C284.126 30.888 284.342 30.96 284.47 31.104C284.614 31.232 284.686 31.448 284.686 31.752V34.968C284.686 35.272 284.614 35.496 284.47 35.64C284.342 35.768 284.126 35.832 283.822 35.832H277.39ZM302.013 37.464C302.013 38.2 301.901 38.872 301.677 39.48C301.469 40.072 301.085 40.584 300.525 41.016C299.981 41.432 299.229 41.76 298.269 42C297.309 42.24 296.085 42.36 294.597 42.36C293.109 42.36 291.885 42.24 290.925 42C289.965 41.76 289.205 41.432 288.645 41.016C288.101 40.584 287.717 40.072 287.493 39.48C287.285 38.872 287.181 38.2 287.181 37.464V25.584C287.181 25.28 287.245 25.064 287.373 24.936C287.517 24.792 287.741 24.72 288.045 24.72H291.813C292.117 24.72 292.333 24.792 292.461 24.936C292.605 25.064 292.677 25.28 292.677 25.584V36.528C292.677 36.848 292.797 37.12 293.037 37.344C293.277 37.552 293.813 37.656 294.645 37.656C295.493 37.656 296.037 37.552 296.277 37.344C296.517 37.12 296.637 36.848 296.637 36.528V25.584C296.637 25.28 296.701 25.064 296.829 24.936C296.973 24.792 297.197 24.72 297.501 24.72H301.149C301.453 24.72 301.669 24.792 301.797 24.936C301.941 25.064 302.013 25.28 302.013 25.584V37.464ZM309.791 42H306.071C305.767 42 305.543 41.936 305.399 41.808C305.271 41.664 305.207 41.44 305.207 41.136V25.584C305.207 25.28 305.271 25.064 305.399 24.936C305.543 24.792 305.767 24.72 306.071 24.72H313.415C315.591 24.72 317.079 25.152 317.879 26.016C318.679 26.88 319.079 28.008 319.079 29.4V32.472C319.079 33.864 318.679 34.992 317.879 35.856C317.079 36.72 315.591 37.152 313.415 37.152H310.655V41.136C310.655 41.44 310.583 41.664 310.439 41.808C310.311 41.936 310.095 42 309.791 42ZM310.607 29.208V32.832H312.767C313.231 32.832 313.535 32.712 313.679 32.472C313.823 32.232 313.895 31.96 313.895 31.656V30.384C313.895 30.08 313.823 29.808 313.679 29.568C313.535 29.328 313.231 29.208 312.767 29.208H310.607ZM326.942 42H322.094C321.79 42 321.566 41.936 321.422 41.808C321.294 41.664 321.23 41.44 321.23 41.136V36.264C321.23 35.96 321.294 35.744 321.422 35.616C321.566 35.472 321.79 35.4 322.094 35.4H326.942C327.246 35.4 327.462 35.472 327.59 35.616C327.734 35.744 327.806 35.96 327.806 36.264V41.136C327.806 41.44 327.734 41.664 327.59 41.808C327.462 41.936 327.246 42 326.942 42ZM326.942 33.48H322.094C321.79 33.48 321.566 33.416 321.422 33.288C321.294 33.144 321.23 32.92 321.23 32.616V27.744C321.23 27.44 321.294 27.224 321.422 27.096C321.566 26.952 321.79 26.88 322.094 26.88H326.942C327.246 26.88 327.462 26.952 327.59 27.096C327.734 27.224 327.806 27.44 327.806 27.744V32.616C327.806 32.92 327.734 33.144 327.59 33.288C327.462 33.416 327.246 33.48 326.942 33.48ZM340.752 42H337.032C336.728 42 336.504 41.936 336.36 41.808C336.232 41.664 336.168 41.44 336.168 41.136V25.584C336.168 25.28 336.232 25.064 336.36 24.936C336.504 24.792 336.728 24.72 337.032 24.72H340.752C341.056 24.72 341.272 24.792 341.4 24.936C341.544 25.064 341.616 25.28 341.616 25.584V31.104H342.576L345.048 25.512C345.16 25.224 345.312 25.024 345.504 24.912C345.696 24.784 345.944 24.72 346.248 24.72H349.944C350.216 24.72 350.4 24.792 350.496 24.936C350.592 25.064 350.584 25.256 350.472 25.512L348.024 31.104C348.92 31.152 349.632 31.472 350.16 32.064C350.704 32.64 350.976 33.408 350.976 34.368V41.136C350.976 41.44 350.904 41.664 350.76 41.808C350.632 41.936 350.416 42 350.112 42H346.416C346.112 42 345.888 41.936 345.744 41.808C345.616 41.664 345.552 41.44 345.552 41.136V36.456C345.552 36.2 345.488 36 345.36 35.856C345.232 35.712 345.04 35.64 344.784 35.64H341.616V41.136C341.616 41.44 341.544 41.664 341.4 41.808C341.272 41.936 341.056 42 340.752 42ZM360.338 29.76L359.21 33.408H362.978L361.85 29.76C361.786 29.616 361.714 29.512 361.634 29.448C361.57 29.384 361.49 29.352 361.394 29.352H360.794C360.698 29.352 360.61 29.384 360.53 29.448C360.466 29.512 360.402 29.616 360.338 29.76ZM358.97 41.136C358.97 41.44 358.898 41.664 358.754 41.808C358.626 41.936 358.41 42 358.106 42H354.578C354.274 42 354.05 41.936 353.906 41.808C353.778 41.664 353.714 41.44 353.714 41.136V34.8C353.714 34.32 353.786 33.768 353.93 33.144C354.09 32.52 354.33 31.792 354.65 30.96L356.738 25.512C356.834 25.24 356.978 25.04 357.17 24.912C357.378 24.784 357.642 24.72 357.962 24.72H364.418C364.722 24.72 364.97 24.784 365.162 24.912C365.37 25.04 365.522 25.24 365.618 25.512L367.706 30.96C368.026 31.792 368.258 32.52 368.402 33.144C368.562 33.768 368.642 34.32 368.642 34.8V41.136C368.642 41.44 368.57 41.664 368.426 41.808C368.298 41.936 368.082 42 367.778 42H364.154C363.834 42 363.594 41.936 363.434 41.808C363.29 41.664 363.218 41.44 363.218 41.136V37.776H358.97V41.136ZM376.069 42H372.469C372.165 42 371.941 41.936 371.797 41.808C371.669 41.664 371.605 41.44 371.605 41.136V25.584C371.605 25.28 371.669 25.064 371.797 24.936C371.941 24.792 372.165 24.72 372.469 24.72H374.965C375.269 24.72 375.525 24.768 375.733 24.864C375.957 24.96 376.173 25.128 376.381 25.368L381.037 30.696V25.584C381.037 25.28 381.101 25.064 381.229 24.936C381.373 24.792 381.597 24.72 381.901 24.72H385.501C385.805 24.72 386.021 24.792 386.149 24.936C386.293 25.064 386.365 25.28 386.365 25.584V41.136C386.365 41.44 386.293 41.664 386.149 41.808C386.021 41.936 385.805 42 385.501 42H381.901C381.597 42 381.373 41.936 381.229 41.808C381.101 41.664 381.037 41.44 381.037 41.136V38.184L376.933 33.216V41.136C376.933 41.44 376.861 41.664 376.717 41.808C376.589 41.936 376.373 42 376.069 42ZM395.94 29.76L394.812 33.408H398.58L397.452 29.76C397.388 29.616 397.316 29.512 397.236 29.448C397.172 29.384 397.092 29.352 396.996 29.352H396.396C396.3 29.352 396.212 29.384 396.132 29.448C396.068 29.512 396.004 29.616 395.94 29.76ZM394.572 41.136C394.572 41.44 394.5 41.664 394.356 41.808C394.228 41.936 394.012 42 393.708 42H390.18C389.876 42 389.652 41.936 389.508 41.808C389.38 41.664 389.316 41.44 389.316 41.136V34.8C389.316 34.32 389.388 33.768 389.532 33.144C389.692 32.52 389.932 31.792 390.252 30.96L392.34 25.512C392.436 25.24 392.58 25.04 392.772 24.912C392.98 24.784 393.244 24.72 393.564 24.72H400.02C400.324 24.72 400.572 24.784 400.764 24.912C400.972 25.04 401.124 25.24 401.22 25.512L403.308 30.96C403.628 31.792 403.86 32.52 404.004 33.144C404.164 33.768 404.244 34.32 404.244 34.8V41.136C404.244 41.44 404.172 41.664 404.028 41.808C403.9 41.936 403.684 42 403.38 42H399.756C399.436 42 399.196 41.936 399.036 41.808C398.892 41.664 398.82 41.44 398.82 41.136V37.776H394.572V41.136ZM411.791 42H408.071C407.767 42 407.543 41.936 407.399 41.808C407.271 41.664 407.207 41.44 407.207 41.136V25.584C407.207 25.28 407.271 25.064 407.399 24.936C407.543 24.792 407.767 24.72 408.071 24.72H415.415C417.591 24.72 419.079 25.152 419.879 26.016C420.679 26.88 421.079 28.008 421.079 29.4V32.472C421.079 33.864 420.679 34.992 419.879 35.856C419.079 36.72 417.591 37.152 415.415 37.152H412.655V41.136C412.655 41.44 412.583 41.664 412.439 41.808C412.311 41.936 412.095 42 411.791 42ZM412.607 29.208V32.832H414.767C415.231 32.832 415.535 32.712 415.679 32.472C415.823 32.232 415.895 31.96 415.895 31.656V30.384C415.895 30.08 415.823 29.808 415.679 29.568C415.535 29.328 415.231 29.208 414.767 29.208H412.607ZM435.566 42H424.43C424.126 42 423.902 41.936 423.758 41.808C423.63 41.664 423.566 41.44 423.566 41.136V25.584C423.566 25.28 423.63 25.064 423.758 24.936C423.902 24.792 424.126 24.72 424.43 24.72H435.566C435.87 24.72 436.086 24.792 436.214 24.936C436.358 25.064 436.43 25.28 436.43 25.584V28.392C436.43 28.696 436.358 28.92 436.214 29.064C436.086 29.192 435.87 29.256 435.566 29.256H428.942V31.104H433.622C433.926 31.104 434.142 31.176 434.27 31.32C434.414 31.448 434.486 31.664 434.486 31.968V34.536C434.486 34.84 434.414 35.064 434.27 35.208C434.142 35.336 433.926 35.4 433.622 35.4H428.942V37.464H435.566C435.87 37.464 436.086 37.536 436.214 37.68C436.358 37.808 436.43 38.024 436.43 38.328V41.136C436.43 41.44 436.358 41.664 436.214 41.808C436.086 41.936 435.87 42 435.566 42ZM450.648 42H444.792C442.792 42 441.304 41.6 440.328 40.8C439.368 40 438.888 38.768 438.888 37.104V29.64C438.888 27.976 439.368 26.744 440.328 25.944C441.304 25.128 442.792 24.72 444.792 24.72H450.648C450.952 24.72 451.168 24.792 451.296 24.936C451.44 25.064 451.512 25.28 451.512 25.584V28.488C451.512 28.792 451.44 29.016 451.296 29.16C451.168 29.288 450.952 29.352 450.648 29.352H445.824C445.328 29.352 444.96 29.456 444.72 29.664C444.48 29.856 444.36 30.152 444.36 30.552V36.264C444.36 36.664 444.48 36.96 444.72 37.152C444.96 37.328 445.328 37.416 445.824 37.416H450.648C450.952 37.416 451.168 37.488 451.296 37.632C451.44 37.76 451.512 37.976 451.512 38.28V41.136C451.512 41.44 451.44 41.664 451.296 41.808C451.168 41.936 450.952 42 450.648 42ZM466.438 42H454.534C454.23 42 454.006 41.936 453.862 41.808C453.734 41.664 453.67 41.44 453.67 41.136V37.92C453.67 37.616 453.718 37.352 453.814 37.128C453.91 36.888 454.062 36.656 454.27 36.432L460.102 29.352H454.966C454.662 29.352 454.438 29.288 454.294 29.16C454.166 29.016 454.102 28.792 454.102 28.488V25.584C454.102 25.28 454.166 25.064 454.294 24.936C454.438 24.792 454.662 24.72 454.966 24.72H466.006C466.31 24.72 466.526 24.792 466.654 24.936C466.798 25.064 466.87 25.28 466.87 25.584V29.16C466.87 29.48 466.822 29.76 466.726 30C466.63 30.224 466.478 30.448 466.27 30.672L460.702 37.416H466.438C466.742 37.416 466.958 37.488 467.086 37.632C467.23 37.76 467.302 37.976 467.302 38.28V41.136C467.302 41.44 467.23 41.664 467.086 41.808C466.958 41.936 466.742 42 466.438 42ZM474.65 42H470.93C470.626 42 470.402 41.936 470.258 41.808C470.13 41.664 470.066 41.44 470.066 41.136V25.584C470.066 25.28 470.13 25.064 470.258 24.936C470.402 24.792 470.626 24.72 470.93 24.72H474.65C474.954 24.72 475.17 24.792 475.298 24.936C475.442 25.064 475.514 25.28 475.514 25.584V31.104H476.474L478.946 25.512C479.058 25.224 479.21 25.024 479.402 24.912C479.594 24.784 479.842 24.72 480.146 24.72H483.842C484.114 24.72 484.298 24.792 484.394 24.936C484.49 25.064 484.482 25.256 484.37 25.512L481.922 31.104C482.818 31.152 483.53 31.472 484.058 32.064C484.602 32.64 484.874 33.408 484.874 34.368V41.136C484.874 41.44 484.802 41.664 484.658 41.808C484.53 41.936 484.314 42 484.01 42H480.314C480.01 42 479.786 41.936 479.642 41.808C479.514 41.664 479.45 41.44 479.45 41.136V36.456C479.45 36.2 479.386 36 479.258 35.856C479.13 35.712 478.938 35.64 478.682 35.64H475.514V41.136C475.514 41.44 475.442 41.664 475.298 41.808C475.17 41.936 474.954 42 474.65 42ZM488.452 42C488.148 42 487.924 41.936 487.78 41.808C487.652 41.664 487.588 41.44 487.588 41.136V38.28C487.588 37.976 487.652 37.76 487.78 37.632C487.924 37.488 488.148 37.416 488.452 37.416H490.828V29.352H488.452C488.148 29.352 487.924 29.288 487.78 29.16C487.652 29.016 487.588 28.792 487.588 28.488V25.584C487.588 25.28 487.652 25.064 487.78 24.936C487.924 24.792 488.148 24.72 488.452 24.72H498.676C498.98 24.72 499.196 24.792 499.324 24.936C499.468 25.064 499.54 25.28 499.54 25.584V28.488C499.54 28.792 499.468 29.016 499.324 29.16C499.196 29.288 498.98 29.352 498.676 29.352H496.348V37.416H498.676C498.98 37.416 499.196 37.488 499.324 37.632C499.468 37.76 499.54 37.976 499.54 38.28V41.136C499.54 41.44 499.468 41.664 499.324 41.808C499.196 41.936 498.98 42 498.676 42H488.452Z" fill="white"/>
<path d="M574.008 82.0021C572.273 81.9682 570.528 82.3413 568.932 83.161L401.093 166.802C395.95 169.349 394.449 174.399 395.17 178.535V195.072C395.17 198.573 396.197 201.814 397.872 204.623V233.907C397.872 234.984 398.075 236.018 398.375 237.016C396.311 240.45 395.17 244.345 395.17 248.398C395.17 257.316 400.478 264.996 408.088 268.515C405.73 269.598 403.55 271.088 401.661 272.975C397.476 277.163 395.17 282.737 395.17 288.664C395.17 296.139 398.917 302.731 404.603 306.751H404.171C399.207 306.751 395.17 310.787 395.17 315.75V329.218C395.17 339.576 403.595 348 413.955 348H642.012C652.372 348 660.797 339.576 660.797 329.218V315.75C660.797 310.787 656.752 306.751 651.788 306.751H651.428C652.439 306.032 653.411 305.239 654.306 304.345C658.491 300.161 660.797 294.594 660.797 288.664C660.797 279.745 655.489 272.058 647.879 268.539C650.236 267.455 652.416 265.967 654.306 264.079C658.491 259.895 660.797 254.328 660.797 248.398C660.797 244.345 659.656 240.45 657.591 237.016C657.892 236.019 658.095 234.983 658.095 233.907V204.639C659.772 201.827 660.797 198.579 660.797 195.072V177.121C661.458 173.256 660.496 169.432 658.023 166.786L581.85 85.4709C579.764 83.2554 576.9 82.0586 574.008 82.0021ZM573.808 86.0943C575.671 86.0943 577.525 86.8536 578.868 88.2762L655.033 169.584C656.806 171.479 657.168 174.181 656.736 176.585C656.588 177.396 656.326 178.22 655.977 179.007C655.923 179.126 655.85 179.219 655.793 179.335C655.496 179.941 655.143 180.516 654.73 181.037C653.945 182.01 653.014 182.738 651.98 183.139C651.916 183.163 651.853 183.189 651.788 183.211C651.229 183.405 650.653 183.524 650.053 183.531H406.018C402.872 183.501 400.927 181.88 399.926 179.982C399.892 179.915 399.878 179.849 399.846 179.782C399.573 179.223 399.366 178.646 399.247 178.08C398.722 175.621 399.35 172.234 402.908 170.471L570.778 86.8136C571.734 86.3261 572.769 86.0943 573.808 86.0943ZM569.803 106.755C569.168 106.769 568.519 106.822 567.853 106.923C566.738 107.087 565.966 108.13 566.134 109.248C566.302 110.363 567.333 111.135 568.46 110.967C572.217 110.407 574.939 111.638 576.998 114.843C577.389 115.451 578.045 115.778 578.716 115.778C579.096 115.778 579.484 115.678 579.827 115.459C580.779 114.847 581.055 113.58 580.443 112.629C577.893 108.668 574.247 106.657 569.803 106.755ZM538.595 121.485C534.965 121.437 531.737 122.982 529.123 126.057C528.391 126.92 528.495 128.211 529.354 128.942C529.742 129.27 530.214 129.43 530.681 129.43C531.261 129.43 531.837 129.186 532.24 128.71C534.706 125.809 537.552 124.942 541.217 126.001C542.32 126.316 543.436 125.685 543.751 124.602C544.063 123.515 543.436 122.38 542.352 122.068C541.061 121.698 539.805 121.501 538.595 121.485ZM598.717 141.338C598.083 141.353 597.432 141.412 596.766 141.514C595.647 141.682 594.88 142.721 595.048 143.84C595.216 144.963 596.287 145.746 597.374 145.558C601.119 144.991 603.849 146.222 605.911 149.427C606.303 150.034 606.959 150.37 607.63 150.37C608.01 150.37 608.397 150.262 608.741 150.042C609.692 149.431 609.968 148.164 609.357 147.213C606.804 143.251 603.156 141.234 598.717 141.338ZM477.906 145.295C475.582 145.34 473.276 146.12 471.047 147.62C470.108 148.256 469.86 149.523 470.496 150.458C470.888 151.045 471.535 151.361 472.191 151.361C472.586 151.361 472.982 151.249 473.334 151.009C476.495 148.887 479.473 148.839 482.71 150.833C483.658 151.425 484.929 151.137 485.524 150.17C486.12 149.211 485.824 147.948 484.861 147.357C482.571 145.938 480.23 145.249 477.906 145.295ZM550.954 150.162C548.634 150.309 546.363 151.187 544.199 152.792C543.292 153.463 543.1 154.742 543.775 155.653C544.175 156.192 544.791 156.476 545.414 156.476C545.838 156.476 546.269 156.348 546.637 156.076C549.695 153.811 552.668 153.623 555.99 155.485C556.965 156.029 558.216 155.681 558.772 154.694C559.323 153.711 558.976 152.468 557.988 151.912C555.642 150.598 553.273 150.015 550.954 150.162ZM441.582 163.366C440.95 163.409 440.299 163.498 439.64 163.629C438.528 163.845 437.813 164.928 438.033 166.035C438.253 167.142 439.352 167.865 440.431 167.642C444.172 166.914 446.934 168.013 449.144 171.118C449.54 171.678 450.168 171.974 450.807 171.974C451.219 171.974 451.638 171.854 451.998 171.598C452.917 170.946 453.133 169.664 452.478 168.745C449.75 164.902 446.007 163.061 441.582 163.366ZM500.537 168.729C498.217 168.875 495.938 169.752 493.774 171.358C492.867 172.029 492.675 173.312 493.35 174.219C493.75 174.759 494.373 175.043 494.997 175.043C495.421 175.043 495.844 174.915 496.212 174.643C499.27 172.373 502.239 172.177 505.565 174.044C506.544 174.583 507.799 174.247 508.355 173.26C508.906 172.277 508.551 171.026 507.563 170.471C505.217 169.16 502.856 168.582 500.537 168.729ZM587.478 168.729C585.157 168.878 582.885 169.756 580.723 171.358C579.815 172.029 579.624 173.312 580.299 174.219C580.699 174.759 581.314 175.043 581.938 175.043C582.362 175.043 582.793 174.915 583.161 174.643C586.215 172.373 589.188 172.177 592.514 174.044C593.493 174.583 594.74 174.247 595.296 173.26C595.847 172.277 595.499 171.026 594.512 170.471C592.166 169.154 589.798 168.579 587.478 168.729ZM656.704 184.953V195.072C656.704 198.032 655.806 200.78 654.298 203.088C654.165 203.295 654.008 203.481 653.866 203.68C653.47 204.225 653.053 204.753 652.587 205.238C652.487 205.344 652.386 205.448 652.284 205.55C651.661 206.162 650.992 206.727 650.269 207.22C650.232 207.245 650.194 207.268 650.157 207.292C649.436 207.775 648.666 208.197 647.863 208.547C647.801 208.574 647.741 208.601 647.679 208.627C646.888 208.959 646.063 209.213 645.209 209.402C645.048 209.438 644.884 209.468 644.721 209.498C643.853 209.66 642.965 209.762 642.051 209.762H413.955C413.044 209.762 412.159 209.658 411.293 209.498C411.12 209.466 410.946 209.432 410.774 209.394C409.948 209.211 409.143 208.968 408.376 208.651C408.228 208.59 408.089 208.517 407.944 208.451C407.274 208.149 406.63 207.8 406.018 207.404C405.891 207.322 405.758 207.25 405.634 207.164C404.957 206.698 404.327 206.169 403.739 205.598C403.601 205.463 403.473 205.316 403.34 205.174C402.87 204.681 402.443 204.154 402.045 203.6C401.932 203.443 401.808 203.299 401.701 203.136C400.171 200.818 399.263 198.051 399.263 195.072V185.473C399.548 185.693 399.875 185.872 400.19 186.064L400.198 186.072C400.691 186.372 401.213 186.635 401.773 186.856C401.824 186.876 401.873 186.9 401.925 186.919C402.422 187.106 402.947 187.245 403.492 187.359C403.616 187.386 403.732 187.425 403.859 187.447C404.374 187.536 404.916 187.567 405.466 187.583C405.609 187.588 405.736 187.623 405.882 187.623H406.05H406.058H650.061H650.085C650.658 187.617 651.218 187.554 651.772 187.447C651.99 187.406 652.198 187.335 652.411 187.279C652.713 187.199 653.014 187.116 653.307 187.007C653.591 186.902 653.865 186.779 654.138 186.648C654.352 186.545 654.562 186.438 654.77 186.32C655.071 186.149 655.363 185.963 655.649 185.761C655.785 185.664 655.916 185.56 656.049 185.457C656.266 185.287 656.497 185.141 656.704 184.953ZM401.965 209.522C402.245 209.756 402.567 209.929 402.86 210.146C403.22 210.411 403.576 210.673 403.955 210.913C404.577 211.307 405.226 211.642 405.89 211.96C406.273 212.144 406.644 212.337 407.041 212.495C407.778 212.788 408.538 213.009 409.311 213.207C409.676 213.3 410.025 213.423 410.398 213.494C411.56 213.718 412.745 213.854 413.955 213.854H642.051C643.28 213.854 644.473 213.715 645.649 213.486C645.936 213.43 646.205 213.332 646.488 213.263C647.352 213.053 648.204 212.807 649.022 212.479C649.348 212.348 649.649 212.181 649.965 212.032C650.708 211.684 651.426 211.308 652.116 210.865C652.412 210.674 652.694 210.472 652.979 210.266C653.315 210.021 653.682 209.821 654.002 209.554V233.907C654.002 234.977 653.738 235.978 653.291 236.88C653.22 237.022 653.147 237.161 653.067 237.296C652.885 237.603 652.675 237.892 652.443 238.167C652.345 238.284 652.254 238.409 652.148 238.519C651.794 238.883 651.401 239.223 650.957 239.51C650.505 239.802 650.028 240.024 649.534 240.197C649.418 240.238 649.299 240.259 649.182 240.293C648.778 240.411 648.367 240.493 647.951 240.533C647.847 240.543 647.743 240.552 647.639 240.557C647.221 240.578 646.801 240.558 646.384 240.501C646.256 240.483 646.128 240.471 646 240.445C645.489 240.346 644.977 240.2 644.49 239.982C643.259 239.422 642.127 238.819 640.996 238.207C636.847 235.973 632.559 233.66 624.041 233.66C622.98 233.66 621.982 233.696 621.044 233.763C618.229 233.966 615.934 234.448 613.945 235.09C612.619 235.518 611.434 236.022 610.316 236.553C609.198 237.083 608.148 237.641 607.11 238.199C606.14 238.721 605.183 239.24 604.177 239.718C602.164 240.674 599.953 241.481 597.038 241.916C595.581 242.133 593.947 242.259 592.074 242.259C584.56 242.259 580.891 240.289 576.998 238.199C572.841 235.969 568.536 233.66 560.027 233.66C558.963 233.66 557.969 233.696 557.029 233.763C556.089 233.831 555.208 233.934 554.375 234.059C549.381 234.812 546.181 236.527 543.064 238.199C542.091 238.722 541.131 239.231 540.122 239.71C538.104 240.667 535.883 241.481 532.96 241.916C531.498 242.133 529.858 242.259 527.979 242.259C520.521 242.259 516.864 240.289 512.991 238.207C508.834 235.969 504.542 233.66 496.02 233.66C494.952 233.66 493.95 233.696 493.006 233.763C492.063 233.831 491.18 233.933 490.345 234.059C485.334 234.813 482.125 236.532 479.001 238.207C478.031 238.729 477.074 239.24 476.068 239.718C474.054 240.673 471.843 241.482 468.929 241.916C467.472 242.133 465.843 242.259 463.973 242.259C456.459 242.259 452.781 240.289 448.888 238.199C444.732 235.969 440.435 233.66 431.926 233.66C423.396 233.66 419.079 235.977 414.915 238.215C413.784 238.823 412.656 239.426 411.429 239.982C410.943 240.202 410.437 240.354 409.927 240.453C409.805 240.478 409.682 240.484 409.559 240.501C409.157 240.556 408.754 240.583 408.352 240.565C408.226 240.56 408.101 240.546 407.976 240.533C407.557 240.491 407.143 240.407 406.737 240.285C406.641 240.256 406.544 240.239 406.449 240.205C405.953 240.032 405.472 239.81 405.018 239.518C404.569 239.229 404.176 238.887 403.819 238.519C403.722 238.418 403.639 238.306 403.547 238.199C403.307 237.917 403.087 237.62 402.9 237.304C402.815 237.162 402.742 237.013 402.668 236.865C402.226 235.966 401.965 234.97 401.965 233.907V209.522ZM431.926 237.752C439.408 237.752 443.073 239.718 446.954 241.804C451.119 244.038 455.431 246.352 463.973 246.352C465.037 246.352 466.03 246.315 466.971 246.248C469.791 246.045 472.091 245.562 474.085 244.921C476.744 244.066 478.857 242.927 480.936 241.812C484.829 239.722 488.506 237.752 496.02 237.752C503.51 237.752 507.176 239.722 511.057 241.812C512.094 242.369 513.136 242.937 514.254 243.466C517.608 245.056 521.612 246.352 527.979 246.352C529.047 246.352 530.05 246.315 530.993 246.248C533.823 246.045 536.133 245.555 538.132 244.913C540.797 244.056 542.916 242.921 544.998 241.804C548.879 239.718 552.545 237.752 560.027 237.752C567.509 237.752 571.182 239.718 575.063 241.804C579.228 244.038 583.533 246.352 592.074 246.352C593.139 246.352 594.139 246.315 595.08 246.248C601.668 245.775 605.416 243.762 609.053 241.804C612.926 239.722 616.579 237.752 624.041 237.752C631.528 237.752 635.189 239.726 639.062 241.812C640.273 242.463 641.484 243.115 642.803 243.714C642.884 243.751 642.969 243.76 643.051 243.794C643.757 244.095 644.483 244.311 645.217 244.457C645.446 244.502 645.674 244.515 645.904 244.545C646.509 244.626 647.112 244.665 647.719 244.641C647.974 244.631 648.225 244.613 648.479 244.585C649.079 244.519 649.672 244.395 650.261 244.226C650.482 244.162 650.7 244.111 650.917 244.034C651.04 243.99 651.17 243.979 651.292 243.93C651.798 243.729 652.251 243.442 652.715 243.171C652.865 243.083 653.032 243.042 653.179 242.947C653.208 242.928 653.23 242.902 653.259 242.883C653.978 242.407 654.649 241.862 655.233 241.236C656.201 243.478 656.704 245.908 656.704 248.398C656.704 253.233 654.826 257.773 651.412 261.186C647.995 264.598 643.446 266.485 638.614 266.485H626.711H439.823H439.815H417.353C407.377 266.485 399.263 258.372 399.263 248.398C399.263 245.908 399.766 243.478 400.734 241.236C401.32 241.866 401.994 242.414 402.716 242.891C402.745 242.91 402.767 242.936 402.796 242.955C402.966 243.065 403.157 243.119 403.332 243.219C403.778 243.474 404.215 243.747 404.699 243.938C404.801 243.978 404.908 243.989 405.01 244.026C405.268 244.119 405.531 244.177 405.794 244.25C406.352 244.405 406.912 244.514 407.48 244.577C407.735 244.605 407.984 244.632 408.24 244.641C408.848 244.664 409.45 244.627 410.054 244.545C410.28 244.515 410.502 244.502 410.726 244.457C411.539 244.294 412.347 244.061 413.124 243.706C414.435 243.115 415.642 242.471 416.849 241.82C420.742 239.73 424.423 237.752 431.926 237.752ZM417.353 270.577H438.664L460.48 306.751H417.353C407.377 306.751 399.263 298.638 399.263 288.664C399.263 283.828 401.141 279.285 404.555 275.868C407.972 272.455 412.517 270.577 417.353 270.577ZM443.453 270.577H504.046L497.611 281.255L481.623 307.734L481.615 307.742L476.747 315.838C476.632 316.029 476.483 316.187 476.339 316.35C476.279 316.414 476.236 316.499 476.171 316.558C474.855 317.75 472.631 317.748 471.319 316.558C471.286 316.528 471.263 316.485 471.231 316.454C471.06 316.267 470.895 316.068 470.76 315.838L465.891 307.742L465.883 307.734L443.453 270.577ZM508.834 270.577H557.685L567.557 286.929L579.516 306.751H487.011L502.455 281.135L508.834 270.577ZM562.473 270.577H623.074L600.643 307.734L600.635 307.742L595.759 315.854C595.601 316.122 595.417 316.365 595.208 316.574C594.994 316.782 594.761 316.956 594.504 317.101C594.247 317.246 593.97 317.361 593.681 317.437C593.394 317.512 593.092 317.548 592.785 317.549C592.473 317.549 592.166 317.515 591.874 317.437C591.007 317.206 590.261 316.639 589.78 315.838L584.912 307.742L584.904 307.734L562.473 270.577ZM627.862 270.577H638.614C648.59 270.577 656.704 278.689 656.704 288.664C656.704 293.499 654.826 298.039 651.412 301.452C647.995 304.865 643.45 306.751 638.614 306.751H606.047L627.862 270.577ZM404.171 310.843H417.353H462.942L467.242 317.972C467.9 319.063 468.806 319.92 469.848 320.546C469.897 320.575 469.935 320.621 469.984 320.65H469.992C470.297 320.823 470.633 320.928 470.959 321.057C471.228 321.164 471.478 321.31 471.759 321.385C472.033 321.458 472.33 321.454 472.614 321.497C472.978 321.552 473.333 321.639 473.709 321.641H473.741H473.749C474.419 321.64 475.074 321.558 475.7 321.393C476.326 321.229 476.924 320.981 477.482 320.666C478.042 320.35 478.559 319.961 479.025 319.507C479.488 319.056 479.903 318.546 480.248 317.972L484.549 310.843H581.978L586.279 317.972C586.578 318.47 586.945 318.901 587.334 319.307C587.845 319.84 588.41 320.308 589.044 320.666C589.604 320.983 590.199 321.228 590.827 321.393C591.454 321.557 592.106 321.641 592.777 321.641H592.785H592.825C593.251 321.639 593.655 321.55 594.064 321.481C594.289 321.443 594.526 321.443 594.744 321.385C595.114 321.288 595.444 321.112 595.791 320.961C596.038 320.854 596.301 320.783 596.535 320.65H596.543C596.622 320.604 596.681 320.53 596.758 320.482C597.225 320.192 597.673 319.88 598.069 319.491C598.525 319.044 598.936 318.538 599.276 317.972L603.577 310.843H638.614H651.788C654.498 310.843 656.704 313.041 656.704 315.75V329.218C656.704 337.318 650.113 343.908 642.012 343.908H413.955C405.854 343.908 399.263 337.318 399.263 329.218V315.75C399.263 313.041 401.465 310.843 404.171 310.843Z" fill="white" stroke="white" stroke-width="4"/>
</svg>
