<svg width="1326" height="1808" viewBox="0 0 1326 1808" fill="none" xmlns="http://www.w3.org/2000/svg">
<path d="M1319.5 277.886H1198.5V183.886L1319.5 277.886Z" fill="#1B1D1E" stroke="black" stroke-width="4"/>
<path d="M1318.5 1686.89L1198.5 1802.39V1686.89H1318.5Z" fill="#1C1D1E" stroke="black" stroke-width="4"/>
<path d="M1319 277.886L1317 1686.89H1198.5V277.886H1319Z" fill="#2A2B2E" stroke="black" stroke-width="4"/>
<path d="M1319 125.886L1200 4.88589V183.386L1319 275.886V125.886Z" fill="#A8ABB2" stroke="black" stroke-width="4"/>
<path d="M2.00098 4.88589H1200V182.886L1198 184.886H2.00098V4.88589Z" fill="#A8ABB2"/>
<path d="M2.00098 184.886V4.88589H1200V182.886L1198 184.886H2.00098ZM2.00098 184.886V1800.29L1198.5 1800.39" stroke="black" stroke-width="4"/>
<path d="M1198.5 184.886H2.50098L2.00098 1800.39H1198.5V184.886Z" fill="#7E7F81" stroke="black" stroke-width="4"/>
<path d="M349.745 902.886H300.105C292.75 902.886 289.073 899.219 289.073 891.884V741.859H244.033C236.678 741.859 233.001 738.192 233.001 730.857V693.888C233.001 686.553 236.678 682.886 244.033 682.886H405.817C413.165 682.886 416.839 686.553 416.839 693.888V730.857C416.839 738.192 413.165 741.859 405.817 741.859H360.767V891.884C360.774 899.219 357.1 902.886 349.745 902.886ZM493.925 902.886H432.028C424.681 902.886 421.007 899.219 421.007 891.884V829.855C421.007 822.527 424.681 818.864 432.028 818.864H493.925C501.28 818.864 504.957 822.527 504.957 829.855V891.884C504.957 899.219 501.28 902.886 493.925 902.886ZM625.827 902.886H576.186C568.831 902.886 565.154 899.219 565.154 891.884V741.859H520.115C512.76 741.859 509.082 738.192 509.082 730.857V693.888C509.082 686.553 512.76 682.886 520.115 682.886H681.898C689.246 682.886 692.92 686.553 692.92 693.888V730.857C692.92 738.192 689.246 741.859 681.898 741.859H636.848V891.884C636.855 899.219 633.182 902.886 625.827 902.886ZM770.006 902.886H708.11C700.755 902.886 697.081 899.219 697.088 891.884V829.855C697.081 822.527 700.755 818.864 708.11 818.864H770.006C777.361 818.864 781.038 822.527 781.038 829.855V891.884C781.038 899.219 777.361 902.886 770.006 902.886ZM901.908 902.886H852.267C844.912 902.886 841.235 899.219 841.235 891.884V741.859H796.196C788.841 741.859 785.163 738.192 785.163 730.857V693.888C785.163 686.553 788.841 682.886 796.196 682.886H957.979C965.327 682.886 969.001 686.553 969.001 693.888V730.857C969.001 738.192 965.327 741.859 957.979 741.859H912.93V891.884C912.937 899.219 909.263 902.886 901.908 902.886Z" fill="black"/>
<path d="M323.739 874.886V712.941H261.001V709.886H389.527V712.941H326.799V874.886H323.739ZM461.619 874.832V845.809H464.679V874.832H461.619ZM599.476 874.886V712.941H536.738V709.886H665.264V712.941H602.536V874.886H599.476ZM737.356 874.832V845.809H740.416V874.832H737.356ZM875.213 874.886V712.941H812.475V709.886H941.001V712.941H878.273V874.886H875.213Z" fill="black"/>
</svg>
