<svg width="1920" height="1080" viewBox="0 0 1920 1080" fill="none" xmlns="http://www.w3.org/2000/svg">
<rect width="1920" height="1080" fill="#444242"/>
<path d="M503.5 780.5L501.5 236.5C501.5 236.5 657 320.154 906.5 285.5C1156 250.846 1181 141 1389 75C1597 9.00003 1590.5 148 1707.5 236.5C1905 328 1958.5 701.5 1707.5 780.5C1578 780.5 503.5 780.5 503.5 780.5Z" fill="#3D2005"/>
<path d="M882 283H785V781H882V414.106V367.355V283Z" fill="#4A3728"/>
<path d="M1053 249L882.5 420V374L1007.5 249H1053Z" fill="#4A3728"/>
<path d="M615 248L785.5 419V373L660.5 248H615Z" fill="#4A3728"/>
<path d="M1920 1080H0V0H1920V1080ZM1707.5 236.5C1590.5 148 1597 9.00003 1389 75C1181 141 1156 250.846 906.5 285.5C657 320.154 501.5 236.5 501.5 236.5L503.5 780.5H1707.5C1958.5 701.5 1905 328 1707.5 236.5Z" fill="#663609"/>
<path d="M673.906 923.232C678.821 919.283 685.598 918.589 691.212 921.46L736.162 944.449C740.697 946.769 743.856 951.11 744.67 956.138L748.938 982.499C750.154 990.012 745.91 997.341 738.79 1000.03L698.5 1015.22C696.695 1015.9 694.782 1016.25 692.854 1016.25H636.733C626.901 1016.25 619.394 1007.47 620.928 997.754L625.746 967.256C626.366 963.327 628.428 959.77 631.529 957.279L673.906 923.232Z" fill="#818181" stroke="black" stroke-width="8"/>
<path d="M942.662 928.086C950.22 925.423 958.582 928.762 962.228 935.897L972.819 956.632C975.667 962.207 975.003 968.931 971.118 973.84L955.225 993.924C950.425 999.989 941.973 1001.75 935.148 998.112L907.637 983.439C899.807 979.263 896.871 969.512 901.095 961.707L910.848 943.686C912.737 940.194 915.858 937.529 919.603 936.21L942.662 928.086Z" fill="#686868" stroke="black" stroke-width="8"/>
<path d="M1211.57 844.219C1217.06 841.458 1223.65 842.085 1228.52 845.831L1280.66 885.941C1285.3 889.507 1287.62 895.319 1286.71 901.097L1278.55 953.283C1277.79 958.131 1274.85 962.364 1270.57 964.765L1242.6 980.454C1240.21 981.795 1237.51 982.5 1234.77 982.5H1160.98C1156.14 982.5 1151.57 980.314 1148.53 976.553L1111.64 930.876C1106.26 924.215 1107.08 914.498 1113.49 908.83L1152.13 874.711C1153.16 873.801 1154.3 873.028 1155.53 872.41L1211.57 844.219Z" fill="#989898" stroke="black" stroke-width="8"/>
<path d="M1466.6 897.158C1471.73 894.1 1478.14 894.161 1483.22 897.313L1533.71 928.658C1534.77 929.317 1535.75 930.098 1536.63 930.985L1565.16 959.755C1568.91 963.537 1570.53 968.937 1569.49 974.159L1562.49 1009.13C1561.31 1015.06 1556.89 1019.81 1551.06 1021.42L1528.83 1027.55C1524.09 1028.86 1519 1027.92 1515.05 1024.99L1472.57 993.537C1471.22 992.539 1469.77 991.684 1468.25 990.988L1417.11 967.677C1410.16 964.508 1406.42 956.865 1408.18 949.431L1411.44 935.664C1412.44 931.45 1415.1 927.819 1418.82 925.604L1466.6 897.158Z" fill="#633930" stroke="black" stroke-width="8"/>
<path d="M1768.96 868.827C1773.14 860.759 1783.2 857.796 1791.1 862.306L1817.95 877.647C1820.09 878.871 1821.92 880.574 1823.29 882.621L1839.1 906.169C1841.68 910.011 1842.47 914.783 1841.27 919.252L1834.17 945.598C1831.62 955.025 1821.3 959.998 1812.35 956.111L1786.37 944.839C1781.86 942.88 1776.85 942.356 1772.03 943.338L1732.23 951.443C1722.32 953.463 1713.04 945.885 1713.04 935.766V921.051C1713.04 914.706 1716.79 908.961 1722.6 906.406L1749.66 894.499C1754.67 892.295 1758.78 888.445 1761.3 883.587L1768.96 868.827Z" fill="#208753" stroke="black" stroke-width="8"/>
<path d="M1789.2 90.3936C1796.5 85.2805 1806.58 87.125 1811.6 94.4941L1823.58 112.077L1844.48 150.868C1848.35 158.052 1846.19 166.998 1839.47 171.63L1830.08 178.105C1825.66 181.153 1820 181.781 1815.02 179.775L1788.29 169.012C1787.04 168.507 1785.74 168.11 1784.42 167.823L1783.85 167.707L1755.21 162.203C1751.5 161.49 1748.16 159.484 1745.78 156.542L1736.34 144.85C1730.02 137.025 1732.41 125.382 1741.29 120.666L1760.38 110.533L1760.59 110.418L1760.79 110.277L1789.2 90.3936Z" fill="#D4AF37" stroke="black" stroke-width="8"/>
<path d="M613.361 92.9287C620.789 89.3793 629.698 92.0449 633.955 99.0908L648.339 122.9C652.29 129.44 659.118 133.707 666.728 134.393L696.675 137.091C703.955 137.747 709.865 143.253 711.033 150.469L715.593 178.628C716.334 183.207 715.052 187.882 712.078 191.442L692.792 214.531C687.957 220.32 679.735 221.945 673.061 218.433L625.236 193.262C621.79 191.448 617.953 190.5 614.059 190.5H599.31C591.188 190.5 584.354 184.415 583.416 176.348L577.124 122.232C576.334 115.44 579.948 108.896 586.118 105.947L613.361 92.9287Z" fill="#71706E" stroke="black" stroke-width="8"/>
<path d="M854.587 99.1289C857.141 98.1306 859.909 97.8052 862.625 98.1846L906.055 104.251C908.724 104.624 911.256 105.665 913.415 107.277L927.263 117.619C933.963 122.623 935.68 131.943 931.202 139.006L910.344 171.908C909.271 173.6 907.891 175.076 906.274 176.258L884.035 192.519C882.764 193.448 881.363 194.185 879.877 194.705L857.665 202.479C850.644 204.937 842.856 202.231 838.87 195.951L832.992 186.689C831.316 184.049 829.141 181.761 826.588 179.955L801.661 162.324C795.629 158.058 793.304 150.216 796.033 143.351L803.507 124.553C805.145 120.432 808.419 117.176 812.549 115.562L854.587 99.1289Z" fill="#2B2B2C" stroke="black" stroke-width="8"/>
<path d="M1067.3 56.5H1105.13C1107.43 56.5 1109.71 56.9978 1111.8 57.959L1128.61 65.6719C1133.47 67.9026 1136.89 72.4138 1137.73 77.6943L1139.01 85.6904C1140.19 93.1308 1136.03 100.391 1129.01 103.122L1114 108.959C1109.36 110.765 1105.39 113.971 1102.65 118.132L1080.98 151.054C1080.54 151.718 1080.06 152.349 1079.53 152.94L1063.95 170.3C1057.88 177.074 1047.38 177.423 1040.87 171.065L1021.3 151.961C1017.54 148.292 1015.82 143.011 1016.7 137.833L1022.96 100.986C1023.47 97.9488 1024.85 95.1247 1026.94 92.8535L1055.5 61.6885C1058.53 58.3825 1062.81 56.5001 1067.3 56.5Z" fill="#E34234" stroke="black" stroke-width="8"/>
<rect x="1342" y="347" width="66" height="104" fill="#4A2E1B"/>
<rect x="1363" y="337" width="24" height="82" fill="#3E2723"/>
<path d="M1390.72 338.224L1375.6 350.51C1375.25 350.798 1374.74 350.809 1374.38 350.537L1357.84 338.252C1357.62 338.091 1357.48 337.849 1357.44 337.581L1354.15 312.631C1354.07 312.032 1354.54 311.5 1355.14 311.5H1361.17C1361.39 311.5 1361.59 311.433 1361.76 311.309L1366.75 307.684C1366.91 307.564 1367.04 307.397 1367.1 307.204L1370.92 296.229C1370.97 296.079 1370.99 295.918 1370.97 295.76L1368.84 280.878C1368.71 279.998 1369.71 279.404 1370.43 279.935L1391.73 295.799C1391.91 295.93 1392.03 296.113 1392.09 296.323L1396.43 311.261C1396.48 311.418 1396.48 311.584 1396.45 311.743L1391.07 337.652C1391.03 337.877 1390.9 338.079 1390.72 338.224Z" fill="#E53935"/>
<path d="M1387.1 333.618L1377.44 341.506C1377.08 341.796 1376.58 341.807 1376.21 341.533L1365.64 333.646C1365.43 333.484 1365.29 333.242 1365.25 332.975L1363.15 316.979C1363.07 316.38 1363.54 315.848 1364.14 315.848H1367.61C1367.83 315.848 1368.03 315.781 1368.2 315.656L1371.31 313.385C1371.48 313.264 1371.6 313.097 1371.67 312.904L1374.12 305.815C1374.17 305.665 1374.19 305.504 1374.17 305.347L1372.89 296.384C1372.77 295.503 1373.77 294.91 1374.48 295.443L1387.77 305.385C1387.94 305.516 1388.07 305.699 1388.13 305.908L1390.93 315.611C1390.98 315.767 1390.98 315.931 1390.95 316.09L1387.45 333.045C1387.4 333.27 1387.28 333.472 1387.1 333.618Z" fill="#FF5722"/>
<path d="M1383.65 329.383L1378.51 333.518C1378.15 333.802 1377.65 333.813 1377.29 333.545L1371.66 329.41C1371.44 329.25 1371.3 329.006 1371.26 328.737L1370.15 320.422C1370.07 319.822 1370.54 319.29 1371.14 319.29H1372.5C1372.71 319.29 1372.92 319.224 1373.09 319.101L1374.64 317.984C1374.81 317.864 1374.93 317.697 1375 317.504L1376.32 313.749C1376.37 313.597 1376.39 313.434 1376.36 313.274L1375.8 309.366C1375.67 308.487 1376.67 307.891 1377.38 308.418L1384.03 313.317C1384.21 313.447 1384.34 313.631 1384.4 313.841L1385.93 319.049C1385.98 319.207 1385.98 319.374 1385.95 319.536L1384 328.809C1383.96 329.035 1383.83 329.238 1383.65 329.383Z" fill="#FFEB3B"/>
<circle opacity="0.1" cx="1378" cy="315" r="105" fill="#EBB82C"/>
<circle opacity="0.1" cx="1377" cy="315" r="82" fill="#EBB82C"/>
<circle opacity="0.1" cx="1375.5" cy="315.5" r="54.5" fill="#EBB82C"/>
<rect x="31" width="472" height="1080" fill="#3D2005"/>
</svg>
