<svg width="988" height="186" viewBox="0 0 988 186" fill="none" xmlns="http://www.w3.org/2000/svg">
<rect x="4" y="4" width="980" height="178" rx="59" fill="#FF0099" stroke="black" stroke-width="8"/>
<path d="M64.5227 32C61.5755 32 58.6222 33.1261 56.375 35.3761C51.875 39.8762 51.875 47.1715 56.375 51.6715L97.2035 92.5L56.375 133.328C51.875 137.829 51.875 145.124 56.375 149.624C58.6222 151.871 61.5755 153 64.5227 153C67.4699 153 70.4233 151.874 72.6704 149.624L113.499 108.795L154.327 149.624C158.822 154.124 166.126 154.124 170.623 149.624C175.126 145.121 175.126 137.831 170.623 133.328L129.794 92.5L170.623 51.6715C175.123 47.1715 175.123 39.8762 170.623 35.3761C166.129 30.8789 158.822 30.8761 154.327 35.3761L113.499 76.2046L72.6704 35.3761C70.4233 33.129 67.4699 32 64.5227 32Z" fill="black"/>
</svg>
