<svg width="988" height="186" viewBox="0 0 988 186" fill="none" xmlns="http://www.w3.org/2000/svg">
<rect x="4" y="4" width="980" height="178" rx="59" fill="#FF0099" stroke="black" stroke-width="8"/>
<path d="M110.402 147.994C107.353 147.994 104.501 146.535 102.784 144.092C88.4366 123.633 73.6417 109.263 57.5586 100.178C53.1729 97.6994 51.6946 92.2495 54.2586 88.0094C56.8164 83.7692 62.4535 82.3282 66.8453 84.8189C82.3579 93.5838 96.6314 106.328 110.218 123.597C136.354 87.9679 167.159 59.3246 201.932 38.3493C206.256 35.7518 211.918 37.015 214.604 41.1899C217.291 45.3588 215.985 50.8443 211.666 53.4418C175.262 75.3957 144.654 105.017 118.075 143.997C116.383 146.482 113.524 147.982 110.451 148C110.439 147.994 110.42 147.994 110.402 147.994Z" fill="black"/>
</svg>
