<svg width="848" height="186" viewBox="0 0 848 186" fill="none" xmlns="http://www.w3.org/2000/svg">
<rect x="4" y="4" width="840" height="177.962" rx="58" fill="#9639B7" stroke="black" stroke-width="8"/>
<path d="M97.6954 123H71.7834C70.7447 123 69.9794 122.781 69.4874 122.344C69.0501 121.852 68.8314 121.087 68.8314 120.048V110.454C68.8314 109.415 69.0501 108.677 69.4874 108.24C69.9794 107.748 70.7447 107.502 71.7834 107.502H93.8414C94.5521 107.502 95.0714 107.283 95.3994 106.846C95.7821 106.354 95.9734 105.78 95.9734 105.124C95.9734 104.195 95.7821 103.511 95.3994 103.074C95.0714 102.637 94.5521 102.391 93.8414 102.336L81.5414 100.614C77.7147 100.067 74.6261 98.81 72.2754 96.842C69.9794 94.874 68.8314 91.594 68.8314 87.002V78.392C68.8314 73.7453 70.3347 70.192 73.3414 67.732C76.3481 65.2173 80.5027 63.96 85.8054 63.96H108.765C109.804 63.96 110.542 64.206 110.979 64.698C111.471 65.1353 111.717 65.8733 111.717 66.912V76.67C111.717 77.7087 111.471 78.474 110.979 78.966C110.542 79.4033 109.804 79.622 108.765 79.622H89.6594C88.9487 79.622 88.4021 79.868 88.0194 80.36C87.6367 80.7973 87.4454 81.3713 87.4454 82.082C87.4454 82.7927 87.6367 83.394 88.0194 83.886C88.4021 84.378 88.9487 84.6513 89.6594 84.706L101.877 86.346C105.704 86.8927 108.793 88.15 111.143 90.118C113.494 92.086 114.669 95.366 114.669 99.958V108.568C114.669 113.215 113.139 116.795 110.077 119.31C107.071 121.77 102.943 123 97.6954 123ZM150.719 123H137.435C136.396 123 135.631 122.781 135.139 122.344C134.701 121.852 134.483 121.087 134.483 120.048V79.786H122.429C121.39 79.786 120.625 79.5673 120.133 79.13C119.695 78.638 119.477 77.8727 119.477 76.834V66.912C119.477 65.8733 119.695 65.1353 120.133 64.698C120.625 64.206 121.39 63.96 122.429 63.96H165.725C166.763 63.96 167.501 64.206 167.939 64.698C168.431 65.1353 168.677 65.8733 168.677 66.912V76.834C168.677 77.8727 168.431 78.638 167.939 79.13C167.501 79.5673 166.763 79.786 165.725 79.786H153.671V120.048C153.671 121.087 153.425 121.852 152.933 122.344C152.495 122.781 151.757 123 150.719 123ZM219.045 63.96H231.263C232.302 63.96 233.04 64.206 233.477 64.698C233.969 65.1353 234.215 65.8733 234.215 66.912V98.728C234.215 100.477 234.133 102.117 233.969 103.648C233.86 105.124 233.45 106.873 232.739 108.896L228.639 120.048C228.366 120.868 227.956 121.579 227.409 122.18C226.917 122.727 226.234 123 225.359 123H214.453C213.578 123 212.786 122.809 212.075 122.426C211.365 122.043 210.9 121.415 210.681 120.54L206.909 107.174C206.745 106.627 206.526 106.272 206.253 106.108C206.034 105.889 205.761 105.78 205.433 105.78H204.695C204.367 105.78 204.066 105.889 203.793 106.108C203.574 106.272 203.383 106.627 203.219 107.174L199.365 120.54C199.146 121.36 198.736 121.989 198.135 122.426C197.534 122.809 196.796 123 195.921 123H185.097C184.222 123 183.457 122.727 182.801 122.18C182.2 121.633 181.762 120.923 181.489 120.048L177.389 108.732C176.678 106.709 176.241 104.96 176.077 103.484C175.968 101.953 175.913 100.313 175.913 98.564V66.912C175.913 65.8733 176.132 65.1353 176.569 64.698C177.061 64.206 177.826 63.96 178.865 63.96H191.493C192.532 63.96 193.27 64.206 193.707 64.698C194.199 65.1353 194.445 65.8733 194.445 66.912V97.088L199.201 86.756C199.638 85.8267 200.212 85.1707 200.923 84.788C201.634 84.4053 202.508 84.214 203.547 84.214H206.991C208.03 84.214 208.904 84.4053 209.615 84.788C210.326 85.1707 210.9 85.8267 211.337 86.756L216.093 97.088V66.912C216.093 65.8733 216.312 65.1353 216.749 64.698C217.241 64.206 218.006 63.96 219.045 63.96ZM294.818 107.502C294.818 110.017 294.435 112.313 293.67 114.39C292.959 116.413 291.647 118.162 289.734 119.638C287.875 121.059 285.278 122.18 281.944 123C278.664 123.82 274.482 124.23 269.398 124.23C264.314 124.23 260.104 123.82 256.77 123C253.435 122.18 250.811 121.059 248.898 119.638C247.039 118.162 245.727 116.413 244.962 114.39C244.251 112.313 243.896 110.017 243.896 107.502V79.54C243.896 77.0253 244.251 74.7567 244.962 72.734C245.727 70.6567 247.039 68.88 248.898 67.404C250.811 65.928 253.435 64.78 256.77 63.96C260.104 63.14 264.314 62.73 269.398 62.73C274.482 62.73 278.664 63.14 281.944 63.96C285.278 64.78 287.875 65.928 289.734 67.404C291.647 68.88 292.959 70.6567 293.67 72.734C294.435 74.7567 294.818 77.0253 294.818 79.54V107.502ZM262.51 104.55C262.51 105.643 262.92 106.573 263.74 107.338C264.56 108.049 266.446 108.404 269.398 108.404C272.35 108.404 274.236 108.049 275.056 107.338C275.876 106.573 276.286 105.643 276.286 104.55V82.492C276.286 81.4533 275.876 80.5787 275.056 79.868C274.236 79.1027 272.35 78.72 269.398 78.72C266.446 78.72 264.56 79.1027 263.74 79.868C262.92 80.5787 262.51 81.4533 262.51 82.492V104.55ZM283.502 57.728L254.884 61.254C253.954 61.3633 253.244 61.172 252.752 60.68C252.314 60.188 252.096 59.4773 252.096 58.548V50.676C252.096 49.6373 252.314 48.9267 252.752 48.544C253.244 48.1067 254.009 47.8333 255.048 47.724L283.666 44.198C284.595 44.0887 285.278 44.28 285.716 44.772C286.208 45.264 286.454 45.9747 286.454 46.904V54.776C286.454 55.8147 286.208 56.5527 285.716 56.99C285.278 57.3727 284.54 57.6187 283.502 57.728ZM323.789 78.72V89.216H329.939C331.36 89.216 332.317 88.8607 332.809 88.15C333.301 87.3847 333.547 86.4553 333.547 85.362V82.574C333.547 81.4807 333.301 80.5787 332.809 79.868C332.317 79.1027 331.36 78.72 329.939 78.72H323.789ZM320.837 123H308.209C307.17 123 306.405 122.781 305.913 122.344C305.475 121.852 305.257 121.087 305.257 120.048V66.912C305.257 65.8733 305.475 65.1353 305.913 64.698C306.405 64.206 307.17 63.96 308.209 63.96H335.515C341.637 63.96 345.847 65.2447 348.143 67.814C350.493 70.3287 351.669 73.6087 351.669 77.654V81.426C351.669 83.722 351.313 85.69 350.603 87.33C349.947 88.9153 348.771 90.0633 347.077 90.774C350.029 91.102 352.407 92.3047 354.211 94.382C356.069 96.4593 356.999 99.22 356.999 102.664V120.048C356.999 121.087 356.753 121.852 356.261 122.344C355.823 122.781 355.085 123 354.047 123H341.337C340.298 123 339.533 122.781 339.041 122.344C338.603 121.852 338.385 121.087 338.385 120.048V107.502C338.385 106.299 338.139 105.425 337.647 104.878C337.209 104.277 336.417 103.976 335.269 103.976H323.789V120.048C323.789 121.087 323.543 121.852 323.051 122.344C322.613 122.781 321.875 123 320.837 123ZM407.934 123H367.262C366.223 123 365.458 122.781 364.966 122.344C364.529 121.852 364.31 121.087 364.31 120.048V109.06C364.31 108.021 364.474 107.119 364.802 106.354C365.13 105.534 365.649 104.741 366.36 103.976L386.286 79.786H368.738C367.699 79.786 366.934 79.5673 366.442 79.13C366.005 78.638 365.786 77.8727 365.786 76.834V66.912C365.786 65.8733 366.005 65.1353 366.442 64.698C366.934 64.206 367.699 63.96 368.738 63.96H406.458C407.497 63.96 408.235 64.206 408.672 64.698C409.164 65.1353 409.41 65.8733 409.41 66.912V79.13C409.41 80.2233 409.246 81.18 408.918 82C408.59 82.7653 408.071 83.5307 407.36 84.296L388.336 107.338H407.934C408.973 107.338 409.711 107.584 410.148 108.076C410.64 108.513 410.886 109.251 410.886 110.29V120.048C410.886 121.087 410.64 121.852 410.148 122.344C409.711 122.781 408.973 123 407.934 123ZM466.135 123H440.223C439.184 123 438.419 122.781 437.927 122.344C437.49 121.852 437.271 121.087 437.271 120.048V110.454C437.271 109.415 437.49 108.677 437.927 108.24C438.419 107.748 439.184 107.502 440.223 107.502H462.281C462.992 107.502 463.511 107.283 463.839 106.846C464.222 106.354 464.413 105.78 464.413 105.124C464.413 104.195 464.222 103.511 463.839 103.074C463.511 102.637 462.992 102.391 462.281 102.336L449.981 100.614C446.154 100.067 443.066 98.81 440.715 96.842C438.419 94.874 437.271 91.594 437.271 87.002V78.392C437.271 73.7453 438.774 70.192 441.781 67.732C444.788 65.2173 448.942 63.96 454.245 63.96H477.205C478.244 63.96 478.982 64.206 479.419 64.698C479.911 65.1353 480.157 65.8733 480.157 66.912V76.67C480.157 77.7087 479.911 78.474 479.419 78.966C478.982 79.4033 478.244 79.622 477.205 79.622H458.099C457.388 79.622 456.842 79.868 456.459 80.36C456.076 80.7973 455.885 81.3713 455.885 82.082C455.885 82.7927 456.076 83.394 456.459 83.886C456.842 84.378 457.388 84.6513 458.099 84.706L470.317 86.346C474.144 86.8927 477.232 88.15 479.583 90.118C481.934 92.086 483.109 95.366 483.109 99.958V108.568C483.109 113.215 481.578 116.795 478.517 119.31C475.51 121.77 471.383 123 466.135 123ZM533.079 123H495.031C493.992 123 493.227 122.781 492.735 122.344C492.298 121.852 492.079 121.087 492.079 120.048V66.912C492.079 65.8733 492.298 65.1353 492.735 64.698C493.227 64.206 493.992 63.96 495.031 63.96H533.079C534.118 63.96 534.856 64.206 535.293 64.698C535.785 65.1353 536.031 65.8733 536.031 66.912V76.506C536.031 77.5447 535.785 78.31 535.293 78.802C534.856 79.2393 534.118 79.458 533.079 79.458H510.447V85.772H526.437C527.476 85.772 528.214 86.018 528.651 86.51C529.143 86.9473 529.389 87.6853 529.389 88.724V97.498C529.389 98.5367 529.143 99.302 528.651 99.794C528.214 100.231 527.476 100.45 526.437 100.45H510.447V107.502H533.079C534.118 107.502 534.856 107.748 535.293 108.24C535.785 108.677 536.031 109.415 536.031 110.454V120.048C536.031 121.087 535.785 121.852 535.293 122.344C534.856 122.781 534.118 123 533.079 123ZM564.263 78.72V89.216H570.413C571.835 89.216 572.791 88.8607 573.283 88.15C573.775 87.3847 574.021 86.4553 574.021 85.362V82.574C574.021 81.4807 573.775 80.5787 573.283 79.868C572.791 79.1027 571.835 78.72 570.413 78.72H564.263ZM561.311 123H548.683C547.645 123 546.879 122.781 546.387 122.344C545.95 121.852 545.731 121.087 545.731 120.048V66.912C545.731 65.8733 545.95 65.1353 546.387 64.698C546.879 64.206 547.645 63.96 548.683 63.96H575.989C582.112 63.96 586.321 65.2447 588.617 67.814C590.968 70.3287 592.143 73.6087 592.143 77.654V81.426C592.143 83.722 591.788 85.69 591.077 87.33C590.421 88.9153 589.246 90.0633 587.551 90.774C590.503 91.102 592.881 92.3047 594.685 94.382C596.544 96.4593 597.473 99.22 597.473 102.664V120.048C597.473 121.087 597.227 121.852 596.735 122.344C596.298 122.781 595.56 123 594.521 123H581.811C580.773 123 580.007 122.781 579.515 122.344C579.078 121.852 578.859 121.087 578.859 120.048V107.502C578.859 106.299 578.613 105.425 578.121 104.878C577.684 104.277 576.891 103.976 575.743 103.976H564.263V120.048C564.263 121.087 564.017 121.852 563.525 122.344C563.088 122.781 562.35 123 561.311 123ZM648.664 63.96H660.882C661.921 63.96 662.659 64.206 663.096 64.698C663.588 65.1353 663.834 65.8733 663.834 66.912V98.728C663.834 100.477 663.752 102.117 663.588 103.648C663.479 105.124 663.069 106.873 662.358 108.896L658.258 120.048C657.985 120.868 657.575 121.579 657.028 122.18C656.536 122.727 655.853 123 654.978 123H644.072C643.198 123 642.405 122.809 641.694 122.426C640.984 122.043 640.519 121.415 640.3 120.54L636.528 107.174C636.364 106.627 636.146 106.272 635.872 106.108C635.654 105.889 635.38 105.78 635.052 105.78H634.314C633.986 105.78 633.686 105.889 633.412 106.108C633.194 106.272 633.002 106.627 632.838 107.174L628.984 120.54C628.766 121.36 628.356 121.989 627.754 122.426C627.153 122.809 626.415 123 625.54 123H614.716C613.842 123 613.076 122.727 612.42 122.18C611.819 121.633 611.382 120.923 611.108 120.048L607.008 108.732C606.298 106.709 605.86 104.96 605.696 103.484C605.587 101.953 605.532 100.313 605.532 98.564V66.912C605.532 65.8733 605.751 65.1353 606.188 64.698C606.68 64.206 607.446 63.96 608.484 63.96H621.112C622.151 63.96 622.889 64.206 623.326 64.698C623.818 65.1353 624.064 65.8733 624.064 66.912V97.088L628.82 86.756C629.258 85.8267 629.832 85.1707 630.542 84.788C631.253 84.4053 632.128 84.214 633.166 84.214H636.61C637.649 84.214 638.524 84.4053 639.234 84.788C639.945 85.1707 640.519 85.8267 640.956 86.756L645.712 97.088V66.912C645.712 65.8733 645.931 65.1353 646.368 64.698C646.86 64.206 647.626 63.96 648.664 63.96ZM715.417 123H677.369C676.33 123 675.565 122.781 675.073 122.344C674.635 121.852 674.417 121.087 674.417 120.048V66.912C674.417 65.8733 674.635 65.1353 675.073 64.698C675.565 64.206 676.33 63.96 677.369 63.96H715.417C716.455 63.96 717.193 64.206 717.631 64.698C718.123 65.1353 718.369 65.8733 718.369 66.912V76.506C718.369 77.5447 718.123 78.31 717.631 78.802C717.193 79.2393 716.455 79.458 715.417 79.458H692.785V85.772H708.775C709.813 85.772 710.551 86.018 710.989 86.51C711.481 86.9473 711.727 87.6853 711.727 88.724V97.498C711.727 98.5367 711.481 99.302 710.989 99.794C710.551 100.231 709.813 100.45 708.775 100.45H692.785V107.502H715.417C716.455 107.502 717.193 107.748 717.631 108.24C718.123 108.677 718.369 109.415 718.369 110.454V120.048C718.369 121.087 718.123 121.852 717.631 122.344C717.193 122.781 716.455 123 715.417 123ZM746.601 78.72V89.216H752.751C754.172 89.216 755.129 88.8607 755.621 88.15C756.113 87.3847 756.359 86.4553 756.359 85.362V82.574C756.359 81.4807 756.113 80.5787 755.621 79.868C755.129 79.1027 754.172 78.72 752.751 78.72H746.601ZM743.649 123H731.021C729.982 123 729.217 122.781 728.725 122.344C728.288 121.852 728.069 121.087 728.069 120.048V66.912C728.069 65.8733 728.288 65.1353 728.725 64.698C729.217 64.206 729.982 63.96 731.021 63.96H758.327C764.45 63.96 768.659 65.2447 770.955 67.814C773.306 70.3287 774.481 73.6087 774.481 77.654V81.426C774.481 83.722 774.126 85.69 773.415 87.33C772.759 88.9153 771.584 90.0633 769.889 90.774C772.841 91.102 775.219 92.3047 777.023 94.382C778.882 96.4593 779.811 99.22 779.811 102.664V120.048C779.811 121.087 779.565 121.852 779.073 122.344C778.636 122.781 777.898 123 776.859 123H764.149C763.11 123 762.345 122.781 761.853 122.344C761.416 121.852 761.197 121.087 761.197 120.048V107.502C761.197 106.299 760.951 105.425 760.459 104.878C760.022 104.277 759.229 103.976 758.081 103.976H746.601V120.048C746.601 121.087 746.355 121.852 745.863 122.344C745.426 122.781 744.688 123 743.649 123Z" fill="black"/>
</svg>
