<svg width="848" height="186" viewBox="0 0 848 186" fill="none" xmlns="http://www.w3.org/2000/svg">
<rect x="4" y="4" width="840" height="177.962" rx="58" fill="#11A45B" stroke="black" stroke-width="8"/>
<path d="M85.5584 119H61.2944C60.3824 119 59.7104 118.808 59.2784 118.424C58.8944 117.992 58.7024 117.32 58.7024 116.408V69.752C58.7024 68.84 58.8944 68.192 59.2784 67.808C59.7104 67.376 60.3824 67.16 61.2944 67.16H85.5584C91.5584 67.16 95.9984 68.36 98.8784 70.76C101.806 73.16 103.27 76.856 103.27 81.848V104.312C103.27 109.304 101.806 113 98.8784 115.4C95.9984 117.8 91.5584 119 85.5584 119ZM75.0464 80.912V105.392H83.6144C84.7664 105.392 85.6064 105.104 86.1344 104.528C86.7104 103.952 86.9984 103.064 86.9984 101.864V84.368C86.9984 83.168 86.7104 82.304 86.1344 81.776C85.6064 81.2 84.7664 80.912 83.6144 80.912H75.0464ZM156.341 105.392C156.341 107.6 156.005 109.616 155.333 111.44C154.709 113.216 153.557 114.752 151.877 116.048C150.245 117.296 147.965 118.28 145.037 119C142.157 119.72 138.485 120.08 134.021 120.08C129.557 120.08 125.861 119.72 122.933 119C120.005 118.28 117.701 117.296 116.021 116.048C114.389 114.752 113.237 113.216 112.565 111.44C111.941 109.616 111.629 107.6 111.629 105.392V80.84C111.629 78.632 111.941 76.64 112.565 74.864C113.237 73.04 114.389 71.48 116.021 70.184C117.701 68.888 120.005 67.88 122.933 67.16C125.861 66.44 129.557 66.08 134.021 66.08C138.485 66.08 142.157 66.44 145.037 67.16C147.965 67.88 150.245 68.888 151.877 70.184C153.557 71.48 154.709 73.04 155.333 74.864C156.005 76.64 156.341 78.632 156.341 80.84V105.392ZM127.973 102.8C127.973 103.76 128.333 104.576 129.053 105.248C129.773 105.872 131.429 106.184 134.021 106.184C136.613 106.184 138.269 105.872 138.989 105.248C139.709 104.576 140.069 103.76 140.069 102.8V83.432C140.069 82.52 139.709 81.752 138.989 81.128C138.269 80.456 136.613 80.12 134.021 80.12C131.429 80.12 129.773 80.456 129.053 81.128C128.333 81.752 127.973 82.52 127.973 83.432V102.8ZM205.467 119H168.819C167.907 119 167.235 118.808 166.803 118.424C166.419 117.992 166.227 117.32 166.227 116.408V98.192L164.571 98.48C163.659 98.624 162.987 98.456 162.555 97.976C162.171 97.496 161.979 96.8 161.979 95.888V88.184C161.979 87.272 162.171 86.648 162.555 86.312C162.987 85.976 163.659 85.736 164.571 85.592L166.227 85.304V69.752C166.227 68.84 166.419 68.192 166.803 67.808C167.235 67.376 167.907 67.16 168.819 67.16H179.979C180.891 67.16 181.539 67.376 181.923 67.808C182.355 68.192 182.571 68.84 182.571 69.752V82.64L186.747 81.992C187.659 81.848 188.307 82.016 188.691 82.496C189.123 82.976 189.339 83.672 189.339 84.584V92.288C189.339 93.2 189.123 93.824 188.691 94.16C188.307 94.496 187.659 94.736 186.747 94.88L182.571 95.528V105.392H192.435V93.728C192.435 92.816 192.627 92.168 193.011 91.784C193.443 91.352 194.115 91.136 195.027 91.136H205.467C206.379 91.136 207.027 91.352 207.411 91.784C207.843 92.168 208.059 92.816 208.059 93.728V116.408C208.059 117.32 207.843 117.992 207.411 118.424C207.027 118.808 206.379 119 205.467 119ZM259.977 129.944C259.977 130.856 259.809 131.48 259.473 131.816C259.137 132.2 258.513 132.392 257.601 132.392H249.609C246.537 132.392 244.425 131.6 243.273 130.016C242.169 128.432 241.857 125.984 242.337 122.672L243.705 114.968V106.328H230.961V116.408C230.961 117.32 230.745 117.992 230.313 118.424C229.929 118.808 229.281 119 228.369 119H217.785C216.873 119 216.201 118.808 215.769 118.424C215.385 117.992 215.193 117.32 215.193 116.408V97.4C215.193 95.96 215.409 94.304 215.841 92.432C216.321 90.56 217.041 88.376 218.001 85.88L224.265 69.536C224.553 68.72 224.985 68.12 225.561 67.736C226.185 67.352 226.977 67.16 227.937 67.16H247.305C248.217 67.16 248.961 67.352 249.537 67.736C250.161 68.12 250.617 68.72 250.905 69.536L257.169 85.88C258.129 88.376 258.825 90.56 259.257 92.432C259.737 94.304 259.977 95.96 259.977 97.4V116.408C259.977 117.32 259.761 117.992 259.329 118.424C258.945 118.808 258.297 119 257.385 119H254.937L254.433 122.312H257.385C258.393 122.312 259.065 122.48 259.401 122.816C259.785 123.2 259.977 123.848 259.977 124.76V129.944ZM235.065 82.28L231.681 93.224H242.985L239.601 82.28C239.409 81.848 239.193 81.536 238.953 81.344C238.761 81.152 238.521 81.056 238.233 81.056H236.433C236.145 81.056 235.881 81.152 235.641 81.344C235.449 81.536 235.257 81.848 235.065 82.28ZM303.354 119H285.786C279.786 119 275.322 117.8 272.394 115.4C269.514 113 268.074 109.304 268.074 104.312V81.92C268.074 76.928 269.514 73.232 272.394 70.832C275.322 68.384 279.786 67.16 285.786 67.16H303.354C304.266 67.16 304.914 67.376 305.298 67.808C305.73 68.192 305.946 68.84 305.946 69.752V78.464C305.946 79.376 305.73 80.048 305.298 80.48C304.914 80.864 304.266 81.056 303.354 81.056H288.882C287.394 81.056 286.29 81.368 285.57 81.992C284.85 82.568 284.49 83.456 284.49 84.656V101.792C284.49 102.992 284.85 103.88 285.57 104.456C286.29 104.984 287.394 105.248 288.882 105.248H303.354C304.266 105.248 304.914 105.464 305.298 105.896C305.73 106.28 305.946 106.928 305.946 107.84V116.408C305.946 117.32 305.73 117.992 305.298 118.424C304.914 118.808 304.266 119 303.354 119ZM350.725 119H315.013C314.101 119 313.429 118.808 312.997 118.424C312.613 117.992 312.421 117.32 312.421 116.408V106.76C312.421 105.848 312.565 105.056 312.853 104.384C313.141 103.664 313.597 102.968 314.221 102.296L331.717 81.056H316.309C315.397 81.056 314.725 80.864 314.293 80.48C313.909 80.048 313.717 79.376 313.717 78.464V69.752C313.717 68.84 313.909 68.192 314.293 67.808C314.725 67.376 315.397 67.16 316.309 67.16H349.429C350.341 67.16 350.989 67.376 351.373 67.808C351.805 68.192 352.021 68.84 352.021 69.752V80.48C352.021 81.44 351.877 82.28 351.589 83C351.301 83.672 350.845 84.344 350.221 85.016L333.517 105.248H350.725C351.637 105.248 352.285 105.464 352.669 105.896C353.101 106.28 353.317 106.928 353.317 107.84V116.408C353.317 117.32 353.101 117.992 352.669 118.424C352.285 118.808 351.637 119 350.725 119ZM391.533 119H380.373C379.461 119 378.789 118.808 378.357 118.424C377.973 117.992 377.781 117.32 377.781 116.408V69.752C377.781 68.84 377.973 68.192 378.357 67.808C378.789 67.376 379.461 67.16 380.373 67.16H402.405C408.933 67.16 413.397 68.456 415.797 71.048C418.197 73.64 419.397 77.024 419.397 81.2V90.416C419.397 94.592 418.197 97.976 415.797 100.568C413.397 103.16 408.933 104.456 402.405 104.456H394.125V116.408C394.125 117.32 393.909 117.992 393.477 118.424C393.093 118.808 392.445 119 391.533 119ZM393.98 80.624V91.496H400.461C401.853 91.496 402.765 91.136 403.197 90.416C403.629 89.696 403.845 88.88 403.845 87.968V84.152C403.845 83.24 403.629 82.424 403.197 81.704C402.765 80.984 401.853 80.624 400.461 80.624H393.98ZM443.131 80.12V89.336H448.531C449.779 89.336 450.619 89.024 451.051 88.4C451.483 87.728 451.699 86.912 451.699 85.952V83.504C451.699 82.544 451.483 81.752 451.051 81.128C450.619 80.456 449.779 80.12 448.531 80.12H443.131ZM440.539 119H429.451C428.539 119 427.867 118.808 427.435 118.424C427.051 117.992 426.859 117.32 426.859 116.408V69.752C426.859 68.84 427.051 68.192 427.435 67.808C427.867 67.376 428.539 67.16 429.451 67.16H453.427C458.803 67.16 462.499 68.288 464.515 70.544C466.579 72.752 467.611 75.632 467.611 79.184V82.496C467.611 84.512 467.299 86.24 466.675 87.68C466.099 89.072 465.067 90.08 463.579 90.704C466.171 90.992 468.259 92.048 469.843 93.872C471.475 95.696 472.291 98.12 472.291 101.144V116.408C472.291 117.32 472.075 117.992 471.643 118.424C471.259 118.808 470.611 119 469.699 119H458.539C457.627 119 456.955 118.808 456.523 118.424C456.139 117.992 455.947 117.32 455.947 116.408V105.392C455.947 104.336 455.731 103.568 455.299 103.088C454.915 102.56 454.219 102.296 453.211 102.296H443.131V116.408C443.131 117.32 442.915 117.992 442.483 118.424C442.099 118.808 441.451 119 440.539 119ZM517.014 119H481.302C480.39 119 479.718 118.808 479.286 118.424C478.902 117.992 478.71 117.32 478.71 116.408V106.76C478.71 105.848 478.854 105.056 479.142 104.384C479.43 103.664 479.886 102.968 480.51 102.296L498.006 81.056H482.598C481.686 81.056 481.014 80.864 480.582 80.48C480.198 80.048 480.006 79.376 480.006 78.464V69.752C480.006 68.84 480.198 68.192 480.582 67.808C481.014 67.376 481.686 67.16 482.598 67.16H515.718C516.63 67.16 517.278 67.376 517.662 67.808C518.094 68.192 518.31 68.84 518.31 69.752V80.48C518.31 81.44 518.166 82.28 517.878 83C517.59 83.672 517.134 84.344 516.51 85.016L499.806 105.248H517.014C517.926 105.248 518.574 105.464 518.958 105.896C519.39 106.28 519.606 106.928 519.606 107.84V116.408C519.606 117.32 519.39 117.992 518.958 118.424C518.574 118.808 517.926 119 517.014 119ZM563.898 119H530.49C529.578 119 528.906 118.808 528.474 118.424C528.09 117.992 527.898 117.32 527.898 116.408V69.752C527.898 68.84 528.09 68.192 528.474 67.808C528.906 67.376 529.578 67.16 530.49 67.16H563.898C564.81 67.16 565.458 67.376 565.842 67.808C566.274 68.192 566.49 68.84 566.49 69.752V78.176C566.49 79.088 566.274 79.76 565.842 80.192C565.458 80.576 564.81 80.768 563.898 80.768H544.026V86.312H558.066C558.978 86.312 559.626 86.528 560.01 86.96C560.442 87.344 560.658 87.992 560.658 88.904V96.608C560.658 97.52 560.442 98.192 560.01 98.624C559.626 99.008 558.978 99.2 558.066 99.2H544.026V105.392H563.898C564.81 105.392 565.458 105.608 565.842 106.04C566.274 106.424 566.49 107.072 566.49 107.984V116.408C566.49 117.32 566.274 117.992 565.842 118.424C565.458 118.808 564.81 119 563.898 119ZM611.655 119H575.943C575.031 119 574.359 118.808 573.927 118.424C573.543 117.992 573.351 117.32 573.351 116.408V106.76C573.351 105.848 573.495 105.056 573.783 104.384C574.071 103.664 574.527 102.968 575.151 102.296L592.647 81.056H577.239C576.327 81.056 575.655 80.864 575.223 80.48C574.839 80.048 574.647 79.376 574.647 78.464V69.752C574.647 68.84 574.839 68.192 575.223 67.808C575.655 67.376 576.327 67.16 577.239 67.16H610.359C611.271 67.16 611.919 67.376 612.303 67.808C612.735 68.192 612.951 68.84 612.951 69.752V80.48C612.951 81.44 612.807 82.28 612.519 83C612.231 83.672 611.775 84.344 611.151 85.016L594.447 105.248H611.655C612.567 105.248 613.215 105.464 613.599 105.896C614.031 106.28 614.247 106.928 614.247 107.84V116.408C614.247 117.32 614.031 117.992 613.599 118.424C613.215 118.808 612.567 119 611.655 119ZM652.462 119H641.302C640.39 119 639.718 118.808 639.286 118.424C638.902 117.992 638.71 117.32 638.71 116.408V69.752C638.71 68.84 638.902 68.192 639.286 67.808C639.718 67.376 640.39 67.16 641.302 67.16H652.462C653.374 67.16 654.022 67.376 654.406 67.808C654.838 68.192 655.054 68.84 655.054 69.752V86.312H657.934L665.35 69.536C665.686 68.672 666.142 68.072 666.718 67.736C667.294 67.352 668.038 67.16 668.95 67.16H680.038C680.854 67.16 681.406 67.376 681.694 67.808C681.982 68.192 681.958 68.768 681.622 69.536L674.278 86.312C676.966 86.456 679.102 87.416 680.686 89.192C682.318 90.92 683.134 93.224 683.134 96.104V116.408C683.134 117.32 682.918 117.992 682.486 118.424C682.102 118.808 681.454 119 680.542 119H669.454C668.542 119 667.87 118.808 667.438 118.424C667.054 117.992 666.862 117.32 666.862 116.408V102.368C666.862 101.6 666.67 101 666.286 100.568C665.902 100.136 665.326 99.92 664.558 99.92H655.054V116.408C655.054 117.32 654.838 117.992 654.406 118.424C654.022 118.808 653.374 119 652.462 119ZM736.349 105.392C736.349 107.6 736.013 109.616 735.341 111.44C734.717 113.216 733.565 114.752 731.885 116.048C730.253 117.296 727.973 118.28 725.045 119C722.165 119.72 718.493 120.08 714.029 120.08C709.565 120.08 705.869 119.72 702.941 119C700.013 118.28 697.709 117.296 696.029 116.048C694.397 114.752 693.245 113.216 692.573 111.44C691.949 109.616 691.637 107.6 691.637 105.392V80.84C691.637 78.632 691.949 76.64 692.573 74.864C693.245 73.04 694.397 71.48 696.029 70.184C697.709 68.888 700.013 67.88 702.941 67.16C705.869 66.44 709.565 66.08 714.029 66.08C718.493 66.08 722.165 66.44 725.045 67.16C727.973 67.88 730.253 68.888 731.885 70.184C733.565 71.48 734.717 73.04 735.341 74.864C736.013 76.64 736.349 78.632 736.349 80.84V105.392ZM707.981 102.8C707.981 103.76 708.341 104.576 709.061 105.248C709.781 105.872 711.437 106.184 714.029 106.184C716.621 106.184 718.277 105.872 718.997 105.248C719.717 104.576 720.077 103.76 720.077 102.8V83.432C720.077 82.52 719.717 81.752 718.997 81.128C718.277 80.456 716.621 80.12 714.029 80.12C711.437 80.12 709.781 80.456 709.061 81.128C708.341 81.752 707.981 82.52 707.981 83.432V102.8ZM772.371 119H748.107C747.195 119 746.523 118.808 746.091 118.424C745.707 117.992 745.515 117.32 745.515 116.408V69.752C745.515 68.84 745.707 68.192 746.091 67.808C746.523 67.376 747.195 67.16 748.107 67.16H772.371C778.371 67.16 782.811 68.36 785.691 70.76C788.619 73.16 790.083 76.856 790.083 81.848V104.312C790.083 109.304 788.619 113 785.691 115.4C782.811 117.8 778.371 119 772.371 119ZM761.859 80.912V105.392H770.427C771.579 105.392 772.419 105.104 772.947 104.528C773.523 103.952 773.811 103.064 773.811 101.864V84.368C773.811 83.168 773.523 82.304 772.947 81.776C772.419 81.2 771.579 80.912 770.427 80.912H761.859Z" fill="black"/>
</svg>
